{
.appVersion = "3091";
copyright = "Copyright 2021 The Albert Sans Project Authors (https://github.com/usted/Albert-Sans)";
customParameters = (
{
name = "Use Typo Metrics";
value = 1;
},
{
name = fsType;
value = (
);
},
{
name = "Variable Font Origin";
value = "9F107B1E-3A61-4335-981B-27DD48125C7E";
},
{
name = "Use Line Breaks";
value = 1;
},
{
name = license;
value = "This Font Software is licensed under the SIL Open Font License, Version 1.1. This license is available with a FAQ at: https://scripts.sil.org/OFL";
},
{
name = licenseURL;
value = "https://scripts.sil.org/OFL";
},
{
name = Axes;
value = (
{
Name = Weight;
Tag = wght;
}
);
}
);
date = "2021-08-28 16:00:04 +0000";
designer = "Andreas Rasmussen";
designerURL = "https://www.andreasrasmussen.net";
familyName = "Albert Sans";
fontMaster = (
{
ascender = 720;
capHeight = 700;
custom = Thin;
customParameters = (
{
name = typoAscender;
value = 950;
},
{
name = typoDescender;
value = -250;
},
{
name = typoLineGap;
value = 0;
},
{
name = winAscent;
value = 1100;
},
{
name = winDescent;
value = 320;
},
{
name = underlineThickness;
value = 50;
},
{
name = underlinePosition;
value = -100;
},
{
name = strikeoutPosition;
value = 300;
},
{
name = strikeoutSize;
value = 50;
},
{
name = subscriptXOffset;
value = 0;
},
{
name = subscriptXSize;
value = 650;
},
{
name = subscriptYOffset;
value = 75;
},
{
name = subscriptYSize;
value = 600;
},
{
name = superscriptXOffset;
value = 0;
},
{
name = superscriptXSize;
value = 650;
},
{
name = superscriptYOffset;
value = 350;
},
{
name = superscriptYSize;
value = 600;
},
{
name = hheaAscender;
value = 950;
},
{
name = hheaDescender;
value = -250;
},
{
name = hheaLineGap;
value = 0;
}
);
descender = -200;
guideLines = (
{
locked = 1;
position = "{0, 250}";
},
{
position = "{0, -186}";
},
{
position = "{0, 711}";
}
);
horizontalStems = (
20
);
iconName = Light;
id = "6E968933-CD79-43C6-9231-80D77C940F4D";
italicAngle = 11.25;
verticalStems = (
22
);
weightValue = 0;

glyphs = (
{
glyphname = A;
lastChange = "2021-09-01 17:33:40 +0000";
layers = (
{
anchors = (
{
name = ogonek;
position = "{586.773, 0}";
},
{
name = top;
position = "{444.011, 700}";
}
);
guideLines = (
{
angle = -70.8724;
position = "{573.392, 86.5}";
},
{
angle = 70.5773;
position = "{175.892, 86.5}";
}
);
hints = (
{
horizontal = 1;
place = "{105.381, 22.381}";
type = Stem;
},
{
horizontal = 1;
place = "{630.381, -20}";
target = down;
type = TopGhost;
},
{
horizontal = 1;
place = "{-69.619, 21}";
target = up;
type = BottomGhost;
}
);
layerId = "0CF0EA28-C756-4A9E-9D7C-CFEF350B4CFE";
paths = (
{
closed = 1;
nodes = (
"75.773 0 LINE",
"171.185 173 LINE",
"508.185 173 LINE",
"533.773 0 LINE",
"651.773 0 LINE",
"542.011 700 LINE",
"346.011 700 LINE",
"-41.227 0 LINE"
);
},
{
closed = 1;
nodes = (
"495.081 268 LINE",
"223.081 268 LINE",
"408.115 605 LINE",
"444.115 605 LINE"
);
}
);
width = 710.004;
},
{
anchors = (
{
name = ogonek;
position = "{529.773, 0}";
},
{
name = top;
position = "{399.415, 697}";
}
);
guideLines = (
{
angle = -69.1455;
position = "{563.392, 105}";
},
{
angle = 68.9077;
position = "{93.892, 105}";
}
);
hints = (
{
horizontal = 1;
place = "{630.381, -20}";
target = down;
type = TopGhost;
},
{
horizontal = 1;
place = "{-69.619, 21}";
target = up;
type = BottomGhost;
}
);
layerId = "6E968933-CD79-43C6-9231-80D77C940F4D";
paths = (
{
closed = 1;
nodes = (
"-16.227 0 LINE",
"106.544 210 LINE",
"495.544 210 LINE",
"533.773 0 LINE",
"556.773 0 LINE",
"429.011 700 LINE",
"368.011 700 LINE",
"-39.227 0 LINE"
);
},
{
closed = 1;
nodes = (
"492.523 230 LINE",
"117.523 230 LINE",
"379.033 680 LINE",
"411.033 680 LINE"
);
}
);
width = 617.00053;
},
{
anchors = (
{
name = ogonek;
position = "{663.972, 1}";
},
{
name = top;
position = "{488.011, 700}";
}
);
guideLines = (
{
angle = -70.3462;
position = "{606.392, 70}";
},
{
angle = 70.71;
position = "{229.892, 70}";
}
);
hints = (
{
horizontal = 1;
place = "{305.381, 71.381}";
type = Stem;
},
{
horizontal = 1;
place = "{227.381, -20}";
target = down;
type = TopGhost;
},
{
horizontal = 1;
place = "{-69.619, 21}";
target = up;
type = BottomGhost;
}
);
layerId = "BAF31694-0472-4296-B0EA-1654553C45D2";
paths = (
{
closed = 1;
nodes = (
"135.773 0 LINE",
"212.62 140 LINE",
"539.62 140 LINE",
"561.773 0 LINE",
"740.773 0 LINE",
"626.011 700 LINE",
"351.011 700 LINE",
"-44.227 0 LINE"
);
},
{
closed = 1;
nodes = (
"515.662 286 LINE",
"292.662 286 LINE",
"439.97 554 LINE",
"474.97 554 LINE"
);
}
);
width = 796.0007;
},
{
anchors = (
{
name = ogonek;
position = "{565.773, 0}";
},
{
name = top;
position = "{426.812, 699}";
}
);
guideLines = (
{
angle = 69.7174;
position = "{144.392, 92}";
},
{
angle = -69.9919;
position = "{569.892, 92}";
}
);
hints = (
{
horizontal = 1;
place = "{630.381, -20}";
target = down;
type = TopGhost;
},
{
horizontal = 1;
place = "{-69.619, 21}";
target = up;
type = BottomGhost;
}
);
layerId = "9F107B1E-3A61-4335-981B-27DD48125C7E";
paths = (
{
closed = 1;
nodes = (
"40.773 0 LINE",
"145.373 184 LINE",
"503.373 184 LINE",
"533.773 0 LINE",
"615.773 0 LINE",
"500.011 700 LINE",
"355.011 700 LINE",
"-40.227 0 LINE"
);
},
{
closed = 1;
nodes = (
"492.296 254 LINE",
"185.296 254 LINE",
"397.087 630 LINE",
"430.087 630 LINE"
);
}
);
width = 675.0007;
}
);
leftMetricsKey = "=H*0.1";
rightMetricsKey = "=H*0.1";
unicode = 0041;
},
{
glyphname = Aacute;
lastChange = "2021-09-01 17:33:40 +0000";
layers = (
{
anchors = (
{
name = ogonek;
position = "{586.773, 0}";
},
{
name = top;
position = "{444.012, 700}";
}
);
hints = (
{
horizontal = 1;
place = "{80.943, -2.057}";
type = Stem;
},
{
horizontal = 1;
place = "{605.943, -20}";
target = down;
type = TopGhost;
},
{
horizontal = 1;
place = "{-94.057, 21}";
target = up;
type = BottomGhost;
}
);
layerId = "0CF0EA28-C756-4A9E-9D7C-CFEF350B4CFE";
paths = (
{
closed = 1;
nodes = (
"75.773 0 LINE",
"171.185 173 LINE",
"508.185 173 LINE",
"533.773 0 LINE",
"651.773 0 LINE",
"542.012 700 LINE",
"346.012 700 LINE",
"-41.227 0 LINE"
);
},
{
closed = 1;
nodes = (
"495.082 268 LINE",
"223.082 268 LINE",
"408.115 605 LINE",
"444.115 605 LINE"
);
},
{
closed = 1;
nodes = (
"350.65 823.861 LINE",
"333.824 739.273 LINE",
"576.457 848.029 LINE",
"595.887 945.708 LINE"
);
}
);
width = 710;
},
{
anchors = (
{
name = ogonek;
position = "{529.769, 0}";
},
{
name = top;
position = "{399.411, 697}";
}
);
hints = (
{
horizontal = 1;
place = "{610.909, -20}";
target = down;
type = TopGhost;
},
{
horizontal = 1;
place = "{-89.091, 21}";
target = up;
type = BottomGhost;
}
);
layerId = "6E968933-CD79-43C6-9231-80D77C940F4D";
paths = (
{
closed = 1;
nodes = (
"-16.231 0 LINE",
"106.541 210 LINE",
"495.541 210 LINE",
"533.769 0 LINE",
"556.769 0 LINE",
"429.008 700 LINE",
"368.008 700 LINE",
"-39.231 0 LINE"
);
},
{
closed = 1;
nodes = (
"492.519 230 LINE",
"117.519 230 LINE",
"379.029 680 LINE",
"411.029 680 LINE"
);
},
{
closed = 1;
nodes = (
"306.449 762.546 LINE",
"302.295 741.665 LINE",
"515.007 870.924 LINE",
"519.951 895.782 LINE"
);
}
);
width = 616.99574;
},
{
anchors = (
{
name = ogonek;
position = "{663.97, 1}";
},
{
name = top;
position = "{488.009, 700}";
}
);
hints = (
{
horizontal = 1;
place = "{278.501, 44.501}";
type = Stem;
},
{
horizontal = 1;
place = "{200.501, -20}";
target = down;
type = TopGhost;
},
{
horizontal = 1;
place = "{-96.499, 21}";
target = up;
type = BottomGhost;
}
);
layerId = "BAF31694-0472-4296-B0EA-1654553C45D2";
paths = (
{
closed = 1;
nodes = (
"135.771 0 LINE",
"212.618 140 LINE",
"539.618 140 LINE",
"561.771 0 LINE",
"740.771 0 LINE",
"626.009 700 LINE",
"351.009 700 LINE",
"-44.229 0 LINE"
);
},
{
closed = 1;
nodes = (
"515.66 286 LINE",
"292.66 286 LINE",
"439.968 554 LINE",
"474.968 554 LINE"
);
},
{
closed = 1;
nodes = (
"398.972 856.919 LINE",
"375.041 736.608 LINE",
"637.621 835.044 LINE",
"664.519 970.269 LINE"
);
}
);
width = 796.00047;
},
{
anchors = (
{
name = ogonek;
position = "{565.774, 0}";
},
{
name = top;
position = "{426.814, 699}";
}
);
hints = (
{
horizontal = 1;
place = "{607.734, -20}";
target = down;
type = TopGhost;
},
{
horizontal = 1;
place = "{-92.266, 21}";
target = up;
type = BottomGhost;
}
);
layerId = "9F107B1E-3A61-4335-981B-27DD48125C7E";
paths = (
{
closed = 1;
nodes = (
"40.774 0 LINE",
"145.374 184 LINE",
"503.374 184 LINE",
"533.774 0 LINE",
"615.774 0 LINE",
"500.013 700 LINE",
"355.013 700 LINE",
"-40.226 0 LINE"
);
},
{
closed = 1;
nodes = (
"492.298 254 LINE",
"185.298 254 LINE",
"397.089 630 LINE",
"430.089 630 LINE"
);
},
{
closed = 1;
nodes = (
"334.887 802.43 LINE",
"322.926 742.298 LINE",
"553.852 857.551 LINE",
"567.806 927.705 LINE"
);
}
);
width = 675.00465;
}
);
leftMetricsKey = A;
rightMetricsKey = A;
unicode = 00C1;
},
{
glyphname = Abreve;
lastChange = "2021-09-01 17:33:40 +0000";
layers = (
{
anchors = (
{
name = ogonek;
position = "{586.769, 0}";
},
{
name = top;
position = "{444.008, 700}";
}
);
hints = (
{
horizontal = 1;
place = "{84.649, 1.649}";
type = Stem;
},
{
horizontal = 1;
place = "{609.649, -20}";
target = down;
type = TopGhost;
},
{
horizontal = 1;
place = "{-90.351, 21}";
target = up;
type = BottomGhost;
},
{
place = "{113.399, -24.896}";
type = Stem;
},
{
place = "{348.399, -23.889}";
type = Stem;
},
{
horizontal = 1;
place = "{655.971, -0.728}";
type = Stem;
},
{
horizontal = 1;
place = "{655.971, 71.776}";
type = Stem;
}
);
layerId = "0CF0EA28-C756-4A9E-9D7C-CFEF350B4CFE";
paths = (
{
closed = 1;
nodes = (
"75.769 0 LINE",
"171.181 173 LINE",
"508.181 173 LINE",
"533.769 0 LINE",
"651.769 0 LINE",
"542.008 700 LINE",
"346.008 700 LINE",
"-41.231 0 LINE"
);
},
{
closed = 1;
nodes = (
"495.078 268 LINE",
"223.078 268 LINE",
"408.111 605 LINE",
"444.111 605 LINE"
);
},
{
closed = 1;
nodes = (
"636.471 908.449 LINE",
"570.471 908.449 LINE",
"561.457 863.134 OFFCURVE",
"536.049 835.945 OFFCURVE",
"471.049 835.945 CURVE SMOOTH",
"406.049 835.945 OFFCURVE",
"391.457 863.134 OFFCURVE",
"400.471 908.449 CURVE",
"335.471 908.449 LINE",
"331.264 887.302 LINE SMOOTH",
"314.639 803.721 OFFCURVE",
"359.222 746.322 OFFCURVE",
"453.222 746.322 CURVE SMOOTH",
"548.222 746.322 OFFCURVE",
"615.439 802.714 OFFCURVE",
"632.064 886.295 CURVE SMOOTH"
);
}
);
width = 710;
},
{
anchors = (
{
name = ogonek;
position = "{529.772, 0}";
},
{
name = top;
position = "{399.414, 697}";
}
);
hints = (
{
horizontal = 1;
place = "{612.392, -20}";
target = down;
type = TopGhost;
},
{
horizontal = 1;
place = "{-87.608, 21}";
target = up;
type = BottomGhost;
},
{
place = "{117.392, -66.727}";
type = Stem;
},
{
place = "{329.392, -64.739}";
type = Stem;
},
{
horizontal = 1;
place = "{671.955, 21}";
target = up;
type = BottomGhost;
},
{
horizontal = 1;
place = "{777.351, -20}";
target = down;
type = TopGhost;
}
);
layerId = "6E968933-CD79-43C6-9231-80D77C940F4D";
paths = (
{
closed = 1;
nodes = (
"-16.228 0 LINE",
"106.544 210 LINE",
"495.544 210 LINE",
"533.772 0 LINE",
"556.772 0 LINE",
"429.011 700 LINE",
"368.011 700 LINE",
"-39.228 0 LINE"
);
},
{
closed = 1;
nodes = (
"492.522 230 LINE",
"117.522 230 LINE",
"379.033 680 LINE",
"411.033 680 LINE"
);
},
{
closed = 1;
nodes = (
"555.988 880.867 LINE",
"534.988 880.867 LINE",
"523.714 824.192 OFFCURVE",
"481.188 791.38 OFFCURVE",
"419.188 791.38 CURVE",
"357.188 791.38 OFFCURVE",
"328.714 824.192 OFFCURVE",
"339.988 880.867 CURVE",
"318.988 880.867 LINE",
"317.999 875.896 LINE SMOOTH",
"308.505 828.17 OFFCURVE",
"330.43 772.489 OFFCURVE",
"415.43 772.489 CURVE",
"501.43 772.489 OFFCURVE",
"545.505 828.17 OFFCURVE",
"554.999 875.896 CURVE SMOOTH"
);
}
);
width = 616.99574;
},
{
anchors = (
{
name = ogonek;
position = "{663.97, 1}";
},
{
name = top;
position = "{488.009, 700}";
}
);
hints = (
{
horizontal = 1;
place = "{282.061, 48.061}";
type = Stem;
},
{
horizontal = 1;
place = "{204.061, -20}";
target = down;
type = TopGhost;
},
{
horizontal = 1;
place = "{-92.939, 21}";
target = up;
type = BottomGhost;
},
{
place = "{137.061, -6.435}";
type = Stem;
},
{
place = "{394.061, -6.435}";
type = Stem;
},
{
horizontal = 1;
place = "{647.646, 35.325}";
type = Stem;
},
{
horizontal = 1;
place = "{647.646, 100.949}";
type = Stem;
}
);
layerId = "BAF31694-0472-4296-B0EA-1654553C45D2";
paths = (
{
closed = 1;
nodes = (
"135.771 0 LINE",
"212.618 140 LINE",
"539.618 140 LINE",
"561.771 0 LINE",
"740.771 0 LINE",
"626.009 700 LINE",
"351.009 700 LINE",
"-44.229 0 LINE"
);
},
{
closed = 1;
nodes = (
"515.66 286 LINE",
"292.66 286 LINE",
"439.968 554 LINE",
"474.968 554 LINE"
);
},
{
closed = 1;
nodes = (
"711.399 934.474 LINE",
"624.399 934.474 LINE",
"616.093 892.714 OFFCURVE",
"591.148 867.856 OFFCURVE",
"526.148 867.856 CURVE SMOOTH",
"461.148 867.856 OFFCURVE",
"446.093 892.714 OFFCURVE",
"454.399 934.474 CURVE",
"367.399 934.474 LINE",
"363.641 915.582 LINE SMOOTH",
"340.897 801.238 OFFCURVE",
"400.832 740.586 OFFCURVE",
"500.832 740.586 CURVE SMOOTH",
"601.832 740.586 OFFCURVE",
"684.897 801.238 OFFCURVE",
"707.641 915.582 CURVE SMOOTH"
);
}
);
width = 796.00047;
},
{
anchors = (
{
name = ogonek;
position = "{565.775, 0}";
},
{
name = top;
position = "{426.814, 699}";
}
);
hints = (
{
horizontal = 1;
place = "{610.625, -20}";
target = down;
type = TopGhost;
},
{
horizontal = 1;
place = "{-89.375, 21}";
target = up;
type = BottomGhost;
},
{
place = "{480.625, -25.235}";
type = Stem;
},
{
place = "{560.625, 19.864}";
type = Stem;
},
{
horizontal = 1;
place = "{288.122, 21}";
target = up;
type = BottomGhost;
},
{
horizontal = 1;
place = "{328.21, -20}";
target = down;
type = TopGhost;
}
);
layerId = "9F107B1E-3A61-4335-981B-27DD48125C7E";
paths = (
{
closed = 1;
nodes = (
"40.775 0 LINE",
"145.374 184 LINE",
"503.374 184 LINE",
"533.775 0 LINE",
"615.775 0 LINE",
"500.013 700 LINE",
"355.013 700 LINE",
"-40.225 0 LINE"
);
},
{
closed = 1;
nodes = (
"492.298 254 LINE",
"185.298 254 LINE",
"397.089 630 LINE",
"430.089 630 LINE"
);
},
{
closed = 1;
nodes = (
"607.025 898.641 LINE",
"558.025 898.641 LINE",
"548.058 848.531 OFFCURVE",
"516.277 819.467 OFFCURVE",
"452.277 819.467 CURVE",
"388.277 819.467 OFFCURVE",
"368.058 848.531 OFFCURVE",
"378.025 898.641 CURVE",
"330.025 898.641 LINE",
"327.035 883.608 LINE SMOOTH",
"313.081 813.454 OFFCURVE",
"348.718 756.329 OFFCURVE",
"439.718 756.329 CURVE",
"531.718 756.329 OFFCURVE",
"589.881 812.452 OFFCURVE",
"603.836 882.606 CURVE SMOOTH"
);
}
);
width = 675.00465;
}
);
leftMetricsKey = A;
rightMetricsKey = A;
unicode = 0102;
},
{
glyphname = Acircumflex;
lastChange = "2021-09-01 17:33:40 +0000";
layers = (
{
anchors = (
{
name = ogonek;
position = "{586.769, 0}";
},
{
name = top;
position = "{444.007, 700}";
}
);
hints = (
{
horizontal = 1;
place = "{84.249, 1.249}";
type = Stem;
},
{
horizontal = 1;
place = "{609.249, -20}";
target = down;
type = TopGhost;
},
{
horizontal = 1;
place = "{-90.751, 21}";
target = up;
type = BottomGhost;
}
);
layerId = "0CF0EA28-C756-4A9E-9D7C-CFEF350B4CFE";
paths = (
{
closed = 1;
nodes = (
"75.769 0 LINE",
"171.18 173 LINE",
"508.18 173 LINE",
"533.769 0 LINE",
"651.769 0 LINE",
"542.007 700 LINE",
"346.007 700 LINE",
"-41.231 0 LINE"
);
},
{
closed = 1;
nodes = (
"495.077 268 LINE",
"223.077 268 LINE",
"408.111 605 LINE",
"444.111 605 LINE"
);
},
{
closed = 1;
nodes = (
"612.646 828.896 LINE",
"486.271 912.477 LINE",
"326.646 828.896 LINE",
"308.819 739.273 LINE",
"469.045 825.875 LINE",
"594.819 739.273 LINE"
);
}
);
width = 710;
},
{
anchors = (
{
name = ogonek;
position = "{529.769, 0}";
},
{
name = top;
position = "{399.411, 697}";
}
);
hints = (
{
horizontal = 1;
place = "{612.689, -20}";
target = down;
type = TopGhost;
},
{
horizontal = 1;
place = "{-87.311, 21}";
target = up;
type = BottomGhost;
}
);
layerId = "6E968933-CD79-43C6-9231-80D77C940F4D";
paths = (
{
closed = 1;
nodes = (
"-16.231 0 LINE",
"106.541 210 LINE",
"495.541 210 LINE",
"533.769 0 LINE",
"556.769 0 LINE",
"429.008 700 LINE",
"368.008 700 LINE",
"-39.231 0 LINE"
);
},
{
closed = 1;
nodes = (
"492.519 230 LINE",
"117.519 230 LINE",
"379.029 680 LINE",
"411.029 680 LINE"
);
},
{
closed = 1;
nodes = (
"544.371 797.346 LINE",
"436.391 877.885 LINE",
"296.371 797.346 LINE",
"292.02 775.472 LINE",
"432.04 856.01 LINE",
"540.02 775.472 LINE"
);
}
);
width = 616.99574;
},
{
anchors = (
{
name = ogonek;
position = "{663.972, 1}";
},
{
name = top;
position = "{488.012, 700}";
}
);
hints = (
{
horizontal = 1;
place = "{281.863, 47.863}";
type = Stem;
},
{
horizontal = 1;
place = "{203.863, -20}";
target = down;
type = TopGhost;
},
{
horizontal = 1;
place = "{-93.137, 21}";
target = up;
type = BottomGhost;
}
);
layerId = "BAF31694-0472-4296-B0EA-1654553C45D2";
paths = (
{
closed = 1;
nodes = (
"135.773 0 LINE",
"212.621 140 LINE",
"539.621 140 LINE",
"561.773 0 LINE",
"740.773 0 LINE",
"626.012 700 LINE",
"351.012 700 LINE",
"-44.227 0 LINE"
);
},
{
closed = 1;
nodes = (
"515.662 286 LINE",
"292.662 286 LINE",
"439.97 554 LINE",
"474.97 554 LINE"
);
},
{
closed = 1;
nodes = (
"680.37 858.907 LINE",
"539.797 936.463 LINE",
"368.37 858.907 LINE",
"344.439 738.597 LINE",
"516.459 819.135 LINE",
"656.439 738.597 LINE"
);
}
);
width = 796.00047;
},
{
anchors = (
{
name = ogonek;
position = "{565.775, 0}";
},
{
name = top;
position = "{426.815, 699}";
}
);
hints = (
{
horizontal = 1;
place = "{610.525, -20}";
target = down;
type = TopGhost;
},
{
horizontal = 1;
place = "{-89.475, 21}";
target = up;
type = BottomGhost;
}
);
layerId = "9F107B1E-3A61-4335-981B-27DD48125C7E";
paths = (
{
closed = 1;
nodes = (
"40.775 0 LINE",
"145.375 184 LINE",
"503.375 184 LINE",
"533.775 0 LINE",
"615.775 0 LINE",
"500.014 700 LINE",
"355.014 700 LINE",
"-40.225 0 LINE"
);
},
{
closed = 1;
nodes = (
"492.299 254 LINE",
"185.299 254 LINE",
"397.09 630 LINE",
"430.09 630 LINE"
);
},
{
closed = 1;
nodes = (
"587.878 817.463 LINE",
"468.225 899.643 LINE",
"315.878 817.463 LINE",
"303.12 753.322 LINE",
"455.865 837.507 LINE",
"575.12 753.322 LINE"
);
}
);
width = 675.00465;
}
);
leftMetricsKey = A;
rightMetricsKey = A;
unicode = 00C2;
},
{
glyphname = Adieresis;
lastChange = "2021-09-01 17:33:40 +0000";
layers = (
{
anchors = (
{
name = ogonek;
position = "{586.772, 0}";
},
{
name = top;
position = "{444.011, 700}";
}
);
hints = (
{
horizontal = 1;
place = "{86.452, 3.452}";
type = Stem;
},
{
horizontal = 1;
place = "{611.452, -20}";
target = down;
type = TopGhost;
},
{
horizontal = 1;
place = "{-88.548, 21}";
target = up;
type = BottomGhost;
},
{
place = "{119.202, 32.292}";
type = Stem;
},
{
place = "{291.202, 32.292}";
type = Stem;
},
{
horizontal = 1;
place = "{680.935, 32.292}";
type = Stem;
}
);
layerId = "0CF0EA28-C756-4A9E-9D7C-CFEF350B4CFE";
paths = (
{
closed = 1;
nodes = (
"75.772 0 LINE",
"171.184 173 LINE",
"508.184 173 LINE",
"533.772 0 LINE",
"651.772 0 LINE",
"542.011 700 LINE",
"346.011 700 LINE",
"-41.228 0 LINE"
);
},
{
closed = 1;
nodes = (
"495.08 268 LINE",
"223.08 268 LINE",
"408.114 605 LINE",
"444.114 605 LINE"
);
},
{
closed = 1;
nodes = (
"404.832 769.483 OFFCURVE",
"437.04 795.665 OFFCURVE",
"443.85 829.903 CURVE SMOOTH",
"450.46 863.134 OFFCURVE",
"428.868 890.323 OFFCURVE",
"395.868 890.323 CURVE SMOOTH",
"361.868 890.323 OFFCURVE",
"330.46 863.134 OFFCURVE",
"323.85 829.903 CURVE SMOOTH",
"317.04 795.665 OFFCURVE",
"337.832 769.483 OFFCURVE",
"371.832 769.483 CURVE SMOOTH"
);
},
{
closed = 1;
nodes = (
"576.832 769.483 OFFCURVE",
"609.04 795.665 OFFCURVE",
"615.85 829.903 CURVE SMOOTH",
"622.46 863.134 OFFCURVE",
"600.868 890.323 OFFCURVE",
"567.868 890.323 CURVE SMOOTH",
"533.868 890.323 OFFCURVE",
"502.46 863.134 OFFCURVE",
"495.85 829.903 CURVE SMOOTH",
"489.04 795.665 OFFCURVE",
"509.832 769.483 OFFCURVE",
"543.832 769.483 CURVE SMOOTH"
);
}
);
width = 710;
},
{
anchors = (
{
name = ogonek;
position = "{529.773, 0}";
},
{
name = top;
position = "{399.415, 697}";
}
);
hints = (
{
horizontal = 1;
place = "{615.853, -20}";
target = down;
type = TopGhost;
},
{
horizontal = 1;
place = "{-84.147, 21}";
target = up;
type = BottomGhost;
},
{
place = "{129.853, -23.494}";
type = Stem;
},
{
place = "{264.853, -24.489}";
type = Stem;
},
{
horizontal = 1;
place = "{699.28, -23.494}";
type = Stem;
}
);
layerId = "6E968933-CD79-43C6-9231-80D77C940F4D";
paths = (
{
closed = 1;
nodes = (
"-16.227 0 LINE",
"106.545 210 LINE",
"495.545 210 LINE",
"533.773 0 LINE",
"556.773 0 LINE",
"429.012 700 LINE",
"368.012 700 LINE",
"-39.227 0 LINE"
);
},
{
closed = 1;
nodes = (
"492.523 230 LINE",
"117.523 230 LINE",
"379.034 680 LINE",
"411.034 680 LINE"
);
},
{
closed = 1;
nodes = (
"368.002 785.415 OFFCURVE",
"384.771 799.335 OFFCURVE",
"387.935 815.244 CURVE SMOOTH",
"391.298 832.147 OFFCURVE",
"380.067 846.067 OFFCURVE",
"363.067 846.067 CURVE SMOOTH",
"346.067 846.067 OFFCURVE",
"330.298 832.147 OFFCURVE",
"326.935 815.244 CURVE SMOOTH",
"323.771 799.335 OFFCURVE",
"334.002 785.415 OFFCURVE",
"351.002 785.415 CURVE SMOOTH"
);
},
{
closed = 1;
nodes = (
"502.002 785.415 OFFCURVE",
"518.771 799.335 OFFCURVE",
"521.935 815.244 CURVE SMOOTH",
"525.298 832.147 OFFCURVE",
"514.067 846.067 OFFCURVE",
"498.067 846.067 CURVE SMOOTH",
"481.067 846.067 OFFCURVE",
"464.298 832.147 OFFCURVE",
"460.935 815.244 CURVE SMOOTH",
"457.771 799.335 OFFCURVE",
"469.002 785.415 OFFCURVE",
"486.002 785.415 CURVE SMOOTH"
);
}
);
width = 617.00574;
},
{
anchors = (
{
name = ogonek;
position = "{663.973, 1}";
},
{
name = top;
position = "{488.013, 700}";
}
);
hints = (
{
horizontal = 1;
place = "{284.434, 50.434}";
type = Stem;
},
{
horizontal = 1;
place = "{206.434, -20}";
target = down;
type = TopGhost;
},
{
horizontal = 1;
place = "{-90.566, 21}";
target = up;
type = BottomGhost;
},
{
place = "{135.434, 58.579}";
type = Stem;
},
{
place = "{338.434, 58.579}";
type = Stem;
},
{
horizontal = 1;
place = "{670.9, 58.579}";
type = Stem;
}
);
layerId = "BAF31694-0472-4296-B0EA-1654553C45D2";
paths = (
{
closed = 1;
nodes = (
"135.774 0 LINE",
"212.622 140 LINE",
"539.622 140 LINE",
"561.774 0 LINE",
"740.774 0 LINE",
"626.013 700 LINE",
"351.013 700 LINE",
"-44.226 0 LINE"
);
},
{
closed = 1;
nodes = (
"515.663 286 LINE",
"292.663 286 LINE",
"439.972 554 LINE",
"474.972 554 LINE"
);
},
{
closed = 1;
nodes = (
"445.989 761.466 OFFCURVE",
"485.318 793.284 OFFCURVE",
"493.625 835.044 CURVE SMOOTH",
"502.129 877.799 OFFCURVE",
"475.656 910.611 OFFCURVE",
"432.656 910.611 CURVE SMOOTH",
"390.656 910.611 OFFCURVE",
"352.129 877.799 OFFCURVE",
"343.625 835.044 CURVE SMOOTH",
"335.318 793.284 OFFCURVE",
"360.989 761.466 OFFCURVE",
"402.989 761.466 CURVE SMOOTH"
);
},
{
closed = 1;
nodes = (
"648.989 761.466 OFFCURVE",
"687.318 793.284 OFFCURVE",
"695.625 835.044 CURVE SMOOTH",
"704.129 877.799 OFFCURVE",
"678.656 910.611 OFFCURVE",
"635.656 910.611 CURVE SMOOTH",
"593.656 910.611 OFFCURVE",
"555.129 877.799 OFFCURVE",
"546.625 835.044 CURVE SMOOTH",
"538.318 793.284 OFFCURVE",
"563.989 761.466 OFFCURVE",
"605.989 761.466 CURVE SMOOTH"
);
}
);
width = 796.00047;
},
{
anchors = (
{
name = ogonek;
position = "{565.776, 0}";
},
{
name = top;
position = "{426.816, 699}";
}
);
hints = (
{
horizontal = 1;
place = "{613.216, -20}";
target = down;
type = TopGhost;
},
{
horizontal = 1;
place = "{-86.784, 21}";
target = up;
type = BottomGhost;
},
{
place = "{124.216, 11.432}";
type = Stem;
},
{
place = "{282.216, 11.432}";
type = Stem;
},
{
horizontal = 1;
place = "{688.587, 11.432}";
type = Stem;
}
);
layerId = "9F107B1E-3A61-4335-981B-27DD48125C7E";
paths = (
{
closed = 1;
nodes = (
"40.776 0 LINE",
"145.376 184 LINE",
"503.376 184 LINE",
"533.776 0 LINE",
"615.776 0 LINE",
"500.015 700 LINE",
"355.015 700 LINE",
"-40.224 0 LINE"
);
},
{
closed = 1;
nodes = (
"492.3 254 LINE",
"185.3 254 LINE",
"397.091 630 LINE",
"430.091 630 LINE"
);
},
{
closed = 1;
nodes = (
"392.308 774.368 OFFCURVE",
"418.494 795.415 OFFCURVE",
"423.876 822.474 CURVE SMOOTH",
"429.259 849.533 OFFCURVE",
"411.844 872.584 OFFCURVE",
"384.844 872.584 CURVE SMOOTH",
"356.844 872.584 OFFCURVE",
"331.259 849.533 OFFCURVE",
"325.876 822.474 CURVE SMOOTH",
"320.494 795.415 OFFCURVE",
"337.308 774.368 OFFCURVE",
"365.308 774.368 CURVE SMOOTH"
);
},
{
closed = 1;
nodes = (
"549.308 774.368 OFFCURVE",
"576.494 795.415 OFFCURVE",
"581.876 822.474 CURVE SMOOTH",
"587.259 849.533 OFFCURVE",
"568.844 872.584 OFFCURVE",
"542.844 872.584 CURVE SMOOTH",
"514.844 872.584 OFFCURVE",
"489.259 849.533 OFFCURVE",
"483.876 822.474 CURVE SMOOTH",
"478.494 795.415 OFFCURVE",
"495.308 774.368 OFFCURVE",
"523.308 774.368 CURVE SMOOTH"
);
}
);
width = 675.00465;
}
);
leftMetricsKey = A;
rightMetricsKey = A;
unicode = 00C4;
},
{
glyphname = Agrave;
lastChange = "2021-09-01 17:33:40 +0000";
layers = (
{
anchors = (
{
name = ogonek;
position = "{586.773, 0}";
},
{
name = top;
position = "{444.012, 700}";
}
);
hints = (
{
horizontal = 1;
place = "{80.943, -2.057}";
type = Stem;
},
{
horizontal = 1;
place = "{605.943, -20}";
target = down;
type = TopGhost;
},
{
horizontal = 1;
place = "{-94.057, 21}";
target = up;
type = BottomGhost;
}
);
layerId = "0CF0EA28-C756-4A9E-9D7C-CFEF350B4CFE";
paths = (
{
closed = 1;
nodes = (
"75.773 0 LINE",
"171.185 173 LINE",
"508.185 173 LINE",
"533.773 0 LINE",
"651.773 0 LINE",
"542.012 700 LINE",
"346.012 700 LINE",
"-41.227 0 LINE"
);
},
{
closed = 1;
nodes = (
"495.082 268 LINE",
"223.082 268 LINE",
"408.115 605 LINE",
"444.115 605 LINE"
);
},
{
closed = 1;
nodes = (
"355.858 850.043 LINE",
"554.824 739.273 LINE",
"571.65 823.861 LINE",
"374.887 945.708 LINE"
);
}
);
width = 710;
},
{
anchors = (
{
name = ogonek;
position = "{529.769, 0}";
},
{
name = top;
position = "{399.411, 697}";
}
);
hints = (
{
horizontal = 1;
place = "{610.909, -20}";
target = down;
type = TopGhost;
},
{
horizontal = 1;
place = "{-89.091, 21}";
target = up;
type = BottomGhost;
}
);
layerId = "6E968933-CD79-43C6-9231-80D77C940F4D";
paths = (
{
closed = 1;
nodes = (
"-16.231 0 LINE",
"106.541 210 LINE",
"495.541 210 LINE",
"533.769 0 LINE",
"556.769 0 LINE",
"429.008 700 LINE",
"368.008 700 LINE",
"-39.231 0 LINE"
);
},
{
closed = 1;
nodes = (
"492.519 230 LINE",
"117.519 230 LINE",
"379.029 680 LINE",
"411.029 680 LINE"
);
},
{
closed = 1;
nodes = (
"328.007 870.924 LINE",
"489.295 741.665 LINE",
"493.449 762.546 LINE",
"332.951 895.782 LINE"
);
}
);
width = 616.99574;
},
{
anchors = (
{
name = ogonek;
position = "{663.97, 1}";
},
{
name = top;
position = "{488.009, 700}";
}
);
hints = (
{
horizontal = 1;
place = "{278.501, 44.501}";
type = Stem;
},
{
horizontal = 1;
place = "{200.501, -20}";
target = down;
type = TopGhost;
},
{
horizontal = 1;
place = "{-96.499, 21}";
target = up;
type = BottomGhost;
}
);
layerId = "BAF31694-0472-4296-B0EA-1654553C45D2";
paths = (
{
closed = 1;
nodes = (
"135.771 0 LINE",
"212.618 140 LINE",
"539.618 140 LINE",
"561.771 0 LINE",
"740.771 0 LINE",
"626.009 700 LINE",
"351.009 700 LINE",
"-44.229 0 LINE"
);
},
{
closed = 1;
nodes = (
"515.66 286 LINE",
"292.66 286 LINE",
"439.968 554 LINE",
"474.968 554 LINE"
);
},
{
closed = 1;
nodes = (
"394.621 835.044 LINE",
"618.041 736.608 LINE",
"641.972 856.919 LINE",
"421.519 970.269 LINE"
);
}
);
width = 796.00047;
},
{
anchors = (
{
name = ogonek;
position = "{565.774, 0}";
},
{
name = top;
position = "{426.814, 699}";
}
);
hints = (
{
horizontal = 1;
place = "{607.734, -20}";
target = down;
type = TopGhost;
},
{
horizontal = 1;
place = "{-92.266, 21}";
target = up;
type = BottomGhost;
}
);
layerId = "9F107B1E-3A61-4335-981B-27DD48125C7E";
paths = (
{
closed = 1;
nodes = (
"40.774 0 LINE",
"145.374 184 LINE",
"503.374 184 LINE",
"533.774 0 LINE",
"615.774 0 LINE",
"500.013 700 LINE",
"355.013 700 LINE",
"-40.226 0 LINE"
);
},
{
closed = 1;
nodes = (
"492.298 254 LINE",
"185.298 254 LINE",
"397.089 630 LINE",
"430.089 630 LINE"
);
},
{
closed = 1;
nodes = (
"346.051 858.553 LINE",
"530.926 742.298 LINE",
"542.887 802.43 LINE",
"359.806 927.705 LINE"
);
}
);
width = 675.00465;
}
);
leftMetricsKey = A;
rightMetricsKey = A;
unicode = 00C0;
},
{
glyphname = Amacron;
lastChange = "2021-09-01 17:33:40 +0000";
layers = (
{
anchors = (
{
name = ogonek;
position = "{586.775, 0}";
},
{
name = top;
position = "{444.014, 700}";
}
);
hints = (
{
horizontal = 1;
place = "{88.455, 5.455}";
type = Stem;
},
{
horizontal = 1;
place = "{613.455, -20}";
target = down;
type = TopGhost;
},
{
horizontal = 1;
place = "{-86.545, 21}";
target = up;
type = BottomGhost;
},
{
horizontal = 1;
place = "{698.043, -0.95}";
type = Stem;
}
);
layerId = "0CF0EA28-C756-4A9E-9D7C-CFEF350B4CFE";
paths = (
{
closed = 1;
nodes = (
"75.775 0 LINE",
"171.187 173 LINE",
"508.187 173 LINE",
"533.775 0 LINE",
"651.775 0 LINE",
"542.014 700 LINE",
"346.014 700 LINE",
"-41.225 0 LINE"
);
},
{
closed = 1;
nodes = (
"495.083 268 LINE",
"223.083 268 LINE",
"408.117 605 LINE",
"444.117 605 LINE"
);
},
{
closed = 1;
nodes = (
"277.839 784.588 LINE",
"643.839 784.588 LINE",
"660.865 870.183 LINE",
"294.865 870.183 LINE"
);
}
);
width = 710;
},
{
anchors = (
{
name = ogonek;
position = "{529.77, 0}";
},
{
name = top;
position = "{399.412, 697}";
}
);
hints = (
{
horizontal = 1;
place = "{617.04, -20}";
target = down;
type = TopGhost;
},
{
horizontal = 1;
place = "{-82.96, 21}";
target = up;
type = BottomGhost;
},
{
horizontal = 1;
place = "{718.364, 21}";
target = up;
type = BottomGhost;
},
{
horizontal = 1;
place = "{736.261, -20}";
target = down;
type = TopGhost;
}
);
layerId = "6E968933-CD79-43C6-9231-80D77C940F4D";
paths = (
{
closed = 1;
nodes = (
"-16.23 0 LINE",
"106.542 210 LINE",
"495.542 210 LINE",
"533.77 0 LINE",
"556.77 0 LINE",
"429.009 700 LINE",
"368.009 700 LINE",
"-39.23 0 LINE"
);
},
{
closed = 1;
nodes = (
"492.52 230 LINE",
"117.52 230 LINE",
"379.03 680 LINE",
"411.03 680 LINE"
);
},
{
closed = 1;
nodes = (
"268.734 814.249 LINE",
"578.734 814.249 LINE",
"582.69 834.135 LINE",
"272.69 834.135 LINE"
);
}
);
width = 616.99574;
},
{
anchors = (
{
name = ogonek;
position = "{663.969, 1}";
},
{
name = top;
position = "{488.008, 700}";
}
);
hints = (
{
horizontal = 1;
place = "{286.61, 52.61}";
type = Stem;
},
{
horizontal = 1;
place = "{208.61, -20}";
target = down;
type = TopGhost;
},
{
horizontal = 1;
place = "{-88.39, 21}";
target = up;
type = BottomGhost;
},
{
horizontal = 1;
place = "{681.03, 31.92}";
type = Stem;
}
);
layerId = "BAF31694-0472-4296-B0EA-1654553C45D2";
paths = (
{
closed = 1;
nodes = (
"135.77 0 LINE",
"212.617 140 LINE",
"539.617 140 LINE",
"561.77 0 LINE",
"740.77 0 LINE",
"626.008 700 LINE",
"351.008 700 LINE",
"-44.23 0 LINE"
);
},
{
closed = 1;
nodes = (
"515.659 286 LINE",
"292.659 286 LINE",
"439.967 554 LINE",
"474.967 554 LINE"
);
},
{
closed = 1;
nodes = (
"305.567 769.42 LINE",
"708.567 769.42 LINE",
"732.3 888.736 LINE",
"329.3 888.736 LINE"
);
}
);
width = 796.00047;
},
{
anchors = (
{
name = ogonek;
position = "{565.771, 0}";
},
{
name = top;
position = "{426.811, 699}";
}
);
hints = (
{
horizontal = 1;
place = "{614.811, -20}";
target = down;
type = TopGhost;
},
{
horizontal = 1;
place = "{-85.189, 21}";
target = up;
type = BottomGhost;
},
{
horizontal = 1;
place = "{308.343, 21}";
target = up;
type = BottomGhost;
},
{
horizontal = 1;
place = "{315.359, -20}";
target = down;
type = TopGhost;
}
);
layerId = "9F107B1E-3A61-4335-981B-27DD48125C7E";
paths = (
{
closed = 1;
nodes = (
"40.771 0 LINE",
"145.371 184 LINE",
"503.371 184 LINE",
"533.771 0 LINE",
"615.771 0 LINE",
"500.01 700 LINE",
"355.01 700 LINE",
"-40.229 0 LINE"
);
},
{
closed = 1;
nodes = (
"492.295 254 LINE",
"185.295 254 LINE",
"397.086 630 LINE",
"430.086 630 LINE"
);
},
{
closed = 1;
nodes = (
"275.688 796.417 LINE",
"620.688 796.417 LINE",
"632.649 856.549 LINE",
"287.649 856.549 LINE"
);
}
);
width = 674.99465;
}
);
leftMetricsKey = A;
rightMetricsKey = A;
unicode = 0100;
},
{
glyphname = Aogonek;
lastChange = "2021-09-01 17:33:40 +0000";
layers = (
{
anchors = (
{
name = _ogonek;
position = "{-383.725, 0}";
},
{
name = ogonek;
position = "{586.775, 0}";
},
{
name = top;
position = "{444.013, 700}";
}
);
hints = (
{
place = "{407.565, 44.565}";
type = Stem;
},
{
place = "{407.565, 165.565}";
type = Stem;
},
{
horizontal = 1;
place = "{-261.435, 25.565}";
type = Stem;
},
{
horizontal = 1;
place = "{126.565, 43.565}";
type = Stem;
},
{
horizontal = 1;
place = "{651.565, -20}";
target = down;
type = TopGhost;
},
{
horizontal = 1;
place = "{-48.435, 21}";
target = up;
type = BottomGhost;
}
);
layerId = "0CF0EA28-C756-4A9E-9D7C-CFEF350B4CFE";
paths = (
{
closed = 1;
nodes = (
"540.032 39 LINE SMOOTH",
"437.28 -5 OFFCURVE",
"394.732 -53 OFFCURVE",
"384.588 -104 CURVE SMOOTH",
"368.675 -184 OFFCURVE",
"432.907 -213 OFFCURVE",
"495.907 -213 CURVE SMOOTH",
"524.907 -213 OFFCURVE",
"555.299 -206 OFFCURVE",
"580.089 -197 CURVE",
"594.411 -125 LINE",
"569.621 -134 OFFCURVE",
"544.626 -139 OFFCURVE",
"525.626 -139 CURVE SMOOTH",
"491.626 -139 OFFCURVE",
"474.405 -120 OFFCURVE",
"479.975 -92 CURVE SMOOTH",
"484.749 -68 OFFCURVE",
"502.926 -47 OFFCURVE",
"550.302 -25 CURVE SMOOTH",
"604.275 0 LINE",
"585.812 58 LINE"
);
},
{
closed = 1;
nodes = (
"75.775 0 LINE",
"171.187 173 LINE",
"508.187 173 LINE",
"533.775 0 LINE",
"651.775 0 LINE",
"542.013 700 LINE",
"346.013 700 LINE",
"-41.225 0 LINE"
);
},
{
closed = 1;
nodes = (
"495.083 268 LINE",
"223.083 268 LINE",
"408.117 605 LINE",
"444.117 605 LINE"
);
}
);
width = 710;
},
{
anchors = (
{
name = _ogonek;
position = "{-319.232, 0}";
},
{
name = ogonek;
position = "{529.768, 0}";
},
{
name = top;
position = "{399.41, 697}";
}
);
hints = (
{
place = "{371.178, -29.822}";
type = Stem;
},
{
horizontal = 1;
place = "{-235.822, 21}";
target = up;
type = BottomGhost;
},
{
horizontal = 1;
place = "{649.178, -20}";
target = down;
type = TopGhost;
},
{
horizontal = 1;
place = "{-50.822, 21}";
target = up;
type = BottomGhost;
}
);
layerId = "6E968933-CD79-43C6-9231-80D77C940F4D";
paths = (
{
closed = 1;
nodes = (
"467.784 -15 LINE SMOOTH",
"399.215 -43 OFFCURVE",
"368.452 -77 OFFCURVE",
"360.893 -115 CURVE SMOOTH",
"350.748 -166 OFFCURVE",
"385.173 -189 OFFCURVE",
"437.173 -189 CURVE SMOOTH",
"456.173 -189 OFFCURVE",
"478.969 -185 OFFCURVE",
"501.56 -177 CURVE",
"505.738 -156 LINE",
"483.146 -164 OFFCURVE",
"460.152 -169 OFFCURVE",
"440.152 -169 CURVE SMOOTH",
"401.152 -169 OFFCURVE",
"374.533 -152 OFFCURVE",
"382.092 -114 CURVE SMOOTH",
"387.86 -85 OFFCURVE",
"411.629 -56 OFFCURVE",
"468.204 -33 CURVE SMOOTH",
"545.768 0 LINE",
"541.95 16 LINE"
);
},
{
closed = 1;
nodes = (
"-16.232 0 LINE",
"106.539 210 LINE",
"495.539 210 LINE",
"533.768 0 LINE",
"556.768 0 LINE",
"429.007 700 LINE",
"368.007 700 LINE",
"-39.232 0 LINE"
);
},
{
closed = 1;
nodes = (
"492.518 230 LINE",
"117.518 230 LINE",
"379.028 680 LINE",
"411.028 680 LINE"
);
}
);
width = 616.99553;
},
{
anchors = (
{
name = _ogonek;
position = "{231.471, 1}";
},
{
name = ogonek;
position = "{663.971, 1}";
},
{
name = top;
position = "{488.011, 700}";
}
);
hints = (
{
place = "{146.062, -8.938}";
type = Stem;
},
{
place = "{408.062, 132.062}";
type = Stem;
},
{
horizontal = 1;
place = "{-265.938, 51.062}";
type = Stem;
},
{
horizontal = 1;
place = "{327.062, 93.062}";
type = Stem;
},
{
horizontal = 1;
place = "{249.062, -20}";
target = down;
type = TopGhost;
},
{
horizontal = 1;
place = "{-47.938, 21}";
target = up;
type = BottomGhost;
}
);
layerId = "BAF31694-0472-4296-B0EA-1654553C45D2";
paths = (
{
closed = 1;
nodes = (
"605.599 67 LINE SMOOTH",
"464.858 13 OFFCURVE",
"418.912 -37 OFFCURVE",
"406.381 -100 CURVE SMOOTH",
"390.468 -180 OFFCURVE",
"446.909 -218 OFFCURVE",
"530.909 -218 CURVE SMOOTH",
"567.909 -218 OFFCURVE",
"603.103 -212 OFFCURVE",
"633.893 -203 CURVE",
"653.585 -104 LINE",
"623.596 -114 OFFCURVE",
"596.602 -119 OFFCURVE",
"575.602 -119 CURVE SMOOTH",
"547.602 -119 OFFCURVE",
"532.988 -107 OFFCURVE",
"537.166 -86 CURVE SMOOTH",
"540.945 -67 OFFCURVE",
"557.724 -48 OFFCURVE",
"617.697 -23 CURVE SMOOTH",
"668.073 -1 LINE",
"647.981 84 LINE"
);
},
{
closed = 1;
nodes = (
"135.772 0 LINE",
"212.62 140 LINE",
"539.62 140 LINE",
"561.772 0 LINE",
"740.772 0 LINE",
"626.011 700 LINE",
"351.011 700 LINE",
"-44.228 0 LINE"
);
},
{
closed = 1;
nodes = (
"515.661 286 LINE",
"292.661 286 LINE",
"439.97 554 LINE",
"474.97 554 LINE"
);
}
);
width = 795.99623;
},
{
anchors = (
{
name = _ogonek;
position = "{-359.23, 0}";
},
{
name = ogonek;
position = "{565.77, 0}";
},
{
name = top;
position = "{426.809, 699}";
}
);
hints = (
{
place = "{-24.33, 4.67}";
type = Stem;
},
{
horizontal = 1;
place = "{-118.33, 21}";
target = up;
type = BottomGhost;
},
{
horizontal = 1;
place = "{650.67, -20}";
target = down;
type = TopGhost;
},
{
horizontal = 1;
place = "{-49.33, 21}";
target = up;
type = BottomGhost;
}
);
layerId = "9F107B1E-3A61-4335-981B-27DD48125C7E";
paths = (
{
closed = 1;
nodes = (
"520.549 19 LINE SMOOTH",
"430.99 -19 OFFCURVE",
"392.437 -62 OFFCURVE",
"383.287 -108 CURVE SMOOTH",
"369.562 -177 OFFCURVE",
"423.192 -204 OFFCURVE",
"482.192 -204 CURVE SMOOTH",
"507.192 -204 OFFCURVE",
"534.385 -198 OFFCURVE",
"557.976 -190 CURVE",
"568.519 -137 LINE",
"544.927 -145 OFFCURVE",
"520.933 -150 OFFCURVE",
"501.933 -150 CURVE SMOOTH",
"465.933 -150 OFFCURVE",
"444.513 -132 OFFCURVE",
"450.878 -100 CURVE SMOOTH",
"456.05 -74 OFFCURVE",
"476.824 -50 OFFCURVE",
"527.2 -28 CURVE SMOOTH",
"589.77 0 LINE",
"577.124 42 LINE"
);
},
{
closed = 1;
nodes = (
"40.77 0 LINE",
"145.37 184 LINE",
"503.37 184 LINE",
"533.77 0 LINE",
"615.77 0 LINE",
"500.008 700 LINE",
"355.008 700 LINE",
"-40.23 0 LINE"
);
},
{
closed = 1;
nodes = (
"492.293 254 LINE",
"185.293 254 LINE",
"397.085 630 LINE",
"430.085 630 LINE"
);
}
);
width = 674.99707;
}
);
leftMetricsKey = A;
rightMetricsKey = A;
unicode = 0104;
},
{
glyphname = Aring;
lastChange = "2021-09-01 17:33:40 +0000";
layers = (
{
anchors = (
{
name = ogonek;
position = "{586.769, 0}";
},
{
name = top;
position = "{444.008, 700}";
}
);
hints = (
{
horizontal = 1;
place = "{78.039, -4.961}";
type = Stem;
},
{
horizontal = 1;
place = "{603.039, -20}";
target = down;
type = TopGhost;
},
{
horizontal = 1;
place = "{-96.961, 21}";
target = up;
type = BottomGhost;
},
{
place = "{144.789, -32.513}";
type = Stem;
},
{
place = "{305.789, -32.513}";
type = Stem;
},
{
horizontal = 1;
place = "{657.417, -37.548}";
type = Stem;
},
{
horizontal = 1;
place = "{819.544, -38.555}";
type = Stem;
}
);
layerId = "0CF0EA28-C756-4A9E-9D7C-CFEF350B4CFE";
paths = (
{
closed = 1;
nodes = (
"75.769 0 LINE",
"171.181 173 LINE",
"508.181 173 LINE",
"533.769 0 LINE",
"651.769 0 LINE",
"542.008 700 LINE",
"346.008 700 LINE",
"-41.231 0 LINE"
);
},
{
closed = 1;
nodes = (
"495.078 268 LINE",
"223.078 268 LINE",
"408.111 605 LINE",
"444.111 605 LINE"
);
},
{
closed = 1;
nodes = (
"603.278 932.617 OFFCURVE",
"561.691 974.911 OFFCURVE",
"498.691 974.911 CURVE SMOOTH",
"437.691 974.911 OFFCURVE",
"378.278 932.617 OFFCURVE",
"364.657 864.141 CURVE SMOOTH",
"351.237 796.672 OFFCURVE",
"393.824 754.378 OFFCURVE",
"454.824 754.378 CURVE SMOOTH",
"517.824 754.378 OFFCURVE",
"576.237 796.672 OFFCURVE",
"589.657 864.141 CURVE SMOOTH"
);
},
{
closed = 1;
nodes = (
"519.849 834.938 OFFCURVE",
"493.642 813.791 OFFCURVE",
"466.642 813.791 CURVE SMOOTH",
"440.642 813.791 OFFCURVE",
"422.849 834.938 OFFCURVE",
"428.858 865.148 CURVE SMOOTH",
"435.067 896.365 OFFCURVE",
"461.073 916.505 OFFCURVE",
"487.073 916.505 CURVE SMOOTH",
"514.073 916.505 OFFCURVE",
"532.067 896.365 OFFCURVE",
"525.858 865.148 CURVE SMOOTH"
);
}
);
width = 710;
},
{
anchors = (
{
name = ogonek;
position = "{529.771, 0}";
},
{
name = top;
position = "{399.413, 697}";
}
);
hints = (
{
horizontal = 1;
place = "{605.371, -20}";
target = down;
type = TopGhost;
},
{
horizontal = 1;
place = "{-94.629, 21}";
target = up;
type = BottomGhost;
},
{
place = "{128.371, -73.749}";
type = Stem;
},
{
place = "{294.371, -73.749}";
type = Stem;
},
{
horizontal = 1;
place = "{679.849, 81.362}";
type = Stem;
}
);
layerId = "6E968933-CD79-43C6-9231-80D77C940F4D";
paths = (
{
closed = 1;
nodes = (
"-16.229 0 LINE",
"106.543 210 LINE",
"495.543 210 LINE",
"533.771 0 LINE",
"556.771 0 LINE",
"429.01 700 LINE",
"368.01 700 LINE",
"-39.229 0 LINE"
);
},
{
closed = 1;
nodes = (
"492.521 230 LINE",
"117.521 230 LINE",
"379.032 680 LINE",
"411.032 680 LINE"
);
},
{
closed = 1;
nodes = (
"534.107 916.662 OFFCURVE",
"499.029 951.463 OFFCURVE",
"450.029 951.463 CURVE SMOOTH",
"401.029 951.463 OFFCURVE",
"353.107 916.662 OFFCURVE",
"342.031 860.981 CURVE SMOOTH",
"330.955 805.301 OFFCURVE",
"365.231 771.495 OFFCURVE",
"414.231 771.495 CURVE SMOOTH",
"463.231 771.495 OFFCURVE",
"511.955 805.301 OFFCURVE",
"523.031 860.981 CURVE SMOOTH"
);
},
{
closed = 1;
nodes = (
"493.329 817.232 OFFCURVE",
"457.989 790.386 OFFCURVE",
"417.989 790.386 CURVE SMOOTH",
"377.989 790.386 OFFCURVE",
"354.329 817.232 OFFCURVE",
"363.031 860.981 CURVE SMOOTH",
"371.931 905.725 OFFCURVE",
"406.271 932.571 OFFCURVE",
"446.271 932.571 CURVE SMOOTH",
"486.271 932.571 OFFCURVE",
"510.931 905.725 OFFCURVE",
"502.031 860.981 CURVE SMOOTH"
);
}
);
width = 616.99574;
},
{
anchors = (
{
name = ogonek;
position = "{663.974, 1}";
},
{
name = top;
position = "{488.014, 700}";
}
);
hints = (
{
horizontal = 1;
place = "{277.215, 43.215}";
type = Stem;
},
{
horizontal = 1;
place = "{199.215, -20}";
target = down;
type = TopGhost;
},
{
horizontal = 1;
place = "{-97.785, 21}";
target = up;
type = BottomGhost;
},
{
place = "{181.215, -21.224}";
type = Stem;
},
{
place = "{352.215, -21.224}";
type = Stem;
},
{
horizontal = 1;
place = "{641.807, -24.207}";
type = Stem;
},
{
horizontal = 1;
place = "{811.832, -24.207}";
type = Stem;
}
);
layerId = "BAF31694-0472-4296-B0EA-1654553C45D2";
paths = (
{
closed = 1;
nodes = (
"135.775 0 LINE",
"212.623 140 LINE",
"539.623 140 LINE",
"561.775 0 LINE",
"740.775 0 LINE",
"626.014 700 LINE",
"351.014 700 LINE",
"-44.225 0 LINE"
);
},
{
closed = 1;
nodes = (
"515.664 286 LINE",
"292.664 286 LINE",
"439.973 554 LINE",
"474.973 554 LINE"
);
},
{
closed = 1;
nodes = (
"663.799 936.463 OFFCURVE",
"618.095 983.195 OFFCURVE",
"550.095 983.195 CURVE SMOOTH",
"482.095 983.195 OFFCURVE",
"416.799 936.463 OFFCURVE",
"401.768 860.896 CURVE SMOOTH",
"386.935 786.323 OFFCURVE",
"433.639 739.591 OFFCURVE",
"501.639 739.591 CURVE SMOOTH",
"569.639 739.591 OFFCURVE",
"633.935 786.323 OFFCURVE",
"648.768 860.896 CURVE SMOOTH"
);
},
{
closed = 1;
nodes = (
"567.23 833.056 OFFCURVE",
"542.275 813.17 OFFCURVE",
"516.275 813.17 CURVE SMOOTH",
"490.275 813.17 OFFCURVE",
"473.23 833.056 OFFCURVE",
"478.966 861.89 CURVE SMOOTH",
"484.701 890.725 OFFCURVE",
"509.459 909.617 OFFCURVE",
"535.459 909.617 CURVE SMOOTH",
"561.459 909.617 OFFCURVE",
"578.701 890.725 OFFCURVE",
"572.966 861.89 CURVE SMOOTH"
);
}
);
width = 796.00047;
},
{
anchors = (
{
name = ogonek;
position = "{565.767, 0}";
},
{
name = top;
position = "{426.806, 699}";
}
);
hints = (
{
horizontal = 1;
place = "{603.847, -20}";
target = down;
type = TopGhost;
},
{
horizontal = 1;
place = "{-96.153, 21}";
target = up;
type = BottomGhost;
},
{
place = "{239.847, -48.048}";
type = Stem;
},
{
place = "{571.847, -51.054}";
type = Stem;
},
{
horizontal = 1;
place = "{767.411, 7.073}";
type = Stem;
}
);
layerId = "9F107B1E-3A61-4335-981B-27DD48125C7E";
paths = (
{
closed = 1;
nodes = (
"40.767 0 LINE",
"145.367 184 LINE",
"503.367 184 LINE",
"533.767 0 LINE",
"615.767 0 LINE",
"500.005 700 LINE",
"355.005 700 LINE",
"-40.233 0 LINE"
);
},
{
closed = 1;
nodes = (
"492.29 254 LINE",
"185.29 254 LINE",
"397.081 630 LINE",
"430.081 630 LINE"
);
},
{
closed = 1;
nodes = (
"577.599 926.703 OFFCURVE",
"538.573 966.791 OFFCURVE",
"481.573 966.791 CURVE SMOOTH",
"424.573 966.791 OFFCURVE",
"369.599 926.703 OFFCURVE",
"357.04 863.564 CURVE SMOOTH",
"344.481 800.426 OFFCURVE",
"383.707 761.34 OFFCURVE",
"440.707 761.34 CURVE SMOOTH",
"497.707 761.34 OFFCURVE",
"552.481 800.426 OFFCURVE",
"565.04 863.564 CURVE SMOOTH"
);
},
{
closed = 1;
nodes = (
"511.063 828.487 OFFCURVE",
"481.478 805.437 OFFCURVE",
"449.478 805.437 CURVE SMOOTH",
"417.478 805.437 OFFCURVE",
"398.063 828.487 OFFCURVE",
"405.04 863.564 CURVE SMOOTH",
"412.416 900.646 OFFCURVE",
"440.802 922.694 OFFCURVE",
"472.802 922.694 CURVE SMOOTH",
"504.802 922.694 OFFCURVE",
"525.416 900.646 OFFCURVE",
"518.04 863.564 CURVE SMOOTH"
);
}
);
width = 674.99465;
}
);
leftMetricsKey = A;
rightMetricsKey = A;
unicode = 00C5;
},
{
glyphname = Atilde;
lastChange = "2021-09-01 17:33:40 +0000";
layers = (
{
anchors = (
{
name = ogonek;
position = "{586.774, 0}";
},
{
name = top;
position = "{444.013, 700}";
}
);
hints = (
{
horizontal = 1;
place = "{87.954, 4.954}";
type = Stem;
},
{
horizontal = 1;
place = "{612.954, -20}";
target = down;
type = TopGhost;
},
{
horizontal = 1;
place = "{-87.046, 21}";
target = up;
type = BottomGhost;
},
{
horizontal = 1;
place = "{668.339, -11.521}";
type = Stem;
},
{
horizontal = 1;
place = "{670.353, 30.773}";
type = Stem;
},
{
horizontal = 1;
place = "{713.654, -12.528}";
type = Stem;
},
{
horizontal = 1;
place = "{668.339, 30.773}";
type = Stem;
}
);
layerId = "0CF0EA28-C756-4A9E-9D7C-CFEF350B4CFE";
paths = (
{
closed = 1;
nodes = (
"75.774 0 LINE",
"171.186 173 LINE",
"508.186 173 LINE",
"533.774 0 LINE",
"651.774 0 LINE",
"542.013 700 LINE",
"346.013 700 LINE",
"-41.226 0 LINE"
);
},
{
closed = 1;
nodes = (
"495.083 268 LINE",
"223.083 268 LINE",
"408.116 605 LINE",
"444.116 605 LINE"
);
},
{
closed = 1;
nodes = (
"356.43 757.399 LINE",
"366.239 786.602 OFFCURVE",
"386.043 800.7 OFFCURVE",
"408.043 800.7 CURVE SMOOTH",
"448.043 800.7 OFFCURVE",
"461.03 755.385 OFFCURVE",
"515.03 755.385 CURVE SMOOTH",
"573.03 755.385 OFFCURVE",
"624.641 793.651 OFFCURVE",
"651.465 873.204 CURVE",
"587.465 873.204 LINE",
"577.656 844.001 OFFCURVE",
"558.052 830.91 OFFCURVE",
"536.052 830.91 CURVE SMOOTH",
"496.052 830.91 OFFCURVE",
"482.866 875.218 OFFCURVE",
"428.866 875.218 CURVE SMOOTH",
"370.866 875.218 OFFCURVE",
"319.254 836.952 OFFCURVE",
"292.43 757.399 CURVE"
);
}
);
width = 710;
},
{
anchors = (
{
name = ogonek;
position = "{529.772, 0}";
},
{
name = top;
position = "{399.414, 697}";
}
);
hints = (
{
horizontal = 1;
place = "{617.732, -20}";
target = down;
type = TopGhost;
},
{
horizontal = 1;
place = "{-82.268, 21}";
target = up;
type = BottomGhost;
},
{
horizontal = 1;
place = "{663.375, 21}";
target = up;
type = BottomGhost;
},
{
horizontal = 1;
place = "{729.993, -20}";
target = down;
type = TopGhost;
}
);
layerId = "6E968933-CD79-43C6-9231-80D77C940F4D";
paths = (
{
closed = 1;
nodes = (
"-16.228 0 LINE",
"106.544 210 LINE",
"495.544 210 LINE",
"533.772 0 LINE",
"556.772 0 LINE",
"429.011 700 LINE",
"368.011 700 LINE",
"-39.228 0 LINE"
);
},
{
closed = 1;
nodes = (
"492.522 230 LINE",
"117.522 230 LINE",
"379.033 680 LINE",
"411.033 680 LINE"
);
},
{
closed = 1;
nodes = (
"315.057 760.557 LINE",
"325.583 793.369 OFFCURVE",
"343.55 808.284 OFFCURVE",
"366.55 808.284 CURVE SMOOTH",
"408.55 808.284 OFFCURVE",
"412.661 758.569 OFFCURVE",
"464.661 758.569 CURVE SMOOTH",
"498.661 758.569 OFFCURVE",
"531.397 787.403 OFFCURVE",
"540.714 824.192 CURVE",
"521.714 824.192 LINE",
"511.583 793.369 OFFCURVE",
"489.419 777.46 OFFCURVE",
"468.419 777.46 CURVE SMOOTH",
"421.419 777.46 OFFCURVE",
"420.308 827.175 OFFCURVE",
"370.308 827.175 CURVE SMOOTH",
"335.308 827.175 OFFCURVE",
"309.165 801.323 OFFCURVE",
"296.057 760.557 CURVE"
);
}
);
width = 616.99574;
},
{
anchors = (
{
name = ogonek;
position = "{663.967, 1}";
},
{
name = top;
position = "{488.007, 700}";
}
);
hints = (
{
horizontal = 1;
place = "{285.819, 51.819}";
type = Stem;
},
{
horizontal = 1;
place = "{207.819, -20}";
target = down;
type = TopGhost;
},
{
horizontal = 1;
place = "{-89.181, 21}";
target = up;
type = BottomGhost;
},
{
horizontal = 1;
place = "{311.354, -57.364}";
type = Stem;
},
{
horizontal = 1;
place = "{658.364, 33.117}";
type = Stem;
},
{
horizontal = 1;
place = "{702.114, 16.214}";
type = Stem;
},
{
horizontal = 1;
place = "{656.376, 60.958}";
type = Stem;
}
);
layerId = "BAF31694-0472-4296-B0EA-1654553C45D2";
paths = (
{
closed = 1;
nodes = (
"135.769 0 LINE",
"212.616 140 LINE",
"539.616 140 LINE",
"561.769 0 LINE",
"740.769 0 LINE",
"626.007 700 LINE",
"351.007 700 LINE",
"-44.231 0 LINE"
);
},
{
closed = 1;
nodes = (
"515.657 286 LINE",
"292.657 286 LINE",
"439.966 554 LINE",
"474.966 554 LINE"
);
},
{
closed = 1;
nodes = (
"387.017 746.552 LINE",
"398.148 777.375 OFFCURVE",
"416.917 791.295 OFFCURVE",
"439.917 791.295 CURVE SMOOTH",
"479.917 791.295 OFFCURVE",
"503.017 746.552 OFFCURVE",
"564.017 746.552 CURVE SMOOTH",
"635.017 746.552 OFFCURVE",
"695.521 789.306 OFFCURVE",
"733.684 895.697 CURVE",
"643.684 895.697 LINE",
"633.75 865.867 OFFCURVE",
"614.784 850.953 OFFCURVE",
"591.784 850.953 CURVE SMOOTH",
"551.784 850.953 OFFCURVE",
"528.881 896.691 OFFCURVE",
"468.881 896.691 CURVE SMOOTH",
"396.881 896.691 OFFCURVE",
"336.179 852.942 OFFCURVE",
"298.017 746.552 CURVE"
);
}
);
width = 796.00047;
},
{
anchors = (
{
name = ogonek;
position = "{565.771, 0}";
},
{
name = top;
position = "{426.811, 699}";
}
);
hints = (
{
horizontal = 1;
place = "{614.711, -20}";
target = down;
type = TopGhost;
},
{
horizontal = 1;
place = "{-85.289, 21}";
target = up;
type = BottomGhost;
},
{
horizontal = 1;
place = "{287.197, 21}";
target = up;
type = BottomGhost;
},
{
horizontal = 1;
place = "{312.252, -20}";
target = down;
type = TopGhost;
}
);
layerId = "9F107B1E-3A61-4335-981B-27DD48125C7E";
paths = (
{
closed = 1;
nodes = (
"40.771 0 LINE",
"145.371 184 LINE",
"503.371 184 LINE",
"533.771 0 LINE",
"615.771 0 LINE",
"500.01 700 LINE",
"355.01 700 LINE",
"-40.229 0 LINE"
);
},
{
closed = 1;
nodes = (
"492.295 254 LINE",
"185.295 254 LINE",
"397.086 630 LINE",
"430.086 630 LINE"
);
},
{
closed = 1;
nodes = (
"341.711 761.34 LINE",
"351.692 791.406 OFFCURVE",
"370.084 803.432 OFFCURVE",
"393.084 803.432 CURVE SMOOTH",
"433.084 803.432 OFFCURVE",
"442.914 757.331 OFFCURVE",
"496.914 757.331 CURVE SMOOTH",
"545.914 757.331 OFFCURVE",
"589.293 789.401 OFFCURVE",
"609.852 852.54 CURVE",
"562.852 852.54 LINE",
"553.071 823.476 OFFCURVE",
"532.679 811.45 OFFCURVE",
"510.679 811.45 CURVE SMOOTH",
"468.679 811.45 OFFCURVE",
"459.849 857.551 OFFCURVE",
"406.849 857.551 CURVE SMOOTH",
"357.849 857.551 OFFCURVE",
"316.47 825.481 OFFCURVE",
"294.711 761.34 CURVE"
);
}
);
width = 674.99465;
}
);
leftMetricsKey = A;
rightMetricsKey = A;
unicode = 00C3;
},
{
glyphname = AE;
lastChange = "2021-09-01 17:33:40 +0000";
layers = (
{
hints = (
{
place = "{398.381, 44.381}";
type = Stem;
},
{
horizontal = 1;
place = "{-69.619, 19.381}";
type = Stem;
},
{
horizontal = 1;
place = "{73.381, 19.381}";
type = Stem;
},
{
horizontal = 1;
place = "{240.381, 18.381}";
type = Stem;
},
{
horizontal = 1;
place = "{541.381, 19.381}";
type = Stem;
}
);
layerId = "0CF0EA28-C756-4A9E-9D7C-CFEF350B4CFE";
paths = (
{
closed = 1;
nodes = (
"131.984 172 LINE",
"503.984 172 LINE",
"522.88 267 LINE",
"199.88 267 LINE"
);
},
{
closed = 1;
nodes = (
"920.113 605 LINE",
"939.009 700 LINE",
"480.009 700 LINE",
"-41.229 0 LINE",
"80.771 0 LINE",
"540.295 621 LINE",
"416.771 0 LINE",
"799.771 0 LINE",
"818.667 95 LINE",
"549.667 95 LINE",
"591.638 306 LINE",
"770.638 306 LINE",
"789.535 401 LINE",
"610.535 401 LINE",
"651.113 605 LINE"
);
}
);
width = 909.5;
},
{
hints = (
{
place = "{377.381, -48.619}";
type = Stem;
},
{
horizontal = 1;
place = "{615.381, -20}";
target = down;
type = TopGhost;
},
{
horizontal = 1;
place = "{-69.619, 21}";
target = up;
type = BottomGhost;
}
);
layerId = "6E968933-CD79-43C6-9231-80D77C940F4D";
paths = (
{
closed = 1;
nodes = (
"148.542 210 LINE",
"444.542 210 LINE",
"448.521 230 LINE",
"159.521 230 LINE"
);
},
{
closed = 1;
nodes = (
"875.031 680 LINE",
"879.009 700 LINE",
"532.009 700 LINE",
"-39.229 0 LINE",
"-13.229 0 LINE",
"526.451 662 LINE",
"394.771 0 LINE",
"739.771 0 LINE",
"743.749 20 LINE",
"420.749 20 LINE",
"486.39 350 LINE",
"719.39 350 LINE",
"723.368 370 LINE",
"490.368 370 LINE",
"552.031 680 LINE"
);
}
);
width = 869.50043;
},
{
hints = (
{
place = "{413.381, 106.381}";
type = Stem;
},
{
horizontal = 1;
place = "{-69.619, 70.381}";
type = Stem;
},
{
horizontal = 1;
place = "{46.381, 64.381}";
type = Stem;
},
{
horizontal = 1;
place = "{220.381, 63.381}";
type = Stem;
},
{
horizontal = 1;
place = "{491.381, 69.381}";
type = Stem;
}
);
layerId = "BAF31694-0472-4296-B0EA-1654553C45D2";
paths = (
{
closed = 1;
nodes = (
"130.618 140 LINE",
"544.618 140 LINE",
"573.66 286 LINE",
"234.66 286 LINE"
);
},
{
closed = 1;
nodes = (
"969.968 554 LINE",
"999.009 700 LINE",
"454.009 700 LINE",
"-44.229 0 LINE",
"145.771 0 LINE",
"544.952 569 LINE",
"431.771 0 LINE",
"859.771 0 LINE",
"888.812 146 LINE",
"634.812 146 LINE",
"662.859 287 LINE",
"814.859 287 LINE",
"841.911 423 LINE",
"689.911 423 LINE",
"715.968 554 LINE"
);
}
);
width = 944.49519;
},
{
hints = (
{
place = "{480.381, -5.619}";
type = Stem;
},
{
horizontal = 1;
place = "{187.381, -20}";
target = down;
type = TopGhost;
},
{
horizontal = 1;
place = "{-69.619, 21}";
target = up;
type = BottomGhost;
}
);
layerId = "9F107B1E-3A61-4335-981B-27DD48125C7E";
paths = (
{
closed = 1;
nodes = (
"132.371 184 LINE",
"482.371 184 LINE",
"496.294 254 LINE",
"179.294 254 LINE"
);
},
{
closed = 1;
nodes = (
"904.085 630 LINE",
"918.009 700 LINE",
"500.009 700 LINE",
"-40.229 0 LINE",
"46.771 0 LINE",
"536.279 636 LINE",
"409.771 0 LINE",
"778.771 0 LINE",
"792.695 70 LINE",
"503.695 70 LINE",
"553.622 321 LINE",
"751.622 321 LINE",
"765.545 391 LINE",
"567.545 391 LINE",
"615.085 630 LINE"
);
}
);
width = 898.49891;
}
);
leftMetricsKey = A;
rightMetricsKey = E;
unicode = 00C6;
},
{
glyphname = AEacute;
lastChange = "2021-09-01 17:33:40 +0000";
layers = (
{
guideLines = (
{
position = "{44.61, 753.04}";
}
);
hints = (
{
place = "{373.659, 19.659}";
type = Stem;
},
{
horizontal = 1;
place = "{-94.341, -5.341}";
type = Stem;
},
{
horizontal = 1;
place = "{48.659, -5.341}";
type = Stem;
},
{
horizontal = 1;
place = "{215.659, -6.341}";
type = Stem;
},
{
horizontal = 1;
place = "{516.659, -5.341}";
type = Stem;
}
);
layerId = "0CF0EA28-C756-4A9E-9D7C-CFEF350B4CFE";
paths = (
{
closed = 1;
nodes = (
"131.982 172 LINE",
"503.982 172 LINE",
"522.879 267 LINE",
"199.879 267 LINE"
);
},
{
closed = 1;
nodes = (
"920.111 605 LINE",
"939.008 700 LINE",
"480.008 700 LINE",
"-41.231 0 LINE",
"80.769 0 LINE",
"540.294 621 LINE",
"416.769 0 LINE",
"799.769 0 LINE",
"818.666 95 LINE",
"549.666 95 LINE",
"591.637 306 LINE",
"770.637 306 LINE",
"789.533 401 LINE",
"610.533 401 LINE",
"651.111 605 LINE"
);
},
{
closed = 1;
nodes = (
"498.464 826.718 LINE",
"481.638 742.13 LINE",
"724.271 850.886 LINE",
"743.701 948.565 LINE"
);
}
);
width = 909.5;
},
{
hints = (
{
place = "{357.611, -68.389}";
type = Stem;
},
{
horizontal = 1;
place = "{595.611, -20}";
target = down;
type = TopGhost;
},
{
horizontal = 1;
place = "{-89.389, 21}";
target = up;
type = BottomGhost;
}
);
layerId = "6E968933-CD79-43C6-9231-80D77C940F4D";
paths = (
{
closed = 1;
nodes = (
"148.542 210 LINE",
"444.542 210 LINE",
"448.52 230 LINE",
"159.52 230 LINE"
);
},
{
closed = 1;
nodes = (
"875.031 680 LINE",
"879.009 700 LINE",
"532.009 700 LINE",
"-39.229 0 LINE",
"-13.229 0 LINE",
"526.451 662 LINE",
"394.771 0 LINE",
"739.771 0 LINE",
"743.749 20 LINE",
"420.749 20 LINE",
"486.39 350 LINE",
"719.39 350 LINE",
"723.368 370 LINE",
"490.368 370 LINE",
"552.031 680 LINE"
);
},
{
closed = 1;
nodes = (
"533.047 765.546 LINE",
"528.894 744.665 LINE",
"741.605 873.924 LINE",
"746.549 898.782 LINE"
);
}
);
width = 869.50043;
},
{
hints = (
{
place = "{386.501, 79.501}";
type = Stem;
},
{
horizontal = 1;
place = "{-96.499, 43.501}";
type = Stem;
},
{
horizontal = 1;
place = "{19.501, 37.501}";
type = Stem;
},
{
horizontal = 1;
place = "{193.501, 36.501}";
type = Stem;
},
{
horizontal = 1;
place = "{464.501, 42.501}";
type = Stem;
}
);
layerId = "BAF31694-0472-4296-B0EA-1654553C45D2";
paths = (
{
closed = 1;
nodes = (
"130.618 140 LINE",
"544.618 140 LINE",
"573.66 286 LINE",
"234.66 286 LINE"
);
},
{
closed = 1;
nodes = (
"969.968 554 LINE",
"999.009 700 LINE",
"454.009 700 LINE",
"-44.229 0 LINE",
"145.771 0 LINE",
"544.952 569 LINE",
"431.771 0 LINE",
"859.771 0 LINE",
"888.812 146 LINE",
"634.812 146 LINE",
"662.859 287 LINE",
"814.859 287 LINE",
"841.911 423 LINE",
"689.911 423 LINE",
"715.968 554 LINE"
);
},
{
closed = 1;
nodes = (
"480.972 856.919 LINE",
"457.041 736.608 LINE",
"719.621 835.044 LINE",
"746.519 970.269 LINE"
);
}
);
width = 944.49519;
},
{
hints = (
{
place = "{457.436, -28.564}";
type = Stem;
},
{
horizontal = 1;
place = "{164.436, -20}";
target = down;
type = TopGhost;
},
{
horizontal = 1;
place = "{-92.564, 21}";
target = up;
type = BottomGhost;
}
);
layerId = "9F107B1E-3A61-4335-981B-27DD48125C7E";
paths = (
{
closed = 1;
nodes = (
"132.376 184 LINE",
"482.376 184 LINE",
"496.299 254 LINE",
"179.299 254 LINE"
);
},
{
closed = 1;
nodes = (
"904.09 630 LINE",
"918.014 700 LINE",
"500.014 700 LINE",
"-40.224 0 LINE",
"46.776 0 LINE",
"536.284 636 LINE",
"409.776 0 LINE",
"778.776 0 LINE",
"792.699 70 LINE",
"503.699 70 LINE",
"553.627 321 LINE",
"751.627 321 LINE",
"765.55 391 LINE",
"567.55 391 LINE",
"615.09 630 LINE"
);
},
{
closed = 1;
nodes = (
"512.486 805.43 LINE",
"500.525 745.298 LINE",
"731.45 860.551 LINE",
"745.404 930.705 LINE"
);
}
);
width = 898.50891;
}
);
leftMetricsKey = A;
rightMetricsKey = E;
unicode = 01FC;
},
{
glyphname = B;
lastChange = "2021-09-01 17:33:40 +0000";
layers = (
{
hints = (
{
place = "{15.381, 44.381}";
type = Stem;
},
{
place = "{429.381, 46.381}";
type = Stem;
},
{
place = "{447.381, 44.381}";
type = Stem;
},
{
horizontal = 1;
place = "{-69.619, 23.381}";
type = Stem;
},
{
horizontal = 1;
place = "{238.381, 23.381}";
type = Stem;
},
{
horizontal = 1;
place = "{537.381, 23.381}";
type = Stem;
}
);
layerId = "0CF0EA28-C756-4A9E-9D7C-CFEF350B4CFE";
paths = (
{
closed = 1;
nodes = (
"531.593 439 OFFCURVE",
"479.233 402 OFFCURVE",
"405.233 402 CURVE SMOOTH",
"224.233 402 LINE",
"264.613 605 LINE",
"445.613 605 LINE SMOOTH",
"519.613 605 OFFCURVE",
"557.054 567 OFFCURVE",
"544.324 503 CURVE SMOOTH"
);
},
{
closed = 1;
nodes = (
"636.342 302 OFFCURVE",
"575.89 350 OFFCURVE",
"476.885 355 CURVE",
"477.083 356 LINE",
"563.272 367 OFFCURVE",
"641.62 414 OFFCURVE",
"662.108 517 CURVE SMOOTH",
"681.801 616 OFFCURVE",
"621.509 700 OFFCURVE",
"474.509 700 CURVE SMOOTH",
"169.509 700 LINE",
"30.271 0 LINE",
"348.271 0 LINE SMOOTH",
"490.271 0 OFFCURVE",
"592.184 80 OFFCURVE",
"613.467 187 CURVE SMOOTH"
);
},
{
closed = 1;
nodes = (
"488.328 131 OFFCURVE",
"434.167 95 OFFCURVE",
"357.167 95 CURVE SMOOTH",
"163.167 95 LINE",
"205.337 307 LINE",
"395.337 307 LINE SMOOTH",
"471.337 307 OFFCURVE",
"515.778 269 OFFCURVE",
"501.854 199 CURVE SMOOTH"
);
},
{
closed = 1;
nodes = (
"419.707 334 LINE",
"498.707 334 LINE",
"509.449 388 LINE",
"430.449 388 LINE"
);
}
);
width = 678.7992;
},
{
hints = (
{
place = "{33.381, -47.619}";
type = Stem;
},
{
place = "{469.381, -47.619}";
type = Stem;
},
{
place = "{491.381, -47.619}";
type = Stem;
},
{
horizontal = 1;
place = "{615.381, -20}";
target = down;
type = TopGhost;
},
{
horizontal = 1;
place = "{-69.619, 21}";
target = up;
type = BottomGhost;
}
);
layerId = "6E968933-CD79-43C6-9231-80D77C940F4D";
paths = (
{
closed = 1;
nodes = (
"574.201 432 OFFCURVE",
"499.868 370 OFFCURVE",
"381.868 370 CURVE SMOOTH",
"145.868 370 LINE",
"207.531 680 LINE",
"437.531 680 LINE SMOOTH",
"568.531 680 OFFCURVE",
"610.005 612 OFFCURVE",
"592.7 525 CURVE"
);
},
{
closed = 1;
nodes = (
"583.955 290 OFFCURVE",
"513.879 360 OFFCURVE",
"416.879 360 CURVE",
"408.481 358 LINE",
"490.68 359 OFFCURVE",
"591.029 406 OFFCURVE",
"614.899 526 CURVE",
"633.795 621 OFFCURVE",
"589.509 700 OFFCURVE",
"442.509 700 CURVE SMOOTH",
"189.509 700 LINE",
"50.271 0 LINE",
"303.271 0 LINE SMOOTH",
"455.271 0 OFFCURVE",
"542.581 82 OFFCURVE",
"563.069 185 CURVE SMOOTH"
);
},
{
closed = 1;
nodes = (
"520.78 83 OFFCURVE",
"434.249 20 OFFCURVE",
"307.249 20 CURVE SMOOTH",
"76.249 20 LINE",
"141.89 350 LINE",
"370.89 350 LINE SMOOTH",
"497.89 350 OFFCURVE",
"561.16 286 OFFCURVE",
"541.069 185 CURVE SMOOTH"
);
},
{
closed = 1;
nodes = (
"358.686 354 LINE",
"447.686 354 LINE",
"450.272 367 LINE",
"361.272 367 LINE"
);
}
);
width = 641.99806;
},
{
hints = (
{
place = "{-16.619, 106.381}";
type = Stem;
},
{
place = "{393.381, 109.381}";
type = Stem;
},
{
place = "{410.381, 109.381}";
type = Stem;
},
{
horizontal = 1;
place = "{-69.619, 72.381}";
type = Stem;
},
{
horizontal = 1;
place = "{220.381, 63.381}";
type = Stem;
},
{
horizontal = 1;
place = "{489.381, 71.381}";
type = Stem;
}
);
layerId = "BAF31694-0472-4296-B0EA-1654553C45D2";
paths = (
{
closed = 1;
nodes = (
"504.588 444 OFFCURVE",
"467.61 424 OFFCURVE",
"413.61 424 CURVE SMOOTH",
"263.61 424 LINE",
"289.468 554 LINE",
"441.468 554 LINE SMOOTH",
"495.468 554 OFFCURVE",
"522.689 535 OFFCURVE",
"513.539 489 CURVE SMOOTH"
);
},
{
closed = 1;
nodes = (
"666.552 293 OFFCURVE",
"614.288 352 OFFCURVE",
"501.282 357 CURVE",
"499.078 361 LINE",
"596.073 366 OFFCURVE",
"674.223 412 OFFCURVE",
"694.711 515 CURVE SMOOTH",
"716.989 627 OFFCURVE",
"648.509 700 OFFCURVE",
"505.509 700 CURVE SMOOTH",
"144.509 700 LINE",
"5.271 0 LINE",
"377.271 0 LINE SMOOTH",
"526.271 0 OFFCURVE",
"623.388 76 OFFCURVE",
"646.462 192 CURVE SMOOTH"
);
},
{
closed = 1;
nodes = (
"467.086 170 OFFCURVE",
"430.312 146 OFFCURVE",
"374.312 146 CURVE SMOOTH",
"208.312 146 LINE",
"236.557 288 LINE",
"400.557 288 LINE SMOOTH",
"456.557 288 OFFCURVE",
"485.982 265 OFFCURVE",
"476.435 217 CURVE SMOOTH"
);
},
{
closed = 1;
nodes = (
"445.31 332 LINE",
"519.31 332 LINE",
"530.25 387 LINE",
"456.25 387 LINE"
);
}
);
width = 694.30034;
},
{
hints = (
{
place = "{-30.619, -3.619}";
type = Stem;
},
{
place = "{325.381, -3.619}";
type = Stem;
},
{
place = "{520.381, -3.619}";
type = Stem;
},
{
horizontal = 1;
place = "{187.381, -20}";
target = down;
type = TopGhost;
},
{
horizontal = 1;
place = "{-69.619, 21}";
target = up;
type = BottomGhost;
}
);
layerId = "9F107B1E-3A61-4335-981B-27DD48125C7E";
paths = (
{
closed = 1;
nodes = (
"549.996 436 OFFCURVE",
"489.045 391 OFFCURVE",
"399.045 391 CURVE SMOOTH",
"198.045 391 LINE",
"245.585 630 LINE",
"443.585 630 LINE SMOOTH",
"539.585 630 OFFCURVE",
"579.237 583 OFFCURVE",
"564.716 510 CURVE"
);
},
{
closed = 1;
nodes = (
"618.745 299 OFFCURVE",
"554.686 354 OFFCURVE",
"456.282 357 CURVE",
"453.282 357 LINE",
"537.675 364 OFFCURVE",
"623.825 410 OFFCURVE",
"645.705 520 CURVE",
"665 617 OFFCURVE",
"611.509 700 OFFCURVE",
"464.509 700 CURVE SMOOTH",
"179.509 700 LINE",
"40.271 0 LINE",
"333.271 0 LINE SMOOTH",
"479.271 0 OFFCURVE",
"575.78 83 OFFCURVE",
"596.666 188 CURVE SMOOTH"
);
},
{
closed = 1;
nodes = (
"503.146 115 OFFCURVE",
"437.195 70 OFFCURVE",
"341.195 70 CURVE SMOOTH",
"134.195 70 LINE",
"184.122 321 LINE",
"388.122 321 LINE SMOOTH",
"483.122 321 OFFCURVE",
"535.369 277 OFFCURVE",
"519.257 196 CURVE SMOOTH"
);
},
{
closed = 1;
nodes = (
"399.299 342 LINE",
"481.299 342 LINE",
"488.857 380 LINE",
"406.857 380 LINE"
);
}
);
width = 668.39667;
}
);
leftMetricsKey = H;
rightMetricsKey = "=H*0.66";
unicode = 0042;
},
{
glyphname = C;
lastChange = "2021-09-01 17:33:40 +0000";
layers = (
{
anchors = (
{
name = bottom;
position = "{339.271, 0}";
},
{
name = top;
position = "{488.3, 709}";
}
);
hints = (
{
place = "{-27.619, 47.381}";
type = Stem;
},
{
horizontal = 1;
place = "{-75.619, 30.381}";
type = Stem;
},
{
horizontal = 1;
place = "{538.381, 31.381}";
type = Stem;
}
);
layerId = "0CF0EA28-C756-4A9E-9D7C-CFEF350B4CFE";
paths = (
{
closed = 1;
nodes = (
"18.317 141 OFFCURVE",
"147.878 -7 OFFCURVE",
"343.878 -7 CURVE SMOOTH",
"483.878 -7 OFFCURVE",
"616.808 58 OFFCURVE",
"707.451 202 CURVE",
"621.617 233 LINE",
"547.936 124 OFFCURVE",
"446.173 90 OFFCURVE",
"366.173 90 CURVE SMOOTH",
"228.173 90 OFFCURVE",
"144.661 193 OFFCURVE",
"175.89 350 CURVE SMOOTH",
"207.318 508 OFFCURVE",
"331.607 610 OFFCURVE",
"469.607 610 CURVE SMOOTH",
"547.607 610 OFFCURVE",
"633.645 575 OFFCURVE",
"662.942 486 CURVE",
"761.506 519 LINE",
"727.773 641 OFFCURVE",
"621.902 707 OFFCURVE",
"485.902 707 CURVE SMOOTH",
"289.902 707 OFFCURVE",
"101.662 560 OFFCURVE",
"59.89 350 CURVE SMOOTH"
);
}
);
width = 770.32861;
},
{
anchors = (
{
name = bottom;
position = "{351.271, 0}";
},
{
name = top;
position = "{468.509, 700}";
}
);
hints = (
{
place = "{-5.619, -46.619}";
type = Stem;
},
{
horizontal = 1;
place = "{-76.619, 21}";
target = up;
type = BottomGhost;
},
{
horizontal = 1;
place = "{622.381, -20}";
target = down;
type = TopGhost;
}
);
layerId = "6E968933-CD79-43C6-9231-80D77C940F4D";
paths = (
{
closed = 1;
nodes = (
"28.317 141 OFFCURVE",
"136.878 -7 OFFCURVE",
"327.878 -7 CURVE SMOOTH",
"493.878 -7 OFFCURVE",
"614.189 75 OFFCURVE",
"688.252 201 CURVE",
"671.644 208 LINE",
"608.565 97 OFFCURVE",
"487.459 11 OFFCURVE",
"331.857 13 CURVE",
"162.857 13 OFFCURVE",
"50.317 141 OFFCURVE",
"91.89 350 CURVE SMOOTH",
"133.861 561 OFFCURVE",
"296.923 687 OFFCURVE",
"465.923 687 CURVE SMOOTH",
"619.923 687 OFFCURVE",
"704.408 609 OFFCURVE",
"725.926 501 CURVE",
"745.318 508 LINE",
"719.387 629 OFFCURVE",
"631.902 707 OFFCURVE",
"469.902 707 CURVE SMOOTH",
"278.902 707 OFFCURVE",
"111.861 561 OFFCURVE",
"69.89 350 CURVE SMOOTH"
);
}
);
width = 764.66274;
},
{
anchors = (
{
name = bottom;
position = "{325.97, 1}";
},
{
name = top;
position = "{471.004, 705}";
}
);
hints = (
{
place = "{-43.619, 109.381}";
type = Stem;
},
{
horizontal = 1;
place = "{-74.619, 89.381}";
type = Stem;
},
{
horizontal = 1;
place = "{478.381, 89.381}";
type = Stem;
}
);
layerId = "BAF31694-0472-4296-B0EA-1654553C45D2";
paths = (
{
closed = 1;
nodes = (
"5.419 139 OFFCURVE",
"120.378 -7 OFFCURVE",
"328.378 -7 CURVE SMOOTH",
"490.378 -7 OFFCURVE",
"625.286 78 OFFCURVE",
"702.123 228 CURVE",
"561.09 258 LINE",
"506.785 171 OFFCURVE",
"436.419 139 OFFCURVE",
"357.419 139 CURVE SMOOTH",
"246.419 139 OFFCURVE",
"197.123 228 OFFCURVE",
"221.39 350 CURVE SMOOTH",
"245.259 470 OFFCURVE",
"330.361 561 OFFCURVE",
"441.361 561 CURVE SMOOTH",
"519.361 561 OFFCURVE",
"570.995 529 OFFCURVE",
"591.276 455 CURVE",
"748.84 488 LINE",
"728.892 624 OFFCURVE",
"628.402 707 OFFCURVE",
"470.402 707 CURVE SMOOTH",
"262.402 707 OFFCURVE",
"88.963 559 OFFCURVE",
"47.39 350 CURVE SMOOTH"
);
}
);
width = 743.16209;
},
{
anchors = (
{
name = bottom;
position = "{345.271, 0}";
},
{
name = top;
position = "{482.703, 706}";
}
);
hints = (
{
place = "{334.381, 2.381}";
type = Stem;
},
{
horizontal = 1;
place = "{-72.619, 21}";
target = up;
type = BottomGhost;
},
{
horizontal = 1;
place = "{190.381, -20}";
target = down;
type = TopGhost;
}
);
layerId = "9F107B1E-3A61-4335-981B-27DD48125C7E";
paths = (
{
closed = 1;
nodes = (
"23.317 141 OFFCURVE",
"144.878 -7 OFFCURVE",
"339.878 -7 CURVE SMOOTH",
"488.878 -7 OFFCURVE",
"617.001 64 OFFCURVE",
"701.252 201 CURVE",
"641.026 225 LINE",
"571.345 116 OFFCURVE",
"462.001 64 OFFCURVE",
"354.2 65 CURVE",
"204.2 65 OFFCURVE",
"111.683 173 OFFCURVE",
"146.89 350 CURVE SMOOTH",
"182.296 528 OFFCURVE",
"317.58 635 OFFCURVE",
"467.58 635 CURVE SMOOTH",
"573.58 635 OFFCURVE",
"661.231 588 OFFCURVE",
"686.937 491 CURVE",
"756.711 515 LINE",
"725.978 637 OFFCURVE",
"626.902 707 OFFCURVE",
"481.902 707 CURVE SMOOTH",
"286.902 707 OFFCURVE",
"106.861 561 OFFCURVE",
"64.89 350 CURVE SMOOTH"
);
}
);
width = 770.99328;
}
);
leftMetricsKey = O;
rightMetricsKey = "=O*1.3333";
unicode = 0043;
},
{
glyphname = Cacute;
lastChange = "2021-09-01 17:33:40 +0000";
layers = (
{
anchors = (
{
name = bottom;
position = "{339.275, 0}";
},
{
name = top;
position = "{488.303, 709}";
}
);
hints = (
{
place = "{-52.255, 22.745}";
type = Stem;
},
{
horizontal = 1;
place = "{-100.255, 5.745}";
type = Stem;
},
{
horizontal = 1;
place = "{513.745, 6.745}";
type = Stem;
}
);
layerId = "0CF0EA28-C756-4A9E-9D7C-CFEF350B4CFE";
paths = (
{
closed = 1;
nodes = (
"18.321 141 OFFCURVE",
"147.882 -7 OFFCURVE",
"343.882 -7 CURVE SMOOTH",
"483.882 -7 OFFCURVE",
"616.811 58 OFFCURVE",
"707.455 202 CURVE",
"621.621 233 LINE",
"547.94 124 OFFCURVE",
"446.177 90 OFFCURVE",
"366.177 90 CURVE SMOOTH",
"228.177 90 OFFCURVE",
"144.665 193 OFFCURVE",
"175.894 350 CURVE SMOOTH",
"207.322 508 OFFCURVE",
"331.611 610 OFFCURVE",
"469.611 610 CURVE SMOOTH",
"547.611 610 OFFCURVE",
"633.649 575 OFFCURVE",
"662.946 486 CURVE",
"761.51 519 LINE",
"727.777 641 OFFCURVE",
"621.906 707 OFFCURVE",
"485.906 707 CURVE SMOOTH",
"289.906 707 OFFCURVE",
"101.666 560 OFFCURVE",
"59.894 350 CURVE SMOOTH"
);
},
{
closed = 1;
nodes = (
"394.941 832.861 LINE",
"378.115 748.273 LINE",
"620.748 857.029 LINE",
"640.178 954.708 LINE"
);
}
);
width = 770.33;
},
{
anchors = (
{
name = bottom;
position = "{351.277, 0}";
},
{
name = top;
position = "{468.515, 700}";
}
);
hints = (
{
place = "{-24.693, -65.693}";
type = Stem;
},
{
horizontal = 1;
place = "{-95.693, 21}";
target = up;
type = BottomGhost;
},
{
horizontal = 1;
place = "{603.307, -20}";
target = down;
type = TopGhost;
}
);
layerId = "6E968933-CD79-43C6-9231-80D77C940F4D";
paths = (
{
closed = 1;
nodes = (
"28.323 141 OFFCURVE",
"136.884 -7 OFFCURVE",
"327.884 -7 CURVE SMOOTH",
"493.884 -7 OFFCURVE",
"614.195 75 OFFCURVE",
"688.258 201 CURVE",
"671.651 208 LINE",
"608.571 97 OFFCURVE",
"487.465 11 OFFCURVE",
"331.863 13 CURVE",
"162.863 13 OFFCURVE",
"50.323 141 OFFCURVE",
"91.896 350 CURVE SMOOTH",
"133.867 561 OFFCURVE",
"296.93 687 OFFCURVE",
"465.93 687 CURVE SMOOTH",
"619.93 687 OFFCURVE",
"704.414 609 OFFCURVE",
"725.932 501 CURVE",
"745.324 508 LINE",
"719.393 629 OFFCURVE",
"631.908 707 OFFCURVE",
"469.908 707 CURVE SMOOTH",
"278.908 707 OFFCURVE",
"111.867 561 OFFCURVE",
"69.896 350 CURVE SMOOTH"
);
},
{
closed = 1;
nodes = (
"375.553 765.546 LINE",
"371.4 744.665 LINE",
"584.111 873.924 LINE",
"589.056 898.782 LINE"
);
}
);
width = 764.66021;
},
{
anchors = (
{
name = bottom;
position = "{325.969, 1}";
},
{
name = top;
position = "{471.003, 705}";
}
);
hints = (
{
place = "{-70.3, 82.7}";
type = Stem;
},
{
horizontal = 1;
place = "{-101.3, 62.7}";
type = Stem;
},
{
horizontal = 1;
place = "{451.7, 62.7}";
type = Stem;
}
);
layerId = "BAF31694-0472-4296-B0EA-1654553C45D2";
paths = (
{
closed = 1;
nodes = (
"5.418 139 OFFCURVE",
"120.377 -7 OFFCURVE",
"328.377 -7 CURVE SMOOTH",
"490.377 -7 OFFCURVE",
"625.285 78 OFFCURVE",
"702.122 228 CURVE",
"561.089 258 LINE",
"506.784 171 OFFCURVE",
"436.418 139 OFFCURVE",
"357.418 139 CURVE SMOOTH",
"246.418 139 OFFCURVE",
"197.122 228 OFFCURVE",
"221.389 350 CURVE SMOOTH",
"245.258 470 OFFCURVE",
"330.359 561 OFFCURVE",
"441.359 561 CURVE SMOOTH",
"519.359 561 OFFCURVE",
"570.994 529 OFFCURVE",
"591.275 455 CURVE",
"748.839 488 LINE",
"728.891 624 OFFCURVE",
"628.401 707 OFFCURVE",
"470.401 707 CURVE SMOOTH",
"262.401 707 OFFCURVE",
"88.962 559 OFFCURVE",
"47.389 350 CURVE SMOOTH"
);
},
{
closed = 1;
nodes = (
"375.966 861.919 LINE",
"352.035 741.608 LINE",
"614.615 840.044 LINE",
"641.513 975.269 LINE"
);
}
);
width = 743.15811;
},
{
anchors = (
{
name = bottom;
position = "{345.273, 0}";
},
{
name = top;
position = "{482.706, 706}";
}
);
hints = (
{
place = "{311.833, -20.167}";
type = Stem;
},
{
horizontal = 1;
place = "{-95.167, 21}";
target = up;
type = BottomGhost;
},
{
horizontal = 1;
place = "{167.833, -20}";
target = down;
type = TopGhost;
}
);
layerId = "9F107B1E-3A61-4335-981B-27DD48125C7E";
paths = (
{
closed = 1;
nodes = (
"23.32 141 OFFCURVE",
"144.881 -7 OFFCURVE",
"339.881 -7 CURVE SMOOTH",
"488.881 -7 OFFCURVE",
"617.004 64 OFFCURVE",
"701.255 201 CURVE",
"641.029 225 LINE",
"571.347 116 OFFCURVE",
"462.004 64 OFFCURVE",
"354.203 65 CURVE",
"204.203 65 OFFCURVE",
"111.685 173 OFFCURVE",
"146.893 350 CURVE SMOOTH",
"182.299 528 OFFCURVE",
"317.583 635 OFFCURVE",
"467.583 635 CURVE SMOOTH",
"573.583 635 OFFCURVE",
"661.234 588 OFFCURVE",
"686.939 491 CURVE",
"756.713 515 LINE",
"725.981 637 OFFCURVE",
"626.905 707 OFFCURVE",
"481.905 707 CURVE SMOOTH",
"286.905 707 OFFCURVE",
"106.863 561 OFFCURVE",
"64.893 350 CURVE SMOOTH"
);
},
{
closed = 1;
nodes = (
"389.58 808.43 LINE",
"377.619 748.298 LINE",
"608.544 863.551 LINE",
"622.499 933.705 LINE"
);
}
);
width = 770.99383;
}
);
leftMetricsKey = C;
rightMetricsKey = C;
unicode = 0106;
},
{
glyphname = Ccaron;
lastChange = "2021-09-01 17:33:40 +0000";
layers = (
{
anchors = (
{
name = bottom;
position = "{339.27, 0}";
},
{
name = top;
position = "{488.298, 709}";
}
);
hints = (
{
place = "{-48.95, 26.05}";
type = Stem;
},
{
horizontal = 1;
place = "{-96.95, 9.05}";
type = Stem;
},
{
horizontal = 1;
place = "{517.05, 10.05}";
type = Stem;
}
);
layerId = "0CF0EA28-C756-4A9E-9D7C-CFEF350B4CFE";
paths = (
{
closed = 1;
nodes = (
"18.316 141 OFFCURVE",
"147.877 -7 OFFCURVE",
"343.877 -7 CURVE SMOOTH",
"483.877 -7 OFFCURVE",
"616.807 58 OFFCURVE",
"707.45 202 CURVE",
"621.616 233 LINE",
"547.935 124 OFFCURVE",
"446.172 90 OFFCURVE",
"366.172 90 CURVE SMOOTH",
"228.172 90 OFFCURVE",
"144.66 193 OFFCURVE",
"175.889 350 CURVE SMOOTH",
"207.317 508 OFFCURVE",
"331.606 610 OFFCURVE",
"469.606 610 CURVE SMOOTH",
"547.606 610 OFFCURVE",
"633.644 575 OFFCURVE",
"662.941 486 CURVE",
"761.505 519 LINE",
"727.772 641 OFFCURVE",
"621.901 707 OFFCURVE",
"485.901 707 CURVE SMOOTH",
"289.901 707 OFFCURVE",
"101.661 560 OFFCURVE",
"59.889 350 CURVE SMOOTH"
);
},
{
closed = 1;
nodes = (
"513.337 834.875 LINE",
"387.563 921.477 LINE",
"369.736 831.854 LINE",
"496.11 748.273 LINE",
"655.736 831.854 LINE",
"673.563 921.477 LINE"
);
}
);
width = 770.33;
},
{
anchors = (
{
name = bottom;
position = "{351.273, 0}";
},
{
name = top;
position = "{468.512, 700}";
}
);
hints = (
{
place = "{-22.617, -63.617}";
type = Stem;
},
{
horizontal = 1;
place = "{-93.617, 21}";
target = up;
type = BottomGhost;
},
{
horizontal = 1;
place = "{605.383, -20}";
target = down;
type = TopGhost;
}
);
layerId = "6E968933-CD79-43C6-9231-80D77C940F4D";
paths = (
{
closed = 1;
nodes = (
"28.32 141 OFFCURVE",
"136.881 -7 OFFCURVE",
"327.881 -7 CURVE SMOOTH",
"493.881 -7 OFFCURVE",
"614.192 75 OFFCURVE",
"688.255 201 CURVE",
"671.647 208 LINE",
"608.568 97 OFFCURVE",
"487.461 11 OFFCURVE",
"331.859 13 CURVE",
"162.859 13 OFFCURVE",
"50.32 141 OFFCURVE",
"91.893 350 CURVE SMOOTH",
"133.863 561 OFFCURVE",
"296.926 687 OFFCURVE",
"465.926 687 CURVE SMOOTH",
"619.926 687 OFFCURVE",
"704.411 609 OFFCURVE",
"725.929 501 CURVE",
"745.321 508 LINE",
"719.389 629 OFFCURVE",
"631.904 707 OFFCURVE",
"469.904 707 CURVE SMOOTH",
"278.904 707 OFFCURVE",
"111.863 561 OFFCURVE",
"69.893 350 CURVE SMOOTH"
);
},
{
closed = 1;
nodes = (
"488.879 797.363 LINE",
"380.899 877.902 LINE",
"376.548 856.027 LINE",
"484.528 775.489 LINE",
"624.548 856.027 LINE",
"628.899 877.902 LINE"
);
}
);
width = 764.66021;
},
{
anchors = (
{
name = bottom;
position = "{325.971, 1}";
},
{
name = top;
position = "{471.005, 705}";
}
);
hints = (
{
place = "{-66.938, 86.062}";
type = Stem;
},
{
horizontal = 1;
place = "{-97.938, 66.062}";
type = Stem;
},
{
horizontal = 1;
place = "{455.062, 66.062}";
type = Stem;
}
);
layerId = "BAF31694-0472-4296-B0EA-1654553C45D2";
paths = (
{
closed = 1;
nodes = (
"5.421 139 OFFCURVE",
"120.38 -7 OFFCURVE",
"328.38 -7 CURVE SMOOTH",
"490.38 -7 OFFCURVE",
"625.287 78 OFFCURVE",
"702.124 228 CURVE",
"561.091 258 LINE",
"506.786 171 OFFCURVE",
"436.421 139 OFFCURVE",
"357.421 139 CURVE SMOOTH",
"246.421 139 OFFCURVE",
"197.124 228 OFFCURVE",
"221.391 350 CURVE SMOOTH",
"245.261 470 OFFCURVE",
"330.362 561 OFFCURVE",
"441.362 561 CURVE SMOOTH",
"519.362 561 OFFCURVE",
"570.997 529 OFFCURVE",
"591.277 455 CURVE",
"748.841 488 LINE",
"728.893 624 OFFCURVE",
"628.403 707 OFFCURVE",
"470.403 707 CURVE SMOOTH",
"262.403 707 OFFCURVE",
"88.964 559 OFFCURVE",
"47.391 350 CURVE SMOOTH"
);
},
{
closed = 1;
nodes = (
"499.584 854.959 LINE",
"360.79 941.463 LINE",
"336.859 821.152 LINE",
"477.433 743.597 LINE",
"648.859 821.152 LINE",
"672.79 941.463 LINE"
);
}
);
width = 743.15811;
},
{
anchors = (
{
name = bottom;
position = "{345.274, 0}";
},
{
name = top;
position = "{482.706, 706}";
}
);
hints = (
{
place = "{314.724, -17.276}";
type = Stem;
},
{
horizontal = 1;
place = "{-92.276, 21}";
target = up;
type = BottomGhost;
},
{
horizontal = 1;
place = "{170.724, -20}";
target = down;
type = TopGhost;
}
);
layerId = "9F107B1E-3A61-4335-981B-27DD48125C7E";
paths = (
{
closed = 1;
nodes = (
"23.321 141 OFFCURVE",
"144.882 -7 OFFCURVE",
"339.882 -7 CURVE SMOOTH",
"488.882 -7 OFFCURVE",
"617.004 64 OFFCURVE",
"701.255 201 CURVE",
"641.029 225 LINE",
"571.348 116 OFFCURVE",
"462.004 64 OFFCURVE",
"354.203 65 CURVE",
"204.203 65 OFFCURVE",
"111.686 173 OFFCURVE",
"146.893 350 CURVE SMOOTH",
"182.3 528 OFFCURVE",
"317.583 635 OFFCURVE",
"467.583 635 CURVE SMOOTH",
"573.583 635 OFFCURVE",
"661.235 588 OFFCURVE",
"686.94 491 CURVE",
"756.714 515 LINE",
"725.981 637 OFFCURVE",
"626.905 707 OFFCURVE",
"481.905 707 CURVE SMOOTH",
"286.905 707 OFFCURVE",
"106.864 561 OFFCURVE",
"64.893 350 CURVE SMOOTH"
);
},
{
closed = 1;
nodes = (
"505.973 820.456 LINE",
"386.718 904.641 LINE",
"373.96 840.5 LINE",
"493.613 758.32 LINE",
"645.96 840.5 LINE",
"658.718 904.641 LINE"
);
}
);
width = 770.99383;
}
);
leftMetricsKey = C;
rightMetricsKey = C;
unicode = 010C;
},
{
glyphname = Ccedilla;
lastChange = "2021-09-01 17:33:40 +0000";
layers = (
{
anchors = (
{
name = bottom;
position = "{339.274, 0}";
},
{
name = top;
position = "{488.303, 709}";
}
);
hints = (
{
place = "{-2.076, 72.924}";
type = Stem;
},
{
horizontal = 1;
place = "{-50.076, 55.924}";
type = Stem;
},
{
horizontal = 1;
place = "{563.924, 56.924}";
type = Stem;
},
{
place = "{312.674, 31.449}";
type = Stem;
},
{
place = "{423.674, 50.582}";
type = Stem;
},
{
horizontal = 1;
place = "{-307.91, 28.428}";
type = Stem;
},
{
horizontal = 1;
place = "{-160.888, 24.4}";
type = Stem;
},
{
horizontal = 1;
place = "{-160.888, 79.785}";
type = Stem;
}
);
layerId = "0CF0EA28-C756-4A9E-9D7C-CFEF350B4CFE";
paths = (
{
closed = 1;
nodes = (
"18.321 141 OFFCURVE",
"147.882 -7 OFFCURVE",
"343.882 -7 CURVE SMOOTH",
"483.882 -7 OFFCURVE",
"616.811 58 OFFCURVE",
"707.455 202 CURVE",
"621.621 233 LINE",
"547.94 124 OFFCURVE",
"446.177 90 OFFCURVE",
"366.177 90 CURVE SMOOTH",
"228.177 90 OFFCURVE",
"144.664 193 OFFCURVE",
"175.894 350 CURVE SMOOTH",
"207.322 508 OFFCURVE",
"331.611 610 OFFCURVE",
"469.611 610 CURVE SMOOTH",
"547.611 610 OFFCURVE",
"633.649 575 OFFCURVE",
"662.946 486 CURVE",
"761.51 519 LINE",
"727.777 641 OFFCURVE",
"621.905 707 OFFCURVE",
"485.905 707 CURVE SMOOTH",
"289.905 707 OFFCURVE",
"101.665 560 OFFCURVE",
"59.894 350 CURVE SMOOTH"
);
},
{
closed = 1;
nodes = (
"381.677 7.049 LINE",
"306.677 7.049 LINE",
"282.039 -116.812 LINE",
"337.039 -116.812 LINE SMOOTH",
"372.039 -116.812 OFFCURVE",
"391.637 -123.861 OFFCURVE",
"385.628 -154.071 CURVE SMOOTH",
"379.619 -184.281 OFFCURVE",
"357.216 -191.33 OFFCURVE",
"322.216 -191.33 CURVE SMOOTH",
"213.216 -191.33 LINE",
"198.795 -263.834 LINE",
"330.795 -263.834 LINE SMOOTH",
"401.795 -263.834 OFFCURVE",
"466.007 -222.547 OFFCURVE",
"479.628 -154.071 CURVE SMOOTH",
"493.449 -84.588 OFFCURVE",
"444.66 -48.336 OFFCURVE",
"370.66 -48.336 CURVE"
);
}
);
width = 770.33;
},
{
anchors = (
{
name = bottom;
position = "{351.272, 0}";
},
{
name = top;
position = "{468.511, 700}";
}
);
hints = (
{
place = "{18.802, -22.198}";
type = Stem;
},
{
horizontal = 1;
place = "{-52.198, 21}";
target = up;
type = BottomGhost;
},
{
horizontal = 1;
place = "{646.802, -20}";
target = down;
type = TopGhost;
},
{
place = "{341.802, -24.317}";
type = Stem;
},
{
place = "{467.802, -24.317}";
type = Stem;
},
{
horizontal = 1;
place = "{-294.767, 117.868}";
type = Stem;
},
{
horizontal = 1;
place = "{-38.238, -20}";
target = down;
type = TopGhost;
}
);
layerId = "6E968933-CD79-43C6-9231-80D77C940F4D";
paths = (
{
closed = 1;
nodes = (
"28.319 141 OFFCURVE",
"136.88 -7 OFFCURVE",
"327.88 -7 CURVE SMOOTH",
"493.88 -7 OFFCURVE",
"614.191 75 OFFCURVE",
"688.254 201 CURVE",
"671.646 208 LINE",
"608.567 97 OFFCURVE",
"487.46 11 OFFCURVE",
"331.858 13 CURVE",
"162.858 13 OFFCURVE",
"50.319 141 OFFCURVE",
"91.892 350 CURVE SMOOTH",
"133.862 561 OFFCURVE",
"296.925 687 OFFCURVE",
"465.925 687 CURVE SMOOTH",
"619.925 687 OFFCURVE",
"704.41 609 OFFCURVE",
"725.927 501 CURVE",
"745.32 508 LINE",
"719.388 629 OFFCURVE",
"631.903 707 OFFCURVE",
"469.903 707 CURVE SMOOTH",
"278.903 707 OFFCURVE",
"111.862 561 OFFCURVE",
"69.892 350 CURVE SMOOTH"
);
},
{
closed = 1;
nodes = (
"366.657 6.96 LINE",
"344.657 6.96 LINE",
"322.11 -106.39 LINE",
"360.11 -106.39 LINE SMOOTH",
"426.11 -106.39 OFFCURVE",
"442.572 -134.231 OFFCURVE",
"436.046 -167.042 CURVE SMOOTH",
"428.53 -204.826 OFFCURVE",
"400.992 -232.666 OFFCURVE",
"334.992 -232.666 CURVE SMOOTH",
"273.992 -232.666 LINE",
"270.037 -252.552 LINE",
"334.037 -252.552 LINE SMOOTH",
"404.037 -252.552 OFFCURVE",
"448.157 -216.757 OFFCURVE",
"458.046 -167.042 CURVE SMOOTH",
"468.923 -112.356 OFFCURVE",
"430.857 -82.527 OFFCURVE",
"347.868 -87.498 CURVE"
);
}
);
width = 764.66021;
},
{
anchors = (
{
name = bottom;
position = "{325.975, 1}";
},
{
name = top;
position = "{471.01, 705}";
}
);
hints = (
{
place = "{-17.614, 135.386}";
type = Stem;
},
{
horizontal = 1;
place = "{-48.614, 115.386}";
type = Stem;
},
{
horizontal = 1;
place = "{504.386, 115.386}";
type = Stem;
},
{
place = "{245.386, -11.796}";
type = Stem;
},
{
place = "{396.386, 80.674}";
type = Stem;
},
{
horizontal = 1;
place = "{-312.092, 51.839}";
type = Stem;
},
{
horizontal = 1;
place = "{-250.445, 124.423}";
type = Stem;
},
{
horizontal = 1;
place = "{-167.918, 84.651}";
type = Stem;
}
);
layerId = "BAF31694-0472-4296-B0EA-1654553C45D2";
paths = (
{
closed = 1;
nodes = (
"5.425 139 OFFCURVE",
"120.384 -7 OFFCURVE",
"328.384 -7 CURVE SMOOTH",
"490.384 -7 OFFCURVE",
"625.291 78 OFFCURVE",
"702.128 228 CURVE",
"561.096 258 LINE",
"506.79 171 OFFCURVE",
"436.425 139 OFFCURVE",
"357.425 139 CURVE SMOOTH",
"246.425 139 OFFCURVE",
"197.128 228 OFFCURVE",
"221.396 350 CURVE SMOOTH",
"245.265 470 OFFCURVE",
"330.366 561 OFFCURVE",
"441.366 561 CURVE SMOOTH",
"519.366 561 OFFCURVE",
"571.001 529 OFFCURVE",
"591.281 455 CURVE",
"748.846 488 LINE",
"728.898 624 OFFCURVE",
"628.407 707 OFFCURVE",
"470.407 707 CURVE SMOOTH",
"262.407 707 OFFCURVE",
"88.968 559 OFFCURVE",
"47.396 350 CURVE SMOOTH"
);
},
{
closed = 1;
nodes = (
"386.314 3.96 LINE",
"280.314 3.96 LINE",
"254.801 -124.305 LINE",
"327.801 -124.305 LINE SMOOTH",
"351.801 -124.305 OFFCURVE",
"364.614 -130.27 OFFCURVE",
"360.856 -149.162 CURVE SMOOTH",
"357.296 -167.059 OFFCURVE",
"341.912 -174.02 OFFCURVE",
"317.912 -174.02 CURVE SMOOTH",
"184.912 -174.02 LINE",
"166.123 -268.478 LINE",
"322.123 -268.478 LINE SMOOTH",
"390.123 -268.478 OFFCURVE",
"468.649 -235.666 OFFCURVE",
"485.065 -153.139 CURVE SMOOTH",
"501.678 -69.618 OFFCURVE",
"436.81 -38.795 OFFCURVE",
"377.81 -38.795 CURVE"
);
}
);
width = 743.16811;
},
{
anchors = (
{
name = bottom;
position = "{345.27, 0}";
},
{
name = top;
position = "{482.702, 706}";
}
);
hints = (
{
place = "{359.5, 27.5}";
type = Stem;
},
{
horizontal = 1;
place = "{-47.5, 21}";
target = up;
type = BottomGhost;
},
{
horizontal = 1;
place = "{215.5, -20}";
target = down;
type = TopGhost;
},
{
place = "{118.5, 8.617}";
type = Stem;
},
{
place = "{257.5, 5.61}";
type = Stem;
},
{
horizontal = 1;
place = "{-211.867, 93.804}";
type = Stem;
},
{
horizontal = 1;
place = "{-41.493, -20}";
target = down;
type = TopGhost;
}
);
layerId = "9F107B1E-3A61-4335-981B-27DD48125C7E";
paths = (
{
closed = 1;
nodes = (
"23.317 141 OFFCURVE",
"144.878 -7 OFFCURVE",
"339.878 -7 CURVE SMOOTH",
"488.878 -7 OFFCURVE",
"617.001 64 OFFCURVE",
"701.252 201 CURVE",
"641.026 225 LINE",
"571.344 116 OFFCURVE",
"462.001 64 OFFCURVE",
"354.2 65 CURVE",
"204.2 65 OFFCURVE",
"111.682 173 OFFCURVE",
"146.89 350 CURVE SMOOTH",
"182.296 528 OFFCURVE",
"317.58 635 OFFCURVE",
"467.58 635 CURVE SMOOTH",
"573.58 635 OFFCURVE",
"661.231 588 OFFCURVE",
"686.936 491 CURVE",
"756.71 515 LINE",
"725.977 637 OFFCURVE",
"626.901 707 OFFCURVE",
"481.901 707 CURVE SMOOTH",
"286.901 707 OFFCURVE",
"106.86 561 OFFCURVE",
"64.89 350 CURVE SMOOTH"
);
},
{
closed = 1;
nodes = (
"377.166 7.015 LINE",
"322.166 7.015 LINE",
"298.244 -113.249 LINE",
"347.244 -113.249 LINE SMOOTH",
"394.244 -113.249 OFFCURVE",
"412.254 -128.282 OFFCURVE",
"406.074 -159.35 CURVE SMOOTH",
"399.495 -192.422 OFFCURVE",
"375.505 -207.455 OFFCURVE",
"328.505 -207.455 CURVE SMOOTH",
"237.505 -207.455 LINE",
"227.139 -259.57 LINE",
"333.139 -259.57 LINE SMOOTH",
"404.139 -259.57 OFFCURVE",
"460.913 -220.484 OFFCURVE",
"473.074 -159.35 CURVE SMOOTH",
"485.832 -95.209 OFFCURVE",
"440.61 -61.134 OFFCURVE",
"363.211 -63.139 CURVE"
);
}
);
width = 770.98383;
}
);
leftMetricsKey = C;
rightMetricsKey = C;
unicode = 00C7;
},
{
glyphname = Cdotaccent;
lastChange = "2021-09-01 17:33:40 +0000";
layers = (
{
anchors = (
{
name = bottom;
position = "{339.273, 0}";
},
{
name = top;
position = "{488.302, 709}";
}
);
hints = (
{
place = "{-46.747, 28.253}";
type = Stem;
},
{
horizontal = 1;
place = "{-94.747, 11.253}";
type = Stem;
},
{
horizontal = 1;
place = "{519.253, 12.253}";
type = Stem;
},
{
place = "{250.003, 32.093}";
type = Stem;
},
{
horizontal = 1;
place = "{689.736, 32.093}";
type = Stem;
}
);
layerId = "0CF0EA28-C756-4A9E-9D7C-CFEF350B4CFE";
paths = (
{
closed = 1;
nodes = (
"18.32 141 OFFCURVE",
"147.881 -7 OFFCURVE",
"343.881 -7 CURVE SMOOTH",
"483.881 -7 OFFCURVE",
"616.81 58 OFFCURVE",
"707.453 202 CURVE",
"621.62 233 LINE",
"547.938 124 OFFCURVE",
"446.175 90 OFFCURVE",
"366.175 90 CURVE SMOOTH",
"228.175 90 OFFCURVE",
"144.663 193 OFFCURVE",
"175.892 350 CURVE SMOOTH",
"207.32 508 OFFCURVE",
"331.61 610 OFFCURVE",
"469.61 610 CURVE SMOOTH",
"547.61 610 OFFCURVE",
"633.648 575 OFFCURVE",
"662.944 486 CURVE",
"761.508 519 LINE",
"727.776 641 OFFCURVE",
"621.904 707 OFFCURVE",
"485.904 707 CURVE SMOOTH",
"289.904 707 OFFCURVE",
"101.664 560 OFFCURVE",
"59.892 350 CURVE SMOOTH"
);
},
{
closed = 1;
nodes = (
"535.123 778.483 OFFCURVE",
"567.331 804.665 OFFCURVE",
"574.141 838.903 CURVE SMOOTH",
"580.751 872.134 OFFCURVE",
"559.159 899.323 OFFCURVE",
"526.159 899.323 CURVE SMOOTH",
"492.159 899.323 OFFCURVE",
"460.751 872.134 OFFCURVE",
"454.141 838.903 CURVE SMOOTH",
"447.331 804.665 OFFCURVE",
"468.123 778.483 OFFCURVE",
"502.123 778.483 CURVE SMOOTH"
);
}
);
width = 770.33;
},
{
anchors = (
{
name = bottom;
position = "{351.27, 0}";
},
{
name = top;
position = "{468.508, 700}";
}
);
hints = (
{
place = "{-17.66, -58.66}";
type = Stem;
},
{
horizontal = 1;
place = "{-88.66, 21}";
target = up;
type = BottomGhost;
},
{
horizontal = 1;
place = "{610.34, -20}";
target = down;
type = TopGhost;
},
{
place = "{268.34, -21.008}";
type = Stem;
},
{
horizontal = 1;
place = "{683.766, -21.008}";
type = Stem;
}
);
layerId = "6E968933-CD79-43C6-9231-80D77C940F4D";
paths = (
{
closed = 1;
nodes = (
"28.316 141 OFFCURVE",
"136.877 -7 OFFCURVE",
"327.877 -7 CURVE SMOOTH",
"493.877 -7 OFFCURVE",
"614.188 75 OFFCURVE",
"688.251 201 CURVE",
"671.644 208 LINE",
"608.564 97 OFFCURVE",
"487.458 11 OFFCURVE",
"331.856 13 CURVE",
"162.856 13 OFFCURVE",
"50.316 141 OFFCURVE",
"91.889 350 CURVE SMOOTH",
"133.86 561 OFFCURVE",
"296.923 687 OFFCURVE",
"465.923 687 CURVE SMOOTH",
"619.923 687 OFFCURVE",
"704.407 609 OFFCURVE",
"725.925 501 CURVE",
"745.317 508 LINE",
"719.386 629 OFFCURVE",
"631.901 707 OFFCURVE",
"469.901 707 CURVE SMOOTH",
"278.901 707 OFFCURVE",
"111.86 561 OFFCURVE",
"69.889 350 CURVE SMOOTH"
);
},
{
closed = 1;
nodes = (
"499.918 767.415 OFFCURVE",
"516.687 781.335 OFFCURVE",
"519.851 797.244 CURVE SMOOTH",
"523.214 814.147 OFFCURVE",
"511.983 828.067 OFFCURVE",
"494.983 828.067 CURVE SMOOTH",
"478.983 828.067 OFFCURVE",
"462.214 814.147 OFFCURVE",
"458.851 797.244 CURVE SMOOTH",
"455.687 781.335 OFFCURVE",
"466.918 767.415 OFFCURVE",
"482.918 767.415 CURVE SMOOTH"
);
}
);
width = 764.66021;
},
{
anchors = (
{
name = bottom;
position = "{325.972, 1}";
},
{
name = top;
position = "{471.006, 705}";
}
);
hints = (
{
place = "{-64.367, 88.633}";
type = Stem;
},
{
horizontal = 1;
place = "{-95.367, 68.633}";
type = Stem;
},
{
horizontal = 1;
place = "{457.633, 68.633}";
type = Stem;
},
{
place = "{212.633, 58.778}";
type = Stem;
},
{
horizontal = 1;
place = "{676.099, 58.778}";
type = Stem;
}
);
layerId = "BAF31694-0472-4296-B0EA-1654553C45D2";
paths = (
{
closed = 1;
nodes = (
"5.422 139 OFFCURVE",
"120.381 -7 OFFCURVE",
"328.381 -7 CURVE SMOOTH",
"490.381 -7 OFFCURVE",
"625.288 78 OFFCURVE",
"702.125 228 CURVE",
"561.092 258 LINE",
"506.787 171 OFFCURVE",
"436.422 139 OFFCURVE",
"357.422 139 CURVE SMOOTH",
"246.422 139 OFFCURVE",
"197.125 228 OFFCURVE",
"221.392 350 CURVE SMOOTH",
"245.262 470 OFFCURVE",
"330.363 561 OFFCURVE",
"441.363 561 CURVE SMOOTH",
"519.363 561 OFFCURVE",
"570.998 529 OFFCURVE",
"591.278 455 CURVE",
"748.842 488 LINE",
"728.894 624 OFFCURVE",
"628.404 707 OFFCURVE",
"470.404 707 CURVE SMOOTH",
"262.404 707 OFFCURVE",
"88.965 559 OFFCURVE",
"47.392 350 CURVE SMOOTH"
);
},
{
closed = 1;
nodes = (
"523.983 766.466 OFFCURVE",
"563.311 798.284 OFFCURVE",
"571.618 840.044 CURVE SMOOTH",
"580.123 882.799 OFFCURVE",
"553.649 915.611 OFFCURVE",
"510.649 915.611 CURVE SMOOTH",
"468.649 915.611 OFFCURVE",
"430.123 882.799 OFFCURVE",
"421.618 840.044 CURVE SMOOTH",
"413.311 798.284 OFFCURVE",
"438.983 766.466 OFFCURVE",
"480.983 766.466 CURVE SMOOTH"
);
}
);
width = 743.15811;
},
{
anchors = (
{
name = bottom;
position = "{345.272, 0}";
},
{
name = top;
position = "{482.704, 706}";
}
);
hints = (
{
place = "{318.012, -13.988}";
type = Stem;
},
{
horizontal = 1;
place = "{-88.988, 21}";
target = up;
type = BottomGhost;
},
{
horizontal = 1;
place = "{174.012, -20}";
target = down;
type = TopGhost;
},
{
place = "{257.012, 12.227}";
type = Stem;
},
{
horizontal = 1;
place = "{688.382, 12.227}";
type = Stem;
}
);
layerId = "9F107B1E-3A61-4335-981B-27DD48125C7E";
paths = (
{
closed = 1;
nodes = (
"23.318 141 OFFCURVE",
"144.879 -7 OFFCURVE",
"339.879 -7 CURVE SMOOTH",
"488.879 -7 OFFCURVE",
"617.002 64 OFFCURVE",
"701.253 201 CURVE",
"641.027 225 LINE",
"571.346 116 OFFCURVE",
"462.002 64 OFFCURVE",
"354.201 65 CURVE",
"204.201 65 OFFCURVE",
"111.684 173 OFFCURVE",
"146.891 350 CURVE SMOOTH",
"182.298 528 OFFCURVE",
"317.581 635 OFFCURVE",
"467.581 635 CURVE SMOOTH",
"573.581 635 OFFCURVE",
"661.232 588 OFFCURVE",
"686.938 491 CURVE",
"756.712 515 LINE",
"725.979 637 OFFCURVE",
"626.903 707 OFFCURVE",
"481.903 707 CURVE SMOOTH",
"286.903 707 OFFCURVE",
"106.862 561 OFFCURVE",
"64.891 350 CURVE SMOOTH"
);
},
{
closed = 1;
nodes = (
"523.604 773.368 OFFCURVE",
"549.791 794.415 OFFCURVE",
"555.173 821.474 CURVE SMOOTH",
"560.556 848.533 OFFCURVE",
"543.141 871.584 OFFCURVE",
"516.141 871.584 CURVE SMOOTH",
"488.141 871.584 OFFCURVE",
"462.556 848.533 OFFCURVE",
"457.173 821.474 CURVE SMOOTH",
"451.791 794.415 OFFCURVE",
"468.604 773.368 OFFCURVE",
"496.604 773.368 CURVE SMOOTH"
);
}
);
width = 770.99383;
}
);
leftMetricsKey = C;
rightMetricsKey = C;
unicode = 010A;
},
{
glyphname = D;
lastChange = "2021-09-01 17:33:40 +0000";
layers = (
{
anchors = (
{
name = top;
position = "{439.708, 701}";
}
);
hints = (
{
place = "{15.381, 44.381}";
type = Stem;
},
{
place = "{514.381, 47.381}";
type = Stem;
},
{
horizontal = 1;
place = "{-69.619, 23.381}";
type = Stem;
},
{
horizontal = 1;
place = "{537.381, 23.381}";
type = Stem;
}
);
layerId = "0CF0EA28-C756-4A9E-9D7C-CFEF350B4CFE";
paths = (
{
closed = 1;
nodes = (
"169.509 700 LINE",
"30.271 0 LINE",
"277.271 0 LINE SMOOTH",
"500.271 0 OFFCURVE",
"672.527 132 OFFCURVE",
"715.293 347 CURVE SMOOTH",
"758.258 563 OFFCURVE",
"639.509 700 OFFCURVE",
"416.509 700 CURVE SMOOTH"
);
},
{
closed = 1;
nodes = (
"163.167 95 LINE",
"264.613 605 LINE",
"397.613 605 LINE SMOOTH",
"561.613 605 OFFCURVE",
"631.119 507 OFFCURVE",
"599.293 347 CURVE SMOOTH",
"567.666 188 OFFCURVE",
"460.167 95 OFFCURVE",
"296.167 95 CURVE SMOOTH"
);
}
);
width = 736;
},
{
anchors = (
{
name = top;
position = "{411.332, 679}";
}
);
hints = (
{
place = "{33.381, -47.619}";
type = Stem;
},
{
place = "{591.381, -47.619}";
type = Stem;
},
{
horizontal = 1;
place = "{-69.619, 21}";
target = up;
type = BottomGhost;
},
{
horizontal = 1;
place = "{615.381, -20}";
target = down;
type = TopGhost;
}
);
layerId = "6E968933-CD79-43C6-9231-80D77C940F4D";
paths = (
{
closed = 1;
nodes = (
"189.509 700 LINE",
"50.271 0 LINE",
"255.271 0 LINE",
"500.271 0 OFFCURVE",
"652.93 129 OFFCURVE",
"696.89 350 CURVE",
"740.85 571 OFFCURVE",
"639.509 700 OFFCURVE",
"394.509 700 CURVE"
);
},
{
closed = 1;
nodes = (
"76.249 20 LINE",
"207.531 680 LINE",
"390.531 680 LINE",
"625.531 680 OFFCURVE",
"715.468 554 OFFCURVE",
"674.89 350 CURVE",
"634.312 146 OFFCURVE",
"494.249 20 OFFCURVE",
"259.249 20 CURVE"
);
}
);
width = 726.99649;
},
{
anchors = (
{
name = top;
position = "{431.907, 702}";
}
);
hints = (
{
place = "{-16.619, 106.381}";
type = Stem;
},
{
place = "{459.381, 109.381}";
type = Stem;
},
{
horizontal = 1;
place = "{-69.619, 83.381}";
type = Stem;
},
{
horizontal = 1;
place = "{479.381, 81.381}";
type = Stem;
}
);
layerId = "BAF31694-0472-4296-B0EA-1654553C45D2";
paths = (
{
closed = 1;
nodes = (
"144.509 700 LINE",
"5.271 0 LINE",
"291.271 0 LINE SMOOTH",
"516.271 0 OFFCURVE",
"688.914 144 OFFCURVE",
"729.89 350 CURVE SMOOTH",
"771.264 558 OFFCURVE",
"655.509 700 OFFCURVE",
"430.509 700 CURVE SMOOTH"
);
},
{
closed = 1;
nodes = (
"208.312 146 LINE",
"289.468 554 LINE",
"390.468 554 LINE SMOOTH",
"516.468 554 OFFCURVE",
"577.953 476 OFFCURVE",
"552.89 350 CURVE SMOOTH",
"527.827 224 OFFCURVE",
"435.312 146 OFFCURVE",
"309.312 146 CURVE SMOOTH"
);
}
);
width = 737.50255;
},
{
anchors = (
{
name = top;
position = "{431.117, 693}";
}
);
hints = (
{
place = "{-30.619, -3.619}";
type = Stem;
},
{
place = "{557.381, -3.619}";
type = Stem;
},
{
horizontal = 1;
place = "{-69.619, 21}";
target = up;
type = BottomGhost;
},
{
horizontal = 1;
place = "{187.381, -20}";
target = down;
type = TopGhost;
}
);
layerId = "9F107B1E-3A61-4335-981B-27DD48125C7E";
paths = (
{
closed = 1;
nodes = (
"179.509 700 LINE",
"40.271 0 LINE",
"271.271 0 LINE",
"502.271 0 OFFCURVE",
"667.328 131 OFFCURVE",
"710.492 348 CURVE",
"753.855 566 OFFCURVE",
"641.509 700 OFFCURVE",
"410.509 700 CURVE"
);
},
{
closed = 1;
nodes = (
"134.195 70 LINE",
"245.585 630 LINE",
"396.585 630 LINE",
"586.585 630 OFFCURVE",
"664.7 525 OFFCURVE",
"629.492 348 CURVE",
"594.484 172 OFFCURVE",
"475.195 70 OFFCURVE",
"285.195 70 CURVE"
);
}
);
width = 736.00243;
}
);
leftMetricsKey = H;
rightMetricsKey = "=H*0.5";
unicode = 0044;
},
{
glyphname = Eth;
lastChange = "2021-09-01 17:33:40 +0000";
layers = (
{
hints = (
{
place = "{72.381, 45.381}";
type = Stem;
},
{
place = "{551.381, 47.381}";
type = Stem;
},
{
horizontal = 1;
place = "{-69.619, 17.381}";
type = Stem;
},
{
horizontal = 1;
place = "{225.381, 35.381}";
type = Stem;
},
{
horizontal = 1;
place = "{538.381, 22.381}";
type = Stem;
}
);
layerId = "0CF0EA28-C756-4A9E-9D7C-CFEF350B4CFE";
paths = (
{
closed = 1;
nodes = (
"68.95 295 LINE",
"438.95 295 LINE",
"459.836 400 LINE",
"89.836 400 LINE"
);
},
{
closed = 1;
nodes = (
"226.509 700 LINE",
"87.271 0 LINE",
"315.271 0 LINE SMOOTH",
"538.271 0 OFFCURVE",
"709.527 132 OFFCURVE",
"752.293 347 CURVE SMOOTH",
"795.258 563 OFFCURVE",
"677.509 700 OFFCURVE",
"454.509 700 CURVE SMOOTH"
);
},
{
closed = 1;
nodes = (
"219.576 87 LINE",
"323.209 608 LINE",
"436.209 608 LINE SMOOTH",
"599.209 608 OFFCURVE",
"667.119 507 OFFCURVE",
"635.293 347 CURVE SMOOTH",
"603.666 188 OFFCURVE",
"495.377 86 OFFCURVE",
"332.576 87 CURVE SMOOTH"
);
}
);
width = 773;
},
{
hints = (
{
place = "{132.381, -47.619}";
type = Stem;
},
{
place = "{664.381, -47.619}";
type = Stem;
},
{
horizontal = 1;
place = "{-69.619, 21}";
target = up;
type = BottomGhost;
},
{
horizontal = 1;
place = "{615.381, -20}";
target = down;
type = TopGhost;
}
);
layerId = "6E968933-CD79-43C6-9231-80D77C940F4D";
paths = (
{
closed = 1;
nodes = (
"97.901 340 LINE",
"465.901 340 LINE",
"469.879 360 LINE",
"101.879 360 LINE"
);
},
{
closed = 1;
nodes = (
"283.509 700 LINE",
"144.271 0 LINE",
"330.271 0 LINE",
"574.271 0 OFFCURVE",
"727.93 129 OFFCURVE",
"771.89 350 CURVE",
"815.85 571 OFFCURVE",
"713.509 700 OFFCURVE",
"469.509 700 CURVE"
);
},
{
closed = 1;
nodes = (
"170.05 19 LINE",
"301.73 681 LINE",
"465.73 681 LINE",
"699.73 681 OFFCURVE",
"790.468 554 OFFCURVE",
"749.89 350 CURVE",
"709.312 146 OFFCURVE",
"568.05 19 OFFCURVE",
"334.05 19 CURVE"
);
}
);
width = 802.00298;
},
{
hints = (
{
place = "{25.381, 107.381}";
type = Stem;
},
{
place = "{480.381, 109.381}";
type = Stem;
},
{
horizontal = 1;
place = "{-69.619, 81.381}";
type = Stem;
},
{
horizontal = 1;
place = "{207.381, 76.381}";
type = Stem;
},
{
horizontal = 1;
place = "{479.381, 81.381}";
type = Stem;
}
);
layerId = "BAF31694-0472-4296-B0EA-1654553C45D2";
paths = (
{
closed = 1;
nodes = (
"40.369 277 LINE",
"429.369 277 LINE",
"458.411 423 LINE",
"69.411 423 LINE"
);
},
{
closed = 1;
nodes = (
"186.509 700 LINE",
"47.271 0 LINE",
"313.271 0 LINE SMOOTH",
"538.271 0 OFFCURVE",
"709.914 144 OFFCURVE",
"750.89 350 CURVE SMOOTH",
"792.264 558 OFFCURVE",
"677.509 700 OFFCURVE",
"452.509 700 CURVE SMOOTH"
);
},
{
closed = 1;
nodes = (
"253.306 151 LINE",
"332.672 550 LINE",
"411.672 550 LINE SMOOTH",
"536.672 550 OFFCURVE",
"596.953 476 OFFCURVE",
"571.89 350 CURVE SMOOTH",
"546.827 224 OFFCURVE",
"457.108 150 OFFCURVE",
"332.306 151 CURVE SMOOTH"
);
}
);
width = 758.50245;
},
{
hints = (
{
place = "{190.381, 4.381}";
type = Stem;
},
{
place = "{585.381, -3.619}";
type = Stem;
},
{
horizontal = 1;
place = "{-69.619, 21}";
target = up;
type = BottomGhost;
},
{
horizontal = 1;
place = "{187.381, -20}";
target = down;
type = TopGhost;
}
);
layerId = "9F107B1E-3A61-4335-981B-27DD48125C7E";
paths = (
{
closed = 1;
nodes = (
"82.331 312 LINE",
"451.331 312 LINE",
"465.852 385 LINE",
"96.852 385 LINE"
);
},
{
closed = 1;
nodes = (
"249.509 700 LINE",
"110.271 0 LINE",
"323.271 0 LINE",
"554.271 0 OFFCURVE",
"718.328 131 OFFCURVE",
"761.492 348 CURVE",
"804.855 566 OFFCURVE",
"693.509 700 OFFCURVE",
"462.509 700 CURVE"
);
},
{
closed = 1;
nodes = (
"203.603 62 LINE",
"317.58 635 LINE",
"449.58 635 LINE",
"638.58 635 OFFCURVE",
"715.7 525 OFFCURVE",
"680.492 348 CURVE",
"645.484 172 OFFCURVE",
"524.404 61 OFFCURVE",
"335.603 62 CURVE"
);
}
);
width = 786.99487;
}
);
leftMetricsKey = "=D-20";
rightMetricsKey = D;
unicode = 00D0;
},
{
glyphname = Dcaron;
lastChange = "2021-09-01 17:33:40 +0000";
layers = (
{
anchors = (
{
name = top;
position = "{439.707, 701}";
}
);
hints = (
{
place = "{-5.851, 23.149}";
type = Stem;
},
{
place = "{493.149, 26.149}";
type = Stem;
},
{
horizontal = 1;
place = "{-90.851, 2.149}";
type = Stem;
},
{
horizontal = 1;
place = "{516.149, 2.149}";
type = Stem;
}
);
layerId = "0CF0EA28-C756-4A9E-9D7C-CFEF350B4CFE";
paths = (
{
closed = 1;
nodes = (
"169.508 700 LINE",
"30.269 0 LINE",
"277.269 0 LINE SMOOTH",
"500.269 0 OFFCURVE",
"672.525 132 OFFCURVE",
"715.292 347 CURVE SMOOTH",
"758.257 563 OFFCURVE",
"639.508 700 OFFCURVE",
"416.508 700 CURVE SMOOTH"
);
},
{
closed = 1;
nodes = (
"163.166 95 LINE",
"264.611 605 LINE",
"397.611 605 LINE SMOOTH",
"561.611 605 OFFCURVE",
"631.118 507 OFFCURVE",
"599.292 347 CURVE SMOOTH",
"567.665 188 OFFCURVE",
"460.166 95 OFFCURVE",
"296.166 95 CURVE SMOOTH"
);
},
{
closed = 1;
nodes = (
"464.745 826.875 LINE",
"338.971 913.477 LINE",
"321.144 823.854 LINE",
"447.519 740.273 LINE",
"607.144 823.854 LINE",
"624.971 913.477 LINE"
);
}
);
width = 736;
},
{
anchors = (
{
name = top;
position = "{411.337, 679}";
}
);
hints = (
{
place = "{17.776, -63.224}";
type = Stem;
},
{
place = "{575.776, -63.224}";
type = Stem;
},
{
horizontal = 1;
place = "{-85.224, 21}";
target = up;
type = BottomGhost;
},
{
horizontal = 1;
place = "{599.776, -20}";
target = down;
type = TopGhost;
}
);
layerId = "6E968933-CD79-43C6-9231-80D77C940F4D";
paths = (
{
closed = 1;
nodes = (
"189.514 700 LINE",
"50.276 0 LINE",
"255.276 0 LINE",
"500.276 0 OFFCURVE",
"652.936 129 OFFCURVE",
"696.895 350 CURVE",
"740.855 571 OFFCURVE",
"639.514 700 OFFCURVE",
"394.514 700 CURVE"
);
},
{
closed = 1;
nodes = (
"76.254 20 LINE",
"207.536 680 LINE",
"390.536 680 LINE",
"625.536 680 OFFCURVE",
"715.473 554 OFFCURVE",
"674.895 350 CURVE",
"634.317 146 OFFCURVE",
"494.254 20 OFFCURVE",
"259.254 20 CURVE"
);
},
{
closed = 1;
nodes = (
"433.704 776.363 LINE",
"325.724 856.902 LINE",
"321.373 835.027 LINE",
"429.353 754.489 LINE",
"569.373 835.027 LINE",
"573.724 856.902 LINE"
);
}
);
width = 727.00149;
},
{
anchors = (
{
name = top;
position = "{431.91, 702}";
}
);
hints = (
{
place = "{-40.236, 82.764}";
type = Stem;
},
{
place = "{435.764, 85.764}";
type = Stem;
},
{
horizontal = 1;
place = "{-93.236, 59.764}";
type = Stem;
},
{
horizontal = 1;
place = "{455.764, 57.764}";
type = Stem;
}
);
layerId = "BAF31694-0472-4296-B0EA-1654553C45D2";
paths = (
{
closed = 1;
nodes = (
"144.512 700 LINE",
"5.274 0 LINE",
"291.274 0 LINE SMOOTH",
"516.274 0 OFFCURVE",
"688.917 144 OFFCURVE",
"729.893 350 CURVE SMOOTH",
"771.267 558 OFFCURVE",
"655.512 700 OFFCURVE",
"430.512 700 CURVE SMOOTH"
);
},
{
closed = 1;
nodes = (
"208.315 146 LINE",
"289.471 554 LINE",
"390.471 554 LINE SMOOTH",
"516.471 554 OFFCURVE",
"577.956 476 OFFCURVE",
"552.893 350 CURVE SMOOTH",
"527.83 224 OFFCURVE",
"435.315 146 OFFCURVE",
"309.315 146 CURVE SMOOTH"
);
},
{
closed = 1;
nodes = (
"459.79 850.959 LINE",
"320.996 937.463 LINE",
"297.065 817.152 LINE",
"437.639 739.597 LINE",
"609.065 817.152 LINE",
"632.996 937.463 LINE"
);
}
);
width = 737.50019;
},
{
anchors = (
{
name = top;
position = "{431.118, 693}";
}
);
hints = (
{
place = "{-49.779, -22.779}";
type = Stem;
},
{
place = "{538.221, -22.779}";
type = Stem;
},
{
horizontal = 1;
place = "{-88.779, 21}";
target = up;
type = BottomGhost;
},
{
horizontal = 1;
place = "{168.221, -20}";
target = down;
type = TopGhost;
}
);
layerId = "9F107B1E-3A61-4335-981B-27DD48125C7E";
paths = (
{
closed = 1;
nodes = (
"179.51 700 LINE",
"40.271 0 LINE",
"271.271 0 LINE",
"502.271 0 OFFCURVE",
"667.329 131 OFFCURVE",
"710.493 348 CURVE",
"753.856 566 OFFCURVE",
"641.51 700 OFFCURVE",
"410.51 700 CURVE"
);
},
{
closed = 1;
nodes = (
"134.195 70 LINE",
"245.586 630 LINE",
"396.586 630 LINE",
"586.586 630 OFFCURVE",
"664.7 525 OFFCURVE",
"629.493 348 CURVE",
"594.484 172 OFFCURVE",
"475.195 70 OFFCURVE",
"285.195 70 CURVE"
);
},
{
closed = 1;
nodes = (
"456.583 808.456 LINE",
"337.329 892.641 LINE",
"324.57 828.5 LINE",
"444.224 746.32 LINE",
"596.57 828.5 LINE",
"609.329 892.641 LINE"
);
}
);
width = 736.00431;
}
);
leftMetricsKey = D;
rightMetricsKey = D;
unicode = 010E;
},
{
glyphname = Dcroat;
lastChange = "2021-09-01 17:33:40 +0000";
layers = (
{
hints = (
{
place = "{92.381, 45.381}";
type = Stem;
},
{
place = "{571.381, 47.381}";
type = Stem;
},
{
horizontal = 1;
place = "{-69.619, 17.381}";
type = Stem;
},
{
horizontal = 1;
place = "{225.381, 35.381}";
type = Stem;
},
{
horizontal = 1;
place = "{538.381, 22.381}";
type = Stem;
}
);
layerId = "0CF0EA28-C756-4A9E-9D7C-CFEF350B4CFE";
paths = (
{
closed = 1;
nodes = (
"88.95 295 LINE",
"458.95 295 LINE",
"479.836 400 LINE",
"109.836 400 LINE"
);
},
{
closed = 1;
nodes = (
"246.509 700 LINE",
"107.271 0 LINE",
"335.271 0 LINE SMOOTH",
"558.271 0 OFFCURVE",
"729.527 132 OFFCURVE",
"772.293 347 CURVE SMOOTH",
"815.258 563 OFFCURVE",
"697.509 700 OFFCURVE",
"474.509 700 CURVE SMOOTH"
);
},
{
closed = 1;
nodes = (
"239.576 87 LINE",
"343.209 608 LINE",
"456.209 608 LINE SMOOTH",
"619.209 608 OFFCURVE",
"687.119 507 OFFCURVE",
"655.293 347 CURVE SMOOTH",
"623.666 188 OFFCURVE",
"515.377 86 OFFCURVE",
"352.576 87 CURVE SMOOTH"
);
}
);
width = 793;
},
{
hints = (
{
place = "{152.381, -47.619}";
type = Stem;
},
{
place = "{684.381, -47.619}";
type = Stem;
},
{
horizontal = 1;
place = "{-69.619, 21}";
target = up;
type = BottomGhost;
},
{
horizontal = 1;
place = "{615.381, -20}";
target = down;
type = TopGhost;
}
);
layerId = "6E968933-CD79-43C6-9231-80D77C940F4D";
paths = (
{
closed = 1;
nodes = (
"117.901 340 LINE",
"485.901 340 LINE",
"489.879 360 LINE",
"121.879 360 LINE"
);
},
{
closed = 1;
nodes = (
"303.509 700 LINE",
"164.271 0 LINE",
"350.271 0 LINE",
"594.271 0 OFFCURVE",
"747.93 129 OFFCURVE",
"791.89 350 CURVE",
"835.85 571 OFFCURVE",
"733.509 700 OFFCURVE",
"489.509 700 CURVE"
);
},
{
closed = 1;
nodes = (
"190.05 19 LINE",
"321.73 681 LINE",
"485.73 681 LINE",
"719.73 681 OFFCURVE",
"810.468 554 OFFCURVE",
"769.89 350 CURVE",
"729.312 146 OFFCURVE",
"588.05 19 OFFCURVE",
"354.05 19 CURVE"
);
}
);
width = 822.00298;
},
{
hints = (
{
place = "{45.381, 107.381}";
type = Stem;
},
{
place = "{500.381, 109.381}";
type = Stem;
},
{
horizontal = 1;
place = "{-69.619, 81.381}";
type = Stem;
},
{
horizontal = 1;
place = "{207.381, 76.381}";
type = Stem;
},
{
horizontal = 1;
place = "{479.381, 81.381}";
type = Stem;
}
);
layerId = "BAF31694-0472-4296-B0EA-1654553C45D2";
paths = (
{
closed = 1;
nodes = (
"60.369 277 LINE",
"449.369 277 LINE",
"478.411 423 LINE",
"89.411 423 LINE"
);
},
{
closed = 1;
nodes = (
"206.509 700 LINE",
"67.271 0 LINE",
"333.271 0 LINE SMOOTH",
"558.271 0 OFFCURVE",
"729.914 144 OFFCURVE",
"770.89 350 CURVE SMOOTH",
"812.264 558 OFFCURVE",
"697.509 700 OFFCURVE",
"472.509 700 CURVE SMOOTH"
);
},
{
closed = 1;
nodes = (
"273.306 151 LINE",
"352.672 550 LINE",
"431.672 550 LINE SMOOTH",
"556.672 550 OFFCURVE",
"616.953 476 OFFCURVE",
"591.89 350 CURVE SMOOTH",
"566.827 224 OFFCURVE",
"477.108 150 OFFCURVE",
"352.306 151 CURVE SMOOTH"
);
}
);
width = 778.50245;
},
{
hints = (
{
place = "{210.381, 4.381}";
type = Stem;
},
{
place = "{605.381, -3.619}";
type = Stem;
},
{
horizontal = 1;
place = "{-69.619, 21}";
target = up;
type = BottomGhost;
},
{
horizontal = 1;
place = "{187.381, -20}";
target = down;
type = TopGhost;
}
);
layerId = "9F107B1E-3A61-4335-981B-27DD48125C7E";
paths = (
{
closed = 1;
nodes = (
"102.331 312 LINE",
"471.331 312 LINE",
"485.852 385 LINE",
"116.852 385 LINE"
);
},
{
closed = 1;
nodes = (
"269.509 700 LINE",
"130.271 0 LINE",
"343.271 0 LINE",
"574.271 0 OFFCURVE",
"738.328 131 OFFCURVE",
"781.492 348 CURVE",
"824.855 566 OFFCURVE",
"713.509 700 OFFCURVE",
"482.509 700 CURVE"
);
},
{
closed = 1;
nodes = (
"223.603 62 LINE",
"337.58 635 LINE",
"469.58 635 LINE",
"658.58 635 OFFCURVE",
"735.7 525 OFFCURVE",
"700.492 348 CURVE",
"665.484 172 OFFCURVE",
"544.404 61 OFFCURVE",
"355.603 62 CURVE"
);
}
);
width = 806.99487;
}
);
leftMetricsKey = D;
rightMetricsKey = D;
unicode = 0110;
},
{
glyphname = E;
lastChange = "2021-09-01 17:33:40 +0000";
layers = (
{
anchors = (
{
name = bottom;
position = "{257.271, 0}";
},
{
name = ogonek;
position = "{454.271, 0}";
},
{
name = top;
position = "{406.708, 701}";
}
);
hints = (
{
place = "{15.381, 44.381}";
type = Stem;
},
{
horizontal = 1;
place = "{-69.619, 23.381}";
type = Stem;
},
{
horizontal = 1;
place = "{238.381, 23.381}";
type = Stem;
},
{
horizontal = 1;
place = "{537.381, 23.381}";
type = Stem;
}
);
layerId = "0CF0EA28-C756-4A9E-9D7C-CFEF350B4CFE";
paths = (
{
closed = 1;
nodes = (
"643.509 700 LINE",
"169.509 700 LINE",
"30.271 0 LINE",
"504.271 0 LINE",
"523.167 95 LINE",
"163.167 95 LINE",
"205.337 307 LINE",
"475.337 307 LINE",
"494.233 402 LINE",
"224.233 402 LINE",
"264.613 605 LINE",
"624.613 605 LINE"
);
}
);
width = 614;
},
{
anchors = (
{
name = bottom;
position = "{238.271, 0}";
},
{
name = ogonek;
position = "{434.271, 0}";
},
{
name = top;
position = "{404.52, 690}";
}
);
hints = (
{
place = "{46.381, -47.619}";
type = Stem;
},
{
horizontal = 1;
place = "{615.381, -20}";
target = down;
type = TopGhost;
},
{
horizontal = 1;
place = "{-69.619, 21}";
target = up;
type = BottomGhost;
}
);
layerId = "6E968933-CD79-43C6-9231-80D77C940F4D";
paths = (
{
closed = 1;
nodes = (
"623.509 700 LINE",
"189.509 700 LINE",
"50.271 0 LINE",
"484.271 0 LINE",
"488.249 20 LINE",
"76.249 20 LINE",
"141.89 350 LINE",
"463.89 350 LINE",
"467.868 370 LINE",
"145.868 370 LINE",
"207.531 680 LINE",
"619.531 680 LINE"
);
}
);
width = 614;
},
{
anchors = (
{
name = bottom;
position = "{258.47, 1}";
},
{
name = ogonek;
position = "{480.47, 1}";
},
{
name = top;
position = "{401.907, 702}";
}
);
hints = (
{
place = "{-16.619, 106.381}";
type = Stem;
},
{
horizontal = 1;
place = "{-69.619, 71.381}";
type = Stem;
},
{
horizontal = 1;
place = "{216.381, 71.381}";
type = Stem;
},
{
horizontal = 1;
place = "{489.381, 71.381}";
type = Stem;
}
);
layerId = "BAF31694-0472-4296-B0EA-1654553C45D2";
paths = (
{
closed = 1;
nodes = (
"669.509 700 LINE",
"144.509 700 LINE",
"5.271 0 LINE",
"530.262 0 LINE",
"559.312 146 LINE",
"208.312 146 LINE",
"236.359 287 LINE",
"485.359 287 LINE",
"512.411 423 LINE",
"263.411 423 LINE",
"289.468 554 LINE",
"640.468 554 LINE"
);
}
);
width = 614.99434;
},
{
anchors = (
{
name = bottom;
position = "{252.271, 0}";
},
{
name = ogonek;
position = "{449.271, 0}";
},
{
name = top;
position = "{407.913, 697}";
}
);
hints = (
{
place = "{353.381, -3.619}";
type = Stem;
},
{
horizontal = 1;
place = "{187.381, -20}";
target = down;
type = TopGhost;
},
{
horizontal = 1;
place = "{-69.619, 21}";
target = up;
type = BottomGhost;
}
);
layerId = "9F107B1E-3A61-4335-981B-27DD48125C7E";
paths = (
{
closed = 1;
nodes = (
"638.509 700 LINE",
"179.509 700 LINE",
"40.271 0 LINE",
"499.271 0 LINE",
"513.195 70 LINE",
"134.195 70 LINE",
"184.122 321 LINE",
"473.122 321 LINE",
"487.045 391 LINE",
"198.045 391 LINE",
"245.585 630 LINE",
"624.585 630 LINE"
);
}
);
width = 619.00375;
}
);
leftMetricsKey = H;
rightMetricsKey = "=H-20";
unicode = 0045;
},
{
glyphname = Eacute;
lastChange = "2021-09-01 17:33:40 +0000";
layers = (
{
anchors = (
{
name = bottom;
position = "{257.274, 0}";
},
{
name = ogonek;
position = "{454.274, 0}";
},
{
name = top;
position = "{406.712, 701}";
}
);
hints = (
{
place = "{-9.156, 19.844}";
type = Stem;
},
{
horizontal = 1;
place = "{-94.156, -1.156}";
type = Stem;
},
{
horizontal = 1;
place = "{213.844, -1.156}";
type = Stem;
},
{
horizontal = 1;
place = "{512.844, -1.156}";
type = Stem;
}
);
layerId = "0CF0EA28-C756-4A9E-9D7C-CFEF350B4CFE";
paths = (
{
closed = 1;
nodes = (
"643.513 700 LINE",
"169.513 700 LINE",
"30.274 0 LINE",
"504.274 0 LINE",
"523.171 95 LINE",
"163.171 95 LINE",
"205.34 307 LINE",
"475.34 307 LINE",
"494.237 402 LINE",
"224.237 402 LINE",
"264.616 605 LINE",
"624.616 605 LINE"
);
},
{
closed = 1;
nodes = (
"313.349 824.861 LINE",
"296.523 740.273 LINE",
"539.156 849.029 LINE",
"558.586 946.708 LINE"
);
}
);
width = 614;
},
{
anchors = (
{
name = bottom;
position = "{238.275, 0}";
},
{
name = ogonek;
position = "{434.275, 0}";
},
{
name = top;
position = "{404.525, 690}";
}
);
hints = (
{
place = "{27.605, -66.395}";
type = Stem;
},
{
horizontal = 1;
place = "{596.605, -20}";
target = down;
type = TopGhost;
},
{
horizontal = 1;
place = "{-88.395, 21}";
target = up;
type = BottomGhost;
}
);
layerId = "6E968933-CD79-43C6-9231-80D77C940F4D";
paths = (
{
closed = 1;
nodes = (
"623.514 700 LINE",
"189.514 700 LINE",
"50.275 0 LINE",
"484.275 0 LINE",
"488.253 20 LINE",
"76.253 20 LINE",
"141.894 350 LINE",
"463.894 350 LINE",
"467.873 370 LINE",
"145.873 370 LINE",
"207.536 680 LINE",
"619.536 680 LINE"
);
},
{
closed = 1;
nodes = (
"314.563 755.546 LINE",
"310.409 734.665 LINE",
"523.12 863.924 LINE",
"528.065 888.782 LINE"
);
}
);
width = 614;
},
{
anchors = (
{
name = bottom;
position = "{258.47, 1}";
},
{
name = ogonek;
position = "{480.47, 1}";
},
{
name = top;
position = "{401.908, 702}";
}
);
hints = (
{
place = "{-43.599, 79.401}";
type = Stem;
},
{
horizontal = 1;
place = "{-96.599, 44.401}";
type = Stem;
},
{
horizontal = 1;
place = "{189.401, 44.401}";
type = Stem;
},
{
horizontal = 1;
place = "{462.401, 44.401}";
type = Stem;
}
);
layerId = "BAF31694-0472-4296-B0EA-1654553C45D2";
paths = (
{
closed = 1;
nodes = (
"669.51 700 LINE",
"144.51 700 LINE",
"5.271 0 LINE",
"530.262 0 LINE",
"559.312 146 LINE",
"208.312 146 LINE",
"236.359 287 LINE",
"485.359 287 LINE",
"512.411 423 LINE",
"263.411 423 LINE",
"289.469 554 LINE",
"640.469 554 LINE"
);
},
{
closed = 1;
nodes = (
"306.172 857.919 LINE",
"282.241 737.608 LINE",
"544.821 836.044 LINE",
"571.719 971.269 LINE"
);
}
);
width = 614.99962;
},
{
anchors = (
{
name = bottom;
position = "{252.273, 0}";
},
{
name = ogonek;
position = "{449.273, 0}";
},
{
name = top;
position = "{407.915, 697}";
}
);
hints = (
{
place = "{330.933, -26.067}";
type = Stem;
},
{
horizontal = 1;
place = "{164.933, -20}";
target = down;
type = TopGhost;
},
{
horizontal = 1;
place = "{-92.067, 21}";
target = up;
type = BottomGhost;
}
);
layerId = "9F107B1E-3A61-4335-981B-27DD48125C7E";
paths = (
{
closed = 1;
nodes = (
"638.512 700 LINE",
"179.512 700 LINE",
"40.273 0 LINE",
"499.273 0 LINE",
"513.197 70 LINE",
"134.197 70 LINE",
"184.124 321 LINE",
"473.124 321 LINE",
"487.048 391 LINE",
"198.048 391 LINE",
"245.588 630 LINE",
"624.588 630 LINE"
);
},
{
closed = 1;
nodes = (
"316.988 800.43 LINE",
"305.027 740.298 LINE",
"535.953 855.551 LINE",
"549.907 925.705 LINE"
);
}
);
width = 619.00375;
}
);
leftMetricsKey = H;
rightMetricsKey = E;
unicode = 00C9;
},
{
glyphname = Ebreve;
lastChange = "2021-09-01 17:33:40 +0000";
layers = (
{
anchors = (
{
name = bottom;
position = "{257.27, 0}";
},
{
name = ogonek;
position = "{454.27, 0}";
},
{
name = top;
position = "{406.707, 701}";
}
);
hints = (
{
place = "{-5.45, 23.55}";
type = Stem;
},
{
horizontal = 1;
place = "{-90.45, 2.55}";
type = Stem;
},
{
horizontal = 1;
place = "{217.55, 2.55}";
type = Stem;
},
{
horizontal = 1;
place = "{516.55, 2.55}";
type = Stem;
},
{
place = "{80.8, -24.995}";
type = Stem;
},
{
place = "{315.8, -23.988}";
type = Stem;
},
{
horizontal = 1;
place = "{656.872, -0.827}";
type = Stem;
},
{
horizontal = 1;
place = "{656.872, 71.677}";
type = Stem;
}
);
layerId = "0CF0EA28-C756-4A9E-9D7C-CFEF350B4CFE";
paths = (
{
closed = 1;
nodes = (
"643.508 700 LINE",
"169.508 700 LINE",
"30.27 0 LINE",
"504.27 0 LINE",
"523.166 95 LINE",
"163.166 95 LINE",
"205.336 307 LINE",
"475.336 307 LINE",
"494.232 402 LINE",
"224.232 402 LINE",
"264.612 605 LINE",
"624.612 605 LINE"
);
},
{
closed = 1;
nodes = (
"599.17 909.449 LINE",
"533.17 909.449 LINE",
"524.157 864.134 OFFCURVE",
"498.748 836.945 OFFCURVE",
"433.748 836.945 CURVE SMOOTH",
"368.748 836.945 OFFCURVE",
"354.157 864.134 OFFCURVE",
"363.17 909.449 CURVE",
"298.17 909.449 LINE",
"293.964 888.302 LINE SMOOTH",
"277.339 804.721 OFFCURVE",
"321.921 747.322 OFFCURVE",
"415.921 747.322 CURVE SMOOTH",
"510.921 747.322 OFFCURVE",
"578.138 803.714 OFFCURVE",
"594.764 887.295 CURVE SMOOTH"
);
}
);
width = 614;
},
{
anchors = (
{
name = bottom;
position = "{238.268, 0}";
},
{
name = ogonek;
position = "{434.268, 0}";
},
{
name = top;
position = "{404.518, 690}";
}
);
hints = (
{
place = "{29.088, -64.912}";
type = Stem;
},
{
horizontal = 1;
place = "{598.088, -20}";
target = down;
type = TopGhost;
},
{
horizontal = 1;
place = "{-86.912, 21}";
target = up;
type = BottomGhost;
},
{
place = "{128.088, -66.031}";
type = Stem;
},
{
place = "{340.088, -64.043}";
type = Stem;
},
{
horizontal = 1;
place = "{665.651, 21}";
target = up;
type = BottomGhost;
},
{
horizontal = 1;
place = "{771.047, -20}";
target = down;
type = TopGhost;
}
);
layerId = "6E968933-CD79-43C6-9231-80D77C940F4D";
paths = (
{
closed = 1;
nodes = (
"623.507 700 LINE",
"189.507 700 LINE",
"50.268 0 LINE",
"484.268 0 LINE",
"488.247 20 LINE",
"76.247 20 LINE",
"141.888 350 LINE",
"463.888 350 LINE",
"467.866 370 LINE",
"145.866 370 LINE",
"207.529 680 LINE",
"619.529 680 LINE"
);
},
{
closed = 1;
nodes = (
"564.092 873.867 LINE",
"543.092 873.867 LINE",
"531.818 817.192 OFFCURVE",
"489.291 784.38 OFFCURVE",
"427.291 784.38 CURVE",
"365.291 784.38 OFFCURVE",
"336.818 817.192 OFFCURVE",
"348.092 873.867 CURVE",
"327.092 873.867 LINE",
"326.103 868.896 LINE SMOOTH",
"316.609 821.17 OFFCURVE",
"338.534 765.489 OFFCURVE",
"423.534 765.489 CURVE",
"509.534 765.489 OFFCURVE",
"553.609 821.17 OFFCURVE",
"563.103 868.896 CURVE SMOOTH"
);
}
);
width = 614;
},
{
anchors = (
{
name = bottom;
position = "{258.47, 1}";
},
{
name = ogonek;
position = "{480.47, 1}";
},
{
name = top;
position = "{401.908, 702}";
}
);
hints = (
{
place = "{-40.039, 82.961}";
type = Stem;
},
{
horizontal = 1;
place = "{-93.039, 47.961}";
type = Stem;
},
{
horizontal = 1;
place = "{192.961, 47.961}";
type = Stem;
},
{
horizontal = 1;
place = "{465.961, 47.961}";
type = Stem;
},
{
place = "{44.961, -6.535}";
type = Stem;
},
{
place = "{301.961, -6.535}";
type = Stem;
},
{
horizontal = 1;
place = "{648.547, 35.226}";
type = Stem;
},
{
horizontal = 1;
place = "{648.547, 100.85}";
type = Stem;
}
);
layerId = "BAF31694-0472-4296-B0EA-1654553C45D2";
paths = (
{
closed = 1;
nodes = (
"669.51 700 LINE",
"144.51 700 LINE",
"5.271 0 LINE",
"530.262 0 LINE",
"559.313 146 LINE",
"208.313 146 LINE",
"236.359 287 LINE",
"485.359 287 LINE",
"512.411 423 LINE",
"263.411 423 LINE",
"289.469 554 LINE",
"640.469 554 LINE"
);
},
{
closed = 1;
nodes = (
"619.599 935.474 LINE",
"532.599 935.474 LINE",
"524.292 893.714 OFFCURVE",
"499.348 868.856 OFFCURVE",
"434.348 868.856 CURVE SMOOTH",
"369.348 868.856 OFFCURVE",
"354.292 893.714 OFFCURVE",
"362.599 935.474 CURVE",
"275.599 935.474 LINE",
"271.841 916.582 LINE SMOOTH",
"249.096 802.238 OFFCURVE",
"309.032 741.586 OFFCURVE",
"409.032 741.586 CURVE SMOOTH",
"510.032 741.586 OFFCURVE",
"593.096 802.238 OFFCURVE",
"615.841 916.582 CURVE SMOOTH"
);
}
);
width = 614.99962;
},
{
anchors = (
{
name = bottom;
position = "{252.273, 0}";
},
{
name = ogonek;
position = "{449.273, 0}";
},
{
name = top;
position = "{407.915, 697}";
}
);
hints = (
{
place = "{333.823, -23.177}";
type = Stem;
},
{
horizontal = 1;
place = "{167.823, -20}";
target = down;
type = TopGhost;
},
{
horizontal = 1;
place = "{-89.177, 21}";
target = up;
type = BottomGhost;
},
{
place = "{463.823, -25.036}";
type = Stem;
},
{
place = "{543.823, 20.063}";
type = Stem;
},
{
horizontal = 1;
place = "{286.321, 21}";
target = up;
type = BottomGhost;
},
{
horizontal = 1;
place = "{326.409, -20}";
target = down;
type = TopGhost;
}
);
layerId = "9F107B1E-3A61-4335-981B-27DD48125C7E";
paths = (
{
closed = 1;
nodes = (
"638.512 700 LINE",
"179.512 700 LINE",
"40.273 0 LINE",
"499.273 0 LINE",
"513.197 70 LINE",
"134.197 70 LINE",
"184.124 321 LINE",
"473.124 321 LINE",
"487.048 391 LINE",
"198.048 391 LINE",
"245.588 630 LINE",
"624.588 630 LINE"
);
},
{
closed = 1;
nodes = (
"589.127 896.641 LINE",
"540.127 896.641 LINE",
"530.159 846.531 OFFCURVE",
"498.378 817.467 OFFCURVE",
"434.378 817.467 CURVE",
"370.378 817.467 OFFCURVE",
"350.159 846.531 OFFCURVE",
"360.127 896.641 CURVE",
"312.127 896.641 LINE",
"309.136 881.608 LINE SMOOTH",
"295.182 811.454 OFFCURVE",
"330.819 754.329 OFFCURVE",
"421.819 754.329 CURVE",
"513.819 754.329 OFFCURVE",
"571.982 810.452 OFFCURVE",
"585.937 880.606 CURVE SMOOTH"
);
}
);
width = 619.00375;
}
);
leftMetricsKey = H;
rightMetricsKey = E;
unicode = 0114;
},
{
glyphname = Ecaron;
lastChange = "2021-09-01 17:33:40 +0000";
layers = (
{
anchors = (
{
name = bottom;
position = "{257.269, 0}";
},
{
name = ogonek;
position = "{454.269, 0}";
},
{
name = top;
position = "{406.707, 701}";
}
);
hints = (
{
place = "{-5.851, 23.149}";
type = Stem;
},
{
horizontal = 1;
place = "{-90.851, 2.149}";
type = Stem;
},
{
horizontal = 1;
place = "{217.149, 2.149}";
type = Stem;
},
{
horizontal = 1;
place = "{516.149, 2.149}";
type = Stem;
}
);
layerId = "0CF0EA28-C756-4A9E-9D7C-CFEF350B4CFE";
paths = (
{
closed = 1;
nodes = (
"643.508 700 LINE",
"169.508 700 LINE",
"30.269 0 LINE",
"504.269 0 LINE",
"523.166 95 LINE",
"163.166 95 LINE",
"205.335 307 LINE",
"475.335 307 LINE",
"494.232 402 LINE",
"224.232 402 LINE",
"264.611 605 LINE",
"624.611 605 LINE"
);
},
{
closed = 1;
nodes = (
"431.745 826.875 LINE",
"305.971 913.477 LINE",
"288.144 823.854 LINE",
"414.519 740.273 LINE",
"574.144 823.854 LINE",
"591.971 913.477 LINE"
);
}
);
width = 614;
},
{
anchors = (
{
name = bottom;
position = "{238.272, 0}";
},
{
name = ogonek;
position = "{434.272, 0}";
},
{
name = top;
position = "{404.521, 690}";
}
);
hints = (
{
place = "{29.682, -64.318}";
type = Stem;
},
{
horizontal = 1;
place = "{598.682, -20}";
target = down;
type = TopGhost;
},
{
horizontal = 1;
place = "{-86.318, 21}";
target = up;
type = BottomGhost;
}
);
layerId = "6E968933-CD79-43C6-9231-80D77C940F4D";
paths = (
{
closed = 1;
nodes = (
"623.51 700 LINE",
"189.51 700 LINE",
"50.272 0 LINE",
"484.272 0 LINE",
"488.25 20 LINE",
"76.25 20 LINE",
"141.891 350 LINE",
"463.891 350 LINE",
"467.869 370 LINE",
"145.869 370 LINE",
"207.532 680 LINE",
"619.532 680 LINE"
);
},
{
closed = 1;
nodes = (
"427.888 787.363 LINE",
"319.908 867.902 LINE",
"315.557 846.027 LINE",
"423.537 765.489 LINE",
"563.557 846.027 LINE",
"567.908 867.902 LINE"
);
}
);
width = 614;
},
{
anchors = (
{
name = bottom;
position = "{258.472, 1}";
},
{
name = ogonek;
position = "{480.472, 1}";
},
{
name = top;
position = "{401.91, 702}";
}
);
hints = (
{
place = "{-40.236, 82.764}";
type = Stem;
},
{
horizontal = 1;
place = "{-93.236, 47.764}";
type = Stem;
},
{
horizontal = 1;
place = "{192.764, 47.764}";
type = Stem;
},
{
horizontal = 1;
place = "{465.764, 47.764}";
type = Stem;
}
);
layerId = "BAF31694-0472-4296-B0EA-1654553C45D2";
paths = (
{
closed = 1;
nodes = (
"669.512 700 LINE",
"144.512 700 LINE",
"5.274 0 LINE",
"530.265 0 LINE",
"559.315 146 LINE",
"208.315 146 LINE",
"236.361 287 LINE",
"485.361 287 LINE",
"512.413 423 LINE",
"263.413 423 LINE",
"289.471 554 LINE",
"640.471 554 LINE"
);
},
{
closed = 1;
nodes = (
"429.79 850.959 LINE",
"290.996 937.463 LINE",
"267.065 817.152 LINE",
"407.639 739.597 LINE",
"579.065 817.152 LINE",
"602.996 937.463 LINE"
);
}
);
width = 614.99962;
},
{
anchors = (
{
name = bottom;
position = "{252.273, 0}";
},
{
name = ogonek;
position = "{449.273, 0}";
},
{
name = top;
position = "{407.915, 697}";
}
);
hints = (
{
place = "{333.823, -23.177}";
type = Stem;
},
{
horizontal = 1;
place = "{167.823, -20}";
target = down;
type = TopGhost;
},
{
horizontal = 1;
place = "{-89.177, 21}";
target = up;
type = BottomGhost;
}
);
layerId = "9F107B1E-3A61-4335-981B-27DD48125C7E";
paths = (
{
closed = 1;
nodes = (
"638.512 700 LINE",
"179.512 700 LINE",
"40.273 0 LINE",
"499.273 0 LINE",
"513.197 70 LINE",
"134.197 70 LINE",
"184.124 321 LINE",
"473.124 321 LINE",
"487.048 391 LINE",
"198.048 391 LINE",
"245.588 630 LINE",
"624.588 630 LINE"
);
},
{
closed = 1;
nodes = (
"433.381 812.456 LINE",
"314.127 896.641 LINE",
"301.368 832.5 LINE",
"421.021 750.32 LINE",
"573.368 832.5 LINE",
"586.127 896.641 LINE"
);
}
);
width = 619.00375;
}
);
leftMetricsKey = H;
rightMetricsKey = E;
unicode = 011A;
},
{
glyphname = Ecircumflex;
lastChange = "2021-09-01 17:33:40 +0000";
layers = (
{
anchors = (
{
name = bottom;
position = "{257.269, 0}";
},
{
name = ogonek;
position = "{454.269, 0}";
},
{
name = top;
position = "{406.707, 701}";
}
);
hints = (
{
place = "{-5.851, 23.149}";
type = Stem;
},
{
horizontal = 1;
place = "{-90.851, 2.149}";
type = Stem;
},
{
horizontal = 1;
place = "{217.149, 2.149}";
type = Stem;
},
{
horizontal = 1;
place = "{516.149, 2.149}";
type = Stem;
}
);
layerId = "0CF0EA28-C756-4A9E-9D7C-CFEF350B4CFE";
paths = (
{
closed = 1;
nodes = (
"643.508 700 LINE",
"169.508 700 LINE",
"30.269 0 LINE",
"504.269 0 LINE",
"523.166 95 LINE",
"163.166 95 LINE",
"205.335 307 LINE",
"475.335 307 LINE",
"494.232 402 LINE",
"224.232 402 LINE",
"264.611 605 LINE",
"624.611 605 LINE"
);
},
{
closed = 1;
nodes = (
"575.346 829.896 LINE",
"448.971 913.477 LINE",
"289.346 829.896 LINE",
"271.519 740.273 LINE",
"431.745 826.875 LINE",
"557.519 740.273 LINE"
);
}
);
width = 614;
},
{
anchors = (
{
name = bottom;
position = "{238.275, 0}";
},
{
name = ogonek;
position = "{434.275, 0}";
},
{
name = top;
position = "{404.525, 690}";
}
);
hints = (
{
place = "{29.385, -64.615}";
type = Stem;
},
{
horizontal = 1;
place = "{598.385, -20}";
target = down;
type = TopGhost;
},
{
horizontal = 1;
place = "{-86.615, 21}";
target = up;
type = BottomGhost;
}
);
layerId = "6E968933-CD79-43C6-9231-80D77C940F4D";
paths = (
{
closed = 1;
nodes = (
"623.514 700 LINE",
"189.514 700 LINE",
"50.275 0 LINE",
"484.275 0 LINE",
"488.253 20 LINE",
"76.253 20 LINE",
"141.894 350 LINE",
"463.894 350 LINE",
"467.873 370 LINE",
"145.873 370 LINE",
"207.536 680 LINE",
"619.536 680 LINE"
);
},
{
closed = 1;
nodes = (
"552.485 790.346 LINE",
"444.505 870.885 LINE",
"304.485 790.346 LINE",
"300.134 768.472 LINE",
"440.154 849.01 LINE",
"548.134 768.472 LINE"
);
}
);
width = 614;
},
{
anchors = (
{
name = bottom;
position = "{258.472, 1}";
},
{
name = ogonek;
position = "{480.472, 1}";
},
{
name = top;
position = "{401.91, 702}";
}
);
hints = (
{
place = "{-40.236, 82.764}";
type = Stem;
},
{
horizontal = 1;
place = "{-93.236, 47.764}";
type = Stem;
},
{
horizontal = 1;
place = "{192.764, 47.764}";
type = Stem;
},
{
horizontal = 1;
place = "{465.764, 47.764}";
type = Stem;
}
);
layerId = "BAF31694-0472-4296-B0EA-1654553C45D2";
paths = (
{
closed = 1;
nodes = (
"669.512 700 LINE",
"144.512 700 LINE",
"5.274 0 LINE",
"530.265 0 LINE",
"559.315 146 LINE",
"208.315 146 LINE",
"236.361 287 LINE",
"485.361 287 LINE",
"512.413 423 LINE",
"263.413 423 LINE",
"289.471 554 LINE",
"640.471 554 LINE"
);
},
{
closed = 1;
nodes = (
"587.57 859.907 LINE",
"446.996 937.463 LINE",
"275.57 859.907 LINE",
"251.639 739.597 LINE",
"423.659 820.135 LINE",
"563.639 739.597 LINE"
);
}
);
width = 614.99962;
},
{
anchors = (
{
name = bottom;
position = "{252.274, 0}";
},
{
name = ogonek;
position = "{449.274, 0}";
},
{
name = top;
position = "{407.916, 697}";
}
);
hints = (
{
place = "{333.724, -23.276}";
type = Stem;
},
{
horizontal = 1;
place = "{167.724, -20}";
target = down;
type = TopGhost;
},
{
horizontal = 1;
place = "{-89.276, 21}";
target = up;
type = BottomGhost;
}
);
layerId = "9F107B1E-3A61-4335-981B-27DD48125C7E";
paths = (
{
closed = 1;
nodes = (
"638.512 700 LINE",
"179.512 700 LINE",
"40.274 0 LINE",
"499.274 0 LINE",
"513.198 70 LINE",
"134.198 70 LINE",
"184.125 321 LINE",
"473.125 321 LINE",
"487.049 391 LINE",
"198.049 391 LINE",
"245.589 630 LINE",
"624.589 630 LINE"
);
},
{
closed = 1;
nodes = (
"569.979 815.463 LINE",
"450.326 897.643 LINE",
"297.979 815.463 LINE",
"285.221 751.322 LINE",
"437.966 835.507 LINE",
"557.221 751.322 LINE"
);
}
);
width = 619.00375;
}
);
leftMetricsKey = H;
rightMetricsKey = E;
unicode = 00CA;
},
{
glyphname = Edieresis;
lastChange = "2021-09-01 17:33:40 +0000";
layers = (
{
anchors = (
{
name = bottom;
position = "{257.272, 0}";
},
{
name = ogonek;
position = "{454.272, 0}";
},
{
name = top;
position = "{406.71, 701}";
}
);
hints = (
{
place = "{-3.648, 25.352}";
type = Stem;
},
{
horizontal = 1;
place = "{-88.648, 4.352}";
type = Stem;
},
{
horizontal = 1;
place = "{219.352, 4.352}";
type = Stem;
},
{
horizontal = 1;
place = "{518.352, 4.352}";
type = Stem;
},
{
place = "{86.602, 32.192}";
type = Stem;
},
{
place = "{258.602, 32.192}";
type = Stem;
},
{
horizontal = 1;
place = "{681.835, 32.192}";
type = Stem;
}
);
layerId = "0CF0EA28-C756-4A9E-9D7C-CFEF350B4CFE";
paths = (
{
closed = 1;
nodes = (
"643.511 700 LINE",
"169.511 700 LINE",
"30.272 0 LINE",
"504.272 0 LINE",
"523.169 95 LINE",
"163.169 95 LINE",
"205.339 307 LINE",
"475.339 307 LINE",
"494.235 402 LINE",
"224.235 402 LINE",
"264.614 605 LINE",
"624.614 605 LINE"
);
},
{
closed = 1;
nodes = (
"367.531 770.483 OFFCURVE",
"399.739 796.665 OFFCURVE",
"406.549 830.903 CURVE SMOOTH",
"413.159 864.134 OFFCURVE",
"391.568 891.323 OFFCURVE",
"358.568 891.323 CURVE SMOOTH",
"324.568 891.323 OFFCURVE",
"293.159 864.134 OFFCURVE",
"286.549 830.903 CURVE SMOOTH",
"279.739 796.665 OFFCURVE",
"300.531 770.483 OFFCURVE",
"334.531 770.483 CURVE SMOOTH"
);
},
{
closed = 1;
nodes = (
"539.531 770.483 OFFCURVE",
"571.739 796.665 OFFCURVE",
"578.549 830.903 CURVE SMOOTH",
"585.159 864.134 OFFCURVE",
"563.568 891.323 OFFCURVE",
"530.568 891.323 CURVE SMOOTH",
"496.568 891.323 OFFCURVE",
"465.159 864.134 OFFCURVE",
"458.549 830.903 CURVE SMOOTH",
"451.739 796.665 OFFCURVE",
"472.531 770.483 OFFCURVE",
"506.531 770.483 CURVE SMOOTH"
);
}
);
width = 614;
},
{
anchors = (
{
name = bottom;
position = "{238.27, 0}";
},
{
name = ogonek;
position = "{434.27, 0}";
},
{
name = top;
position = "{404.519, 690}";
}
);
hints = (
{
place = "{32.55, -61.45}";
type = Stem;
},
{
horizontal = 1;
place = "{601.55, -20}";
target = down;
type = TopGhost;
},
{
horizontal = 1;
place = "{-83.45, 21}";
target = up;
type = BottomGhost;
},
{
place = "{140.55, -22.798}";
type = Stem;
},
{
place = "{275.55, -23.792}";
type = Stem;
},
{
horizontal = 1;
place = "{692.976, -22.798}";
type = Stem;
}
);
layerId = "6E968933-CD79-43C6-9231-80D77C940F4D";
paths = (
{
closed = 1;
nodes = (
"623.508 700 LINE",
"189.508 700 LINE",
"50.27 0 LINE",
"484.27 0 LINE",
"488.248 20 LINE",
"76.248 20 LINE",
"141.889 350 LINE",
"463.889 350 LINE",
"467.867 370 LINE",
"145.867 370 LINE",
"207.53 680 LINE",
"619.53 680 LINE"
);
},
{
closed = 1;
nodes = (
"376.106 778.415 OFFCURVE",
"392.875 792.335 OFFCURVE",
"396.039 808.244 CURVE SMOOTH",
"399.402 825.147 OFFCURVE",
"388.17 839.067 OFFCURVE",
"371.17 839.067 CURVE SMOOTH",
"354.17 839.067 OFFCURVE",
"338.402 825.147 OFFCURVE",
"335.039 808.244 CURVE SMOOTH",
"331.875 792.335 OFFCURVE",
"342.106 778.415 OFFCURVE",
"359.106 778.415 CURVE SMOOTH"
);
},
{
closed = 1;
nodes = (
"510.106 778.415 OFFCURVE",
"526.875 792.335 OFFCURVE",
"530.039 808.244 CURVE SMOOTH",
"533.402 825.147 OFFCURVE",
"522.17 839.067 OFFCURVE",
"506.17 839.067 CURVE SMOOTH",
"489.17 839.067 OFFCURVE",
"472.402 825.147 OFFCURVE",
"469.039 808.244 CURVE SMOOTH",
"465.875 792.335 OFFCURVE",
"477.106 778.415 OFFCURVE",
"494.106 778.415 CURVE SMOOTH"
);
}
);
width = 614;
},
{
anchors = (
{
name = bottom;
position = "{258.474, 1}";
},
{
name = ogonek;
position = "{480.474, 1}";
},
{
name = top;
position = "{401.911, 702}";
}
);
hints = (
{
place = "{-37.665, 85.335}";
type = Stem;
},
{
horizontal = 1;
place = "{-90.665, 50.335}";
type = Stem;
},
{
horizontal = 1;
place = "{195.335, 50.335}";
type = Stem;
},
{
horizontal = 1;
place = "{468.335, 50.335}";
type = Stem;
},
{
place = "{42.335, 58.48}";
type = Stem;
},
{
place = "{245.335, 58.48}";
type = Stem;
},
{
horizontal = 1;
place = "{671.801, 58.48}";
type = Stem;
}
);
layerId = "BAF31694-0472-4296-B0EA-1654553C45D2";
paths = (
{
closed = 1;
nodes = (
"669.513 700 LINE",
"144.513 700 LINE",
"5.275 0 LINE",
"530.266 0 LINE",
"559.316 146 LINE",
"208.316 146 LINE",
"236.362 287 LINE",
"485.362 287 LINE",
"512.415 423 LINE",
"263.415 423 LINE",
"289.472 554 LINE",
"640.472 554 LINE"
);
},
{
closed = 1;
nodes = (
"353.189 762.466 OFFCURVE",
"392.517 794.284 OFFCURVE",
"400.824 836.044 CURVE SMOOTH",
"409.329 878.799 OFFCURVE",
"382.855 911.611 OFFCURVE",
"339.855 911.611 CURVE SMOOTH",
"297.855 911.611 OFFCURVE",
"259.329 878.799 OFFCURVE",
"250.824 836.044 CURVE SMOOTH",
"242.517 794.284 OFFCURVE",
"268.189 762.466 OFFCURVE",
"310.189 762.466 CURVE SMOOTH"
);
},
{
closed = 1;
nodes = (
"556.189 762.466 OFFCURVE",
"594.517 794.284 OFFCURVE",
"602.824 836.044 CURVE SMOOTH",
"611.329 878.799 OFFCURVE",
"585.855 911.611 OFFCURVE",
"542.855 911.611 CURVE SMOOTH",
"500.855 911.611 OFFCURVE",
"462.329 878.799 OFFCURVE",
"453.824 836.044 CURVE SMOOTH",
"445.517 794.284 OFFCURVE",
"471.189 762.466 OFFCURVE",
"513.189 762.466 CURVE SMOOTH"
);
}
);
width = 614.99962;
},
{
anchors = (
{
name = bottom;
position = "{252.275, 0}";
},
{
name = ogonek;
position = "{449.275, 0}";
},
{
name = top;
position = "{407.917, 697}";
}
);
hints = (
{
place = "{336.415, -20.585}";
type = Stem;
},
{
horizontal = 1;
place = "{170.415, -20}";
target = down;
type = TopGhost;
},
{
horizontal = 1;
place = "{-86.585, 21}";
target = up;
type = BottomGhost;
},
{
place = "{106.415, 11.631}";
type = Stem;
},
{
place = "{264.415, 11.631}";
type = Stem;
},
{
horizontal = 1;
place = "{686.786, 11.631}";
type = Stem;
}
);
layerId = "9F107B1E-3A61-4335-981B-27DD48125C7E";
paths = (
{
closed = 1;
nodes = (
"638.514 700 LINE",
"179.514 700 LINE",
"40.275 0 LINE",
"499.275 0 LINE",
"513.199 70 LINE",
"134.199 70 LINE",
"184.126 321 LINE",
"473.126 321 LINE",
"487.05 391 LINE",
"198.05 391 LINE",
"245.59 630 LINE",
"624.59 630 LINE"
);
},
{
closed = 1;
nodes = (
"373.409 772.368 OFFCURVE",
"399.595 793.415 OFFCURVE",
"404.977 820.474 CURVE SMOOTH",
"410.36 847.533 OFFCURVE",
"392.945 870.584 OFFCURVE",
"365.945 870.584 CURVE SMOOTH",
"337.945 870.584 OFFCURVE",
"312.36 847.533 OFFCURVE",
"306.977 820.474 CURVE SMOOTH",
"301.595 793.415 OFFCURVE",
"318.409 772.368 OFFCURVE",
"346.409 772.368 CURVE SMOOTH"
);
},
{
closed = 1;
nodes = (
"530.409 772.368 OFFCURVE",
"557.595 793.415 OFFCURVE",
"562.977 820.474 CURVE SMOOTH",
"568.36 847.533 OFFCURVE",
"549.945 870.584 OFFCURVE",
"523.945 870.584 CURVE SMOOTH",
"495.945 870.584 OFFCURVE",
"470.36 847.533 OFFCURVE",
"464.977 820.474 CURVE SMOOTH",
"459.595 793.415 OFFCURVE",
"476.409 772.368 OFFCURVE",
"504.409 772.368 CURVE SMOOTH"
);
}
);
width = 619.00375;
}
);
leftMetricsKey = H;
rightMetricsKey = E;
unicode = 00CB;
},
{
glyphname = Edotaccent;
lastChange = "2021-09-01 17:33:40 +0000";
layers = (
{
anchors = (
{
name = bottom;
position = "{257.272, 0}";
},
{
name = ogonek;
position = "{454.272, 0}";
},
{
name = top;
position = "{406.71, 701}";
}
);
hints = (
{
place = "{-3.648, 25.352}";
type = Stem;
},
{
horizontal = 1;
place = "{-88.648, 4.352}";
type = Stem;
},
{
horizontal = 1;
place = "{219.352, 4.352}";
type = Stem;
},
{
horizontal = 1;
place = "{518.352, 4.352}";
type = Stem;
},
{
place = "{172.602, 32.192}";
type = Stem;
},
{
horizontal = 1;
place = "{681.835, 32.192}";
type = Stem;
}
);
layerId = "0CF0EA28-C756-4A9E-9D7C-CFEF350B4CFE";
paths = (
{
closed = 1;
nodes = (
"643.511 700 LINE",
"169.511 700 LINE",
"30.272 0 LINE",
"504.272 0 LINE",
"523.169 95 LINE",
"163.169 95 LINE",
"205.339 307 LINE",
"475.339 307 LINE",
"494.235 402 LINE",
"224.235 402 LINE",
"264.614 605 LINE",
"624.614 605 LINE"
);
},
{
closed = 1;
nodes = (
"453.531 770.483 OFFCURVE",
"485.739 796.665 OFFCURVE",
"492.549 830.903 CURVE SMOOTH",
"499.159 864.134 OFFCURVE",
"477.568 891.323 OFFCURVE",
"444.568 891.323 CURVE SMOOTH",
"410.568 891.323 OFFCURVE",
"379.159 864.134 OFFCURVE",
"372.549 830.903 CURVE SMOOTH",
"365.739 796.665 OFFCURVE",
"386.531 770.483 OFFCURVE",
"420.531 770.483 CURVE SMOOTH"
);
}
);
width = 614;
},
{
anchors = (
{
name = bottom;
position = "{238.268, 0}";
},
{
name = ogonek;
position = "{434.268, 0}";
},
{
name = top;
position = "{404.518, 690}";
}
);
hints = (
{
place = "{34.638, -59.362}";
type = Stem;
},
{
horizontal = 1;
place = "{603.638, -20}";
target = down;
type = TopGhost;
},
{
horizontal = 1;
place = "{-81.362, 21}";
target = up;
type = BottomGhost;
},
{
place = "{209.638, -20.71}";
type = Stem;
},
{
horizontal = 1;
place = "{674.064, -20.71}";
type = Stem;
}
);
layerId = "6E968933-CD79-43C6-9231-80D77C940F4D";
paths = (
{
closed = 1;
nodes = (
"623.507 700 LINE",
"189.507 700 LINE",
"50.268 0 LINE",
"484.268 0 LINE",
"488.246 20 LINE",
"76.246 20 LINE",
"141.888 350 LINE",
"463.888 350 LINE",
"467.866 370 LINE",
"145.866 370 LINE",
"207.529 680 LINE",
"619.529 680 LINE"
);
},
{
closed = 1;
nodes = (
"438.927 757.415 OFFCURVE",
"455.696 771.335 OFFCURVE",
"458.861 787.244 CURVE SMOOTH",
"462.223 804.147 OFFCURVE",
"450.992 818.067 OFFCURVE",
"433.992 818.067 CURVE SMOOTH",
"417.992 818.067 OFFCURVE",
"401.223 804.147 OFFCURVE",
"397.861 787.244 CURVE SMOOTH",
"394.696 771.335 OFFCURVE",
"405.927 757.415 OFFCURVE",
"421.927 757.415 CURVE SMOOTH"
);
}
);
width = 614;
},
{
anchors = (
{
name = bottom;
position = "{258.474, 1}";
},
{
name = ogonek;
position = "{480.474, 1}";
},
{
name = top;
position = "{401.911, 702}";
}
);
hints = (
{
place = "{-37.665, 85.335}";
type = Stem;
},
{
horizontal = 1;
place = "{-90.665, 50.335}";
type = Stem;
},
{
horizontal = 1;
place = "{195.335, 50.335}";
type = Stem;
},
{
horizontal = 1;
place = "{468.335, 50.335}";
type = Stem;
},
{
place = "{143.335, 58.48}";
type = Stem;
},
{
horizontal = 1;
place = "{671.801, 58.48}";
type = Stem;
}
);
layerId = "BAF31694-0472-4296-B0EA-1654553C45D2";
paths = (
{
closed = 1;
nodes = (
"669.513 700 LINE",
"144.513 700 LINE",
"5.275 0 LINE",
"530.266 0 LINE",
"559.316 146 LINE",
"208.316 146 LINE",
"236.362 287 LINE",
"485.362 287 LINE",
"512.415 423 LINE",
"263.415 423 LINE",
"289.472 554 LINE",
"640.472 554 LINE"
);
},
{
closed = 1;
nodes = (
"454.189 762.466 OFFCURVE",
"493.517 794.284 OFFCURVE",
"501.824 836.044 CURVE SMOOTH",
"510.329 878.799 OFFCURVE",
"483.855 911.611 OFFCURVE",
"440.855 911.611 CURVE SMOOTH",
"398.855 911.611 OFFCURVE",
"360.329 878.799 OFFCURVE",
"351.824 836.044 CURVE SMOOTH",
"343.517 794.284 OFFCURVE",
"369.189 762.466 OFFCURVE",
"411.189 762.466 CURVE SMOOTH"
);
}
);
width = 614.99962;
},
{
anchors = (
{
name = bottom;
position = "{252.271, 0}";
},
{
name = ogonek;
position = "{449.271, 0}";
},
{
name = top;
position = "{407.913, 697}";
}
);
hints = (
{
place = "{337.211, -19.789}";
type = Stem;
},
{
horizontal = 1;
place = "{171.211, -20}";
target = down;
type = TopGhost;
},
{
horizontal = 1;
place = "{-85.789, 21}";
target = up;
type = BottomGhost;
},
{
place = "{186.211, 12.426}";
type = Stem;
},
{
horizontal = 1;
place = "{679.581, 12.426}";
type = Stem;
}
);
layerId = "9F107B1E-3A61-4335-981B-27DD48125C7E";
paths = (
{
closed = 1;
nodes = (
"638.509 700 LINE",
"179.509 700 LINE",
"40.271 0 LINE",
"499.271 0 LINE",
"513.195 70 LINE",
"134.195 70 LINE",
"184.122 321 LINE",
"473.122 321 LINE",
"487.045 391 LINE",
"198.045 391 LINE",
"245.585 630 LINE",
"624.585 630 LINE"
);
},
{
closed = 1;
nodes = (
"450.813 764.368 OFFCURVE",
"476.999 785.415 OFFCURVE",
"482.382 812.474 CURVE SMOOTH",
"487.764 839.533 OFFCURVE",
"470.349 862.584 OFFCURVE",
"443.349 862.584 CURVE SMOOTH",
"415.349 862.584 OFFCURVE",
"389.764 839.533 OFFCURVE",
"384.382 812.474 CURVE SMOOTH",
"378.999 785.415 OFFCURVE",
"395.813 764.368 OFFCURVE",
"423.813 764.368 CURVE SMOOTH"
);
}
);
width = 619.00375;
}
);
leftMetricsKey = H;
rightMetricsKey = E;
unicode = 0116;
},
{
glyphname = Egrave;
lastChange = "2021-09-01 17:33:40 +0000";
layers = (
{
anchors = (
{
name = bottom;
position = "{257.274, 0}";
},
{
name = ogonek;
position = "{454.274, 0}";
},
{
name = top;
position = "{406.712, 701}";
}
);
hints = (
{
place = "{-9.156, 19.844}";
type = Stem;
},
{
horizontal = 1;
place = "{-94.156, -1.156}";
type = Stem;
},
{
horizontal = 1;
place = "{213.844, -1.156}";
type = Stem;
},
{
horizontal = 1;
place = "{512.844, -1.156}";
type = Stem;
}
);
layerId = "0CF0EA28-C756-4A9E-9D7C-CFEF350B4CFE";
paths = (
{
closed = 1;
nodes = (
"643.513 700 LINE",
"169.513 700 LINE",
"30.274 0 LINE",
"504.274 0 LINE",
"523.171 95 LINE",
"163.171 95 LINE",
"205.34 307 LINE",
"475.34 307 LINE",
"494.237 402 LINE",
"224.237 402 LINE",
"264.616 605 LINE",
"624.616 605 LINE"
);
},
{
closed = 1;
nodes = (
"318.557 851.043 LINE",
"517.523 740.273 LINE",
"534.349 824.861 LINE",
"337.586 946.708 LINE"
);
}
);
width = 614;
},
{
anchors = (
{
name = bottom;
position = "{238.275, 0}";
},
{
name = ogonek;
position = "{434.275, 0}";
},
{
name = top;
position = "{404.525, 690}";
}
);
hints = (
{
place = "{27.605, -66.395}";
type = Stem;
},
{
horizontal = 1;
place = "{596.605, -20}";
target = down;
type = TopGhost;
},
{
horizontal = 1;
place = "{-88.395, 21}";
target = up;
type = BottomGhost;
}
);
layerId = "6E968933-CD79-43C6-9231-80D77C940F4D";
paths = (
{
closed = 1;
nodes = (
"623.514 700 LINE",
"189.514 700 LINE",
"50.275 0 LINE",
"484.275 0 LINE",
"488.253 20 LINE",
"76.253 20 LINE",
"141.894 350 LINE",
"463.894 350 LINE",
"467.873 370 LINE",
"145.873 370 LINE",
"207.536 680 LINE",
"619.536 680 LINE"
);
},
{
closed = 1;
nodes = (
"336.12 863.924 LINE",
"497.409 734.665 LINE",
"501.563 755.546 LINE",
"341.065 888.782 LINE"
);
}
);
width = 614;
},
{
anchors = (
{
name = bottom;
position = "{258.47, 1}";
},
{
name = ogonek;
position = "{480.47, 1}";
},
{
name = top;
position = "{401.908, 702}";
}
);
hints = (
{
place = "{-43.599, 79.401}";
type = Stem;
},
{
horizontal = 1;
place = "{-96.599, 44.401}";
type = Stem;
},
{
horizontal = 1;
place = "{189.401, 44.401}";
type = Stem;
},
{
horizontal = 1;
place = "{462.401, 44.401}";
type = Stem;
}
);
layerId = "BAF31694-0472-4296-B0EA-1654553C45D2";
paths = (
{
closed = 1;
nodes = (
"669.51 700 LINE",
"144.51 700 LINE",
"5.271 0 LINE",
"530.262 0 LINE",
"559.312 146 LINE",
"208.312 146 LINE",
"236.359 287 LINE",
"485.359 287 LINE",
"512.411 423 LINE",
"263.411 423 LINE",
"289.469 554 LINE",
"640.469 554 LINE"
);
},
{
closed = 1;
nodes = (
"301.821 836.044 LINE",
"525.241 737.608 LINE",
"549.172 857.919 LINE",
"328.719 971.269 LINE"
);
}
);
width = 614.99962;
},
{
anchors = (
{
name = bottom;
position = "{252.273, 0}";
},
{
name = ogonek;
position = "{449.273, 0}";
},
{
name = top;
position = "{407.915, 697}";
}
);
hints = (
{
place = "{330.933, -26.067}";
type = Stem;
},
{
horizontal = 1;
place = "{164.933, -20}";
target = down;
type = TopGhost;
},
{
horizontal = 1;
place = "{-92.067, 21}";
target = up;
type = BottomGhost;
}
);
layerId = "9F107B1E-3A61-4335-981B-27DD48125C7E";
paths = (
{
closed = 1;
nodes = (
"638.512 700 LINE",
"179.512 700 LINE",
"40.273 0 LINE",
"499.273 0 LINE",
"513.197 70 LINE",
"134.197 70 LINE",
"184.124 321 LINE",
"473.124 321 LINE",
"487.048 391 LINE",
"198.048 391 LINE",
"245.588 630 LINE",
"624.588 630 LINE"
);
},
{
closed = 1;
nodes = (
"328.152 856.553 LINE",
"513.027 740.298 LINE",
"524.988 800.43 LINE",
"341.907 925.705 LINE"
);
}
);
width = 619.00375;
}
);
leftMetricsKey = H;
rightMetricsKey = E;
unicode = 00C8;
},
{
glyphname = Emacron;
lastChange = "2021-09-01 17:33:40 +0000";
layers = (
{
anchors = (
{
name = bottom;
position = "{257.275, 0}";
},
{
name = ogonek;
position = "{454.275, 0}";
},
{
name = top;
position = "{406.713, 701}";
}
);
hints = (
{
place = "{-1.645, 27.355}";
type = Stem;
},
{
horizontal = 1;
place = "{-86.645, 6.355}";
type = Stem;
},
{
horizontal = 1;
place = "{221.355, 6.355}";
type = Stem;
},
{
horizontal = 1;
place = "{520.355, 6.355}";
type = Stem;
},
{
horizontal = 1;
place = "{698.943, -1.05}";
type = Stem;
}
);
layerId = "0CF0EA28-C756-4A9E-9D7C-CFEF350B4CFE";
paths = (
{
closed = 1;
nodes = (
"643.514 700 LINE",
"169.514 700 LINE",
"30.275 0 LINE",
"504.275 0 LINE",
"523.172 95 LINE",
"163.172 95 LINE",
"205.342 307 LINE",
"475.342 307 LINE",
"494.238 402 LINE",
"224.238 402 LINE",
"264.617 605 LINE",
"624.617 605 LINE"
);
},
{
closed = 1;
nodes = (
"240.539 785.588 LINE",
"606.539 785.588 LINE",
"623.565 871.183 LINE",
"257.565 871.183 LINE"
);
}
);
width = 614;
},
{
anchors = (
{
name = bottom;
position = "{238.276, 0}";
},
{
name = ogonek;
position = "{434.276, 0}";
},
{
name = top;
position = "{404.526, 690}";
}
);
hints = (
{
place = "{33.736, -60.264}";
type = Stem;
},
{
horizontal = 1;
place = "{602.736, -20}";
target = down;
type = TopGhost;
},
{
horizontal = 1;
place = "{-82.264, 21}";
target = up;
type = BottomGhost;
},
{
horizontal = 1;
place = "{712.06, 21}";
target = up;
type = BottomGhost;
},
{
horizontal = 1;
place = "{729.957, -20}";
target = down;
type = TopGhost;
}
);
layerId = "6E968933-CD79-43C6-9231-80D77C940F4D";
paths = (
{
closed = 1;
nodes = (
"623.515 700 LINE",
"189.515 700 LINE",
"50.276 0 LINE",
"484.276 0 LINE",
"488.255 20 LINE",
"76.255 20 LINE",
"141.896 350 LINE",
"463.896 350 LINE",
"467.874 370 LINE",
"145.874 370 LINE",
"207.537 680 LINE",
"619.537 680 LINE"
);
},
{
closed = 1;
nodes = (
"276.848 807.249 LINE",
"586.848 807.249 LINE",
"590.804 827.135 LINE",
"280.804 827.135 LINE"
);
}
);
width = 614;
},
{
anchors = (
{
name = bottom;
position = "{258.469, 1}";
},
{
name = ogonek;
position = "{480.469, 1}";
},
{
name = top;
position = "{401.907, 702}";
}
);
hints = (
{
place = "{-35.49, 87.51}";
type = Stem;
},
{
horizontal = 1;
place = "{-88.49, 52.51}";
type = Stem;
},
{
horizontal = 1;
place = "{197.51, 52.51}";
type = Stem;
},
{
horizontal = 1;
place = "{470.51, 52.51}";
type = Stem;
},
{
horizontal = 1;
place = "{681.931, 31.821}";
type = Stem;
}
);
layerId = "BAF31694-0472-4296-B0EA-1654553C45D2";
paths = (
{
closed = 1;
nodes = (
"669.509 700 LINE",
"144.509 700 LINE",
"5.27 0 LINE",
"530.261 0 LINE",
"559.311 146 LINE",
"208.311 146 LINE",
"236.358 287 LINE",
"485.358 287 LINE",
"512.41 423 LINE",
"263.41 423 LINE",
"289.468 554 LINE",
"640.468 554 LINE"
);
},
{
closed = 1;
nodes = (
"212.766 770.42 LINE",
"615.766 770.42 LINE",
"639.5 889.736 LINE",
"236.5 889.736 LINE"
);
}
);
width = 614.99962;
},
{
anchors = (
{
name = bottom;
position = "{252.27, 0}";
},
{
name = ogonek;
position = "{449.27, 0}";
},
{
name = top;
position = "{407.912, 697}";
}
);
hints = (
{
place = "{338.01, -18.99}";
type = Stem;
},
{
horizontal = 1;
place = "{172.01, -20}";
target = down;
type = TopGhost;
},
{
horizontal = 1;
place = "{-84.99, 21}";
target = up;
type = BottomGhost;
},
{
horizontal = 1;
place = "{306.542, 21}";
target = up;
type = BottomGhost;
},
{
horizontal = 1;
place = "{313.558, -20}";
target = down;
type = TopGhost;
}
);
layerId = "9F107B1E-3A61-4335-981B-27DD48125C7E";
paths = (
{
closed = 1;
nodes = (
"638.508 700 LINE",
"179.508 700 LINE",
"40.27 0 LINE",
"499.27 0 LINE",
"513.194 70 LINE",
"134.194 70 LINE",
"184.121 321 LINE",
"473.121 321 LINE",
"487.045 391 LINE",
"198.045 391 LINE",
"245.585 630 LINE",
"624.585 630 LINE"
);
},
{
closed = 1;
nodes = (
"257.789 794.417 LINE",
"602.789 794.417 LINE",
"614.75 854.549 LINE",
"269.75 854.549 LINE"
);
}
);
width = 618.99375;
}
);
leftMetricsKey = H;
rightMetricsKey = E;
unicode = 0112;
},
{
glyphname = Eogonek;
lastChange = "2021-09-01 17:33:40 +0000";
layers = (
{
anchors = (
{
name = bottom;
position = "{257.273, 0}";
},
{
name = ogonek;
position = "{454.273, 0}";
},
{
name = top;
position = "{406.71, 701}";
}
);
hints = (
{
place = "{36.513, 65.513}";
type = Stem;
},
{
horizontal = 1;
place = "{-48.487, 44.513}";
type = Stem;
},
{
horizontal = 1;
place = "{259.513, 44.513}";
type = Stem;
},
{
horizontal = 1;
place = "{558.513, 44.513}";
type = Stem;
},
{
place = "{252.513, 45.164}";
type = Stem;
},
{
place = "{252.513, 167.011}";
type = Stem;
},
{
horizontal = 1;
place = "{-260.964, 26.031}";
type = Stem;
}
);
layerId = "0CF0EA28-C756-4A9E-9D7C-CFEF350B4CFE";
paths = (
{
closed = 1;
nodes = (
"643.511 700 LINE",
"169.511 700 LINE",
"30.273 0 LINE",
"504.273 0 LINE",
"523.169 95 LINE",
"163.169 95 LINE",
"205.339 307 LINE",
"475.339 307 LINE",
"494.236 402 LINE",
"224.236 402 LINE",
"264.615 605 LINE",
"624.615 605 LINE"
);
},
{
closed = 1;
nodes = (
"381.835 39.273 LINE SMOOTH",
"279.222 -4.028 OFFCURVE",
"236.607 -52.364 OFFCURVE",
"226.391 -103.721 CURVE SMOOTH",
"210.367 -184.281 OFFCURVE",
"274.759 -212.477 OFFCURVE",
"337.759 -212.477 CURVE SMOOTH",
"366.759 -212.477 OFFCURVE",
"396.96 -206.435 OFFCURVE",
"421.763 -197.372 CURVE",
"436.385 -123.861 LINE",
"411.583 -132.924 OFFCURVE",
"386.581 -137.959 OFFCURVE",
"367.581 -137.959 CURVE SMOOTH",
"333.581 -137.959 OFFCURVE",
"316.187 -119.833 OFFCURVE",
"321.795 -91.637 CURVE SMOOTH",
"326.602 -67.469 OFFCURVE",
"344.608 -47.329 OFFCURVE",
"392.015 -25.175 CURVE SMOOTH",
"446.023 0 LINE",
"427.64 58.406 LINE"
);
}
);
width = 614;
},
{
anchors = (
{
name = bottom;
position = "{238.27, 0}";
},
{
name = ogonek;
position = "{434.27, 0}";
},
{
name = top;
position = "{404.519, 690}";
}
);
hints = (
{
place = "{65.17, -28.83}";
type = Stem;
},
{
horizontal = 1;
place = "{634.17, -20}";
target = down;
type = TopGhost;
},
{
horizontal = 1;
place = "{-50.83, 21}";
target = up;
type = BottomGhost;
},
{
place = "{216.17, -29.95}";
type = Stem;
},
{
horizontal = 1;
place = "{-235.77, 21}";
target = up;
type = BottomGhost;
}
);
layerId = "6E968933-CD79-43C6-9231-80D77C940F4D";
paths = (
{
closed = 1;
nodes = (
"623.508 700 LINE",
"189.508 700 LINE",
"50.27 0 LINE",
"484.27 0 LINE",
"488.248 20 LINE",
"76.248 20 LINE",
"141.889 350 LINE",
"463.889 350 LINE",
"467.867 370 LINE",
"145.867 370 LINE",
"207.53 680 LINE",
"619.53 680 LINE"
);
},
{
closed = 1;
nodes = (
"306.303 -14.915 LINE SMOOTH",
"237.765 -42.755 OFFCURVE",
"207.041 -76.561 OFFCURVE",
"199.327 -115.339 CURVE SMOOTH",
"189.241 -166.048 OFFCURVE",
"223.692 -188.917 OFFCURVE",
"274.692 -188.917 CURVE SMOOTH",
"294.692 -188.917 OFFCURVE",
"317.483 -184.94 OFFCURVE",
"340.065 -176.985 CURVE",
"344.218 -156.105 LINE",
"321.636 -164.059 OFFCURVE",
"298.647 -169.031 OFFCURVE",
"278.647 -169.031 CURVE SMOOTH",
"239.647 -169.031 OFFCURVE",
"213.01 -152.128 OFFCURVE",
"220.723 -113.35 CURVE SMOOTH",
"226.261 -85.51 OFFCURVE",
"249.996 -56.675 OFFCURVE",
"306.743 -32.812 CURVE SMOOTH",
"384.27 0 LINE",
"380.434 15.909 LINE"
);
}
);
width = 614;
},
{
anchors = (
{
name = bottom;
position = "{258.468, 1}";
},
{
name = ogonek;
position = "{480.468, 1}";
},
{
name = top;
position = "{401.906, 702}";
}
);
hints = (
{
place = "{4.839, 127.839}";
type = Stem;
},
{
horizontal = 1;
place = "{-48.161, 92.839}";
type = Stem;
},
{
horizontal = 1;
place = "{237.839, 92.839}";
type = Stem;
},
{
horizontal = 1;
place = "{510.839, 92.839}";
type = Stem;
},
{
place = "{234.839, -9.383}";
type = Stem;
},
{
place = "{236.839, 130.813}";
type = Stem;
},
{
horizontal = 1;
place = "{-263.918, 49.28}";
type = Stem;
}
);
layerId = "BAF31694-0472-4296-B0EA-1654553C45D2";
paths = (
{
closed = 1;
nodes = (
"669.508 700 LINE",
"144.508 700 LINE",
"5.269 0 LINE",
"530.26 0 LINE",
"559.31 146 LINE",
"208.31 146 LINE",
"236.357 287 LINE",
"485.357 287 LINE",
"512.409 423 LINE",
"263.409 423 LINE",
"289.467 554 LINE",
"640.467 554 LINE"
);
},
{
closed = 1;
nodes = (
"414.98 62.647 LINE SMOOTH",
"274.3 8.954 OFFCURVE",
"228.214 -41.755 OFFCURVE",
"216.347 -101.413 CURVE SMOOTH",
"201.118 -177.974 OFFCURVE",
"257.602 -215.757 OFFCURVE",
"342.602 -215.757 CURVE SMOOTH",
"379.602 -215.757 OFFCURVE",
"414.789 -209.792 OFFCURVE",
"445.767 -199.849 CURVE",
"464.951 -103.401 LINE",
"433.973 -113.344 OFFCURVE",
"405.985 -118.316 OFFCURVE",
"384.985 -118.316 CURVE SMOOTH",
"357.985 -118.316 OFFCURVE",
"344.556 -105.39 OFFCURVE",
"348.313 -86.498 CURVE SMOOTH",
"352.665 -64.624 OFFCURVE",
"374.225 -46.726 OFFCURVE",
"429.169 -21.869 CURVE SMOOTH",
"478.718 1 LINE",
"457.342 79.55 LINE"
);
}
);
width = 614.99962;
},
{
anchors = (
{
name = bottom;
position = "{252.275, 0}";
},
{
name = ogonek;
position = "{449.275, 0}";
},
{
name = top;
position = "{407.917, 697}";
}
);
hints = (
{
place = "{373.615, 16.615}";
type = Stem;
},
{
horizontal = 1;
place = "{207.615, -20}";
target = down;
type = TopGhost;
},
{
horizontal = 1;
place = "{-49.385, 21}";
target = up;
type = BottomGhost;
},
{
place = "{99.615, 4.733}";
type = Stem;
},
{
horizontal = 1;
place = "{-119.539, 21}";
target = up;
type = BottomGhost;
}
);
layerId = "9F107B1E-3A61-4335-981B-27DD48125C7E";
paths = (
{
closed = 1;
nodes = (
"638.513 700 LINE",
"179.513 700 LINE",
"40.275 0 LINE",
"499.275 0 LINE",
"513.199 70 LINE",
"134.199 70 LINE",
"184.126 321 LINE",
"473.126 321 LINE",
"487.049 391 LINE",
"198.049 391 LINE",
"245.589 630 LINE",
"624.589 630 LINE"
);
},
{
closed = 1;
nodes = (
"356.562 19.042 LINE SMOOTH",
"266.987 -19.042 OFFCURVE",
"228.614 -61.134 OFFCURVE",
"219.245 -108.238 CURVE SMOOTH",
"205.49 -177.389 OFFCURVE",
"258.307 -203.447 OFFCURVE",
"317.307 -203.447 CURVE SMOOTH",
"342.307 -203.447 OFFCURVE",
"370.303 -198.436 OFFCURVE",
"394.098 -189.416 CURVE",
"404.663 -136.299 LINE",
"381.068 -144.317 OFFCURVE",
"357.072 -149.328 OFFCURVE",
"337.072 -149.328 CURVE SMOOTH",
"301.072 -149.328 OFFCURVE",
"280.46 -132.29 OFFCURVE",
"286.84 -100.22 CURVE SMOOTH",
"292.023 -74.163 OFFCURVE",
"311.608 -51.112 OFFCURVE",
"363.193 -28.062 CURVE SMOOTH",
"425.775 0 LINE",
"413.147 42.092 LINE"
);
}
);
width = 619.00375;
}
);
leftMetricsKey = H;
rightMetricsKey = E;
unicode = 0118;
},
{
glyphname = Etilde;
lastChange = "2021-09-01 17:33:40 +0000";
layers = (
{
anchors = (
{
name = bottom;
position = "{257.275, 0}";
},
{
name = ogonek;
position = "{454.275, 0}";
},
{
name = top;
position = "{406.712, 701}";
}
);
hints = (
{
place = "{-2.145, 26.855}";
type = Stem;
},
{
horizontal = 1;
place = "{-87.145, 5.855}";
type = Stem;
},
{
horizontal = 1;
place = "{220.855, 5.855}";
type = Stem;
},
{
horizontal = 1;
place = "{519.855, 5.855}";
type = Stem;
},
{
horizontal = 1;
place = "{669.24, -11.62}";
type = Stem;
},
{
horizontal = 1;
place = "{671.254, 30.674}";
type = Stem;
},
{
horizontal = 1;
place = "{714.555, -12.627}";
type = Stem;
},
{
horizontal = 1;
place = "{669.24, 30.674}";
type = Stem;
}
);
layerId = "0CF0EA28-C756-4A9E-9D7C-CFEF350B4CFE";
paths = (
{
closed = 1;
nodes = (
"643.513 700 LINE",
"169.513 700 LINE",
"30.275 0 LINE",
"504.275 0 LINE",
"523.171 95 LINE",
"163.171 95 LINE",
"205.341 307 LINE",
"475.341 307 LINE",
"494.237 402 LINE",
"224.237 402 LINE",
"264.617 605 LINE",
"624.617 605 LINE"
);
},
{
closed = 1;
nodes = (
"319.13 758.399 LINE",
"328.938 787.602 OFFCURVE",
"348.743 801.7 OFFCURVE",
"370.743 801.7 CURVE SMOOTH",
"410.743 801.7 OFFCURVE",
"423.729 756.385 OFFCURVE",
"477.729 756.385 CURVE SMOOTH",
"535.729 756.385 OFFCURVE",
"587.341 794.651 OFFCURVE",
"614.165 874.204 CURVE",
"550.165 874.204 LINE",
"540.356 845.001 OFFCURVE",
"520.752 831.91 OFFCURVE",
"498.752 831.91 CURVE SMOOTH",
"458.752 831.91 OFFCURVE",
"445.565 876.218 OFFCURVE",
"391.565 876.218 CURVE SMOOTH",
"333.565 876.218 OFFCURVE",
"281.954 837.952 OFFCURVE",
"255.13 758.399 CURVE"
);
}
);
width = 614;
},
{
anchors = (
{
name = bottom;
position = "{238.268, 0}";
},
{
name = ogonek;
position = "{434.268, 0}";
},
{
name = top;
position = "{404.518, 690}";
}
);
hints = (
{
place = "{34.428, -59.572}";
type = Stem;
},
{
horizontal = 1;
place = "{603.428, -20}";
target = down;
type = TopGhost;
},
{
horizontal = 1;
place = "{-81.572, 21}";
target = up;
type = BottomGhost;
},
{
horizontal = 1;
place = "{657.071, 21}";
target = up;
type = BottomGhost;
},
{
horizontal = 1;
place = "{723.689, -20}";
target = down;
type = TopGhost;
}
);
layerId = "6E968933-CD79-43C6-9231-80D77C940F4D";
paths = (
{
closed = 1;
nodes = (
"623.507 700 LINE",
"189.507 700 LINE",
"50.268 0 LINE",
"484.268 0 LINE",
"488.247 20 LINE",
"76.247 20 LINE",
"141.888 350 LINE",
"463.888 350 LINE",
"467.866 370 LINE",
"145.866 370 LINE",
"207.529 680 LINE",
"619.529 680 LINE"
);
},
{
closed = 1;
nodes = (
"323.16 753.557 LINE",
"333.687 786.369 OFFCURVE",
"351.654 801.284 OFFCURVE",
"374.654 801.284 CURVE SMOOTH",
"416.654 801.284 OFFCURVE",
"420.765 751.569 OFFCURVE",
"472.765 751.569 CURVE SMOOTH",
"506.765 751.569 OFFCURVE",
"539.5 780.403 OFFCURVE",
"548.818 817.192 CURVE",
"529.818 817.192 LINE",
"519.687 786.369 OFFCURVE",
"497.523 770.46 OFFCURVE",
"476.523 770.46 CURVE SMOOTH",
"429.523 770.46 OFFCURVE",
"428.412 820.175 OFFCURVE",
"378.412 820.175 CURVE SMOOTH",
"343.412 820.175 OFFCURVE",
"317.269 794.323 OFFCURVE",
"304.16 753.557 CURVE"
);
}
);
width = 614;
},
{
anchors = (
{
name = bottom;
position = "{258.468, 1}";
},
{
name = ogonek;
position = "{480.468, 1}";
},
{
name = top;
position = "{401.906, 702}";
}
);
hints = (
{
place = "{-36.281, 86.719}";
type = Stem;
},
{
horizontal = 1;
place = "{-89.281, 51.719}";
type = Stem;
},
{
horizontal = 1;
place = "{196.719, 51.719}";
type = Stem;
},
{
horizontal = 1;
place = "{469.719, 51.719}";
type = Stem;
},
{
horizontal = 1;
place = "{312.254, -57.463}";
type = Stem;
},
{
horizontal = 1;
place = "{659.265, 33.018}";
type = Stem;
},
{
horizontal = 1;
place = "{703.014, 16.115}";
type = Stem;
},
{
horizontal = 1;
place = "{657.276, 60.858}";
type = Stem;
}
);
layerId = "BAF31694-0472-4296-B0EA-1654553C45D2";
paths = (
{
closed = 1;
nodes = (
"669.508 700 LINE",
"144.508 700 LINE",
"5.269 0 LINE",
"530.26 0 LINE",
"559.31 146 LINE",
"208.31 146 LINE",
"236.357 287 LINE",
"485.357 287 LINE",
"512.409 423 LINE",
"263.409 423 LINE",
"289.467 554 LINE",
"640.467 554 LINE"
);
},
{
closed = 1;
nodes = (
"295.216 747.552 LINE",
"306.347 778.375 OFFCURVE",
"325.116 792.295 OFFCURVE",
"348.116 792.295 CURVE SMOOTH",
"388.116 792.295 OFFCURVE",
"411.216 747.552 OFFCURVE",
"472.216 747.552 CURVE SMOOTH",
"543.216 747.552 OFFCURVE",
"603.721 790.306 OFFCURVE",
"641.883 896.697 CURVE",
"551.883 896.697 LINE",
"541.95 866.867 OFFCURVE",
"522.983 851.953 OFFCURVE",
"499.983 851.953 CURVE SMOOTH",
"459.983 851.953 OFFCURVE",
"437.081 897.691 OFFCURVE",
"377.081 897.691 CURVE SMOOTH",
"305.081 897.691 OFFCURVE",
"244.379 853.942 OFFCURVE",
"206.216 747.552 CURVE"
);
}
);
width = 614.99962;
},
{
anchors = (
{
name = bottom;
position = "{252.27, 0}";
},
{
name = ogonek;
position = "{449.27, 0}";
},
{
name = top;
position = "{407.912, 697}";
}
);
hints = (
{
place = "{337.91, -19.09}";
type = Stem;
},
{
horizontal = 1;
place = "{171.91, -20}";
target = down;
type = TopGhost;
},
{
horizontal = 1;
place = "{-85.09, 21}";
target = up;
type = BottomGhost;
},
{
horizontal = 1;
place = "{285.396, 21}";
target = up;
type = BottomGhost;
},
{
horizontal = 1;
place = "{310.451, -20}";
target = down;
type = TopGhost;
}
);
layerId = "9F107B1E-3A61-4335-981B-27DD48125C7E";
paths = (
{
closed = 1;
nodes = (
"638.509 700 LINE",
"179.509 700 LINE",
"40.27 0 LINE",
"499.27 0 LINE",
"513.194 70 LINE",
"134.194 70 LINE",
"184.121 321 LINE",
"473.121 321 LINE",
"487.045 391 LINE",
"198.045 391 LINE",
"245.585 630 LINE",
"624.585 630 LINE"
);
},
{
closed = 1;
nodes = (
"323.812 759.34 LINE",
"333.793 789.406 OFFCURVE",
"352.185 801.432 OFFCURVE",
"375.185 801.432 CURVE SMOOTH",
"415.185 801.432 OFFCURVE",
"425.015 755.331 OFFCURVE",
"479.015 755.331 CURVE SMOOTH",
"528.015 755.331 OFFCURVE",
"571.394 787.401 OFFCURVE",
"591.953 850.54 CURVE",
"544.953 850.54 LINE",
"535.172 821.476 OFFCURVE",
"514.78 809.45 OFFCURVE",
"492.78 809.45 CURVE SMOOTH",
"450.78 809.45 OFFCURVE",
"441.95 855.551 OFFCURVE",
"388.95 855.551 CURVE SMOOTH",
"339.95 855.551 OFFCURVE",
"298.571 823.481 OFFCURVE",
"276.812 759.34 CURVE"
);
}
);
width = 618.99375;
}
);
leftMetricsKey = E;
rightMetricsKey = E;
unicode = 1EBC;
},
{
glyphname = F;
lastChange = "2021-09-01 17:33:40 +0000";
layers = (
{
hints = (
{
place = "{15.381, 44.381}";
type = Stem;
},
{
horizontal = 1;
place = "{236.381, 23.381}";
type = Stem;
},
{
horizontal = 1;
place = "{537.381, 23.381}";
type = Stem;
},
{
horizontal = 1;
place = "{-69.619, 21}";
target = up;
type = BottomGhost;
}
);
layerId = "0CF0EA28-C756-4A9E-9D7C-CFEF350B4CFE";
paths = (
{
closed = 1;
nodes = (
"30.271 0 LINE",
"144.271 0 LINE",
"205.337 307 LINE",
"475.337 307 LINE",
"494.233 402 LINE",
"224.233 402 LINE",
"264.613 605 LINE",
"624.613 605 LINE",
"643.509 700 LINE",
"169.509 700 LINE"
);
}
);
width = 593.96292;
},
{
hints = (
{
place = "{46.381, -47.619}";
type = Stem;
},
{
horizontal = 1;
place = "{615.381, -20}";
target = down;
type = TopGhost;
},
{
horizontal = 1;
place = "{-69.619, 21}";
target = up;
type = BottomGhost;
}
);
layerId = "6E968933-CD79-43C6-9231-80D77C940F4D";
paths = (
{
closed = 1;
nodes = (
"50.271 0 LINE",
"72.271 0 LINE",
"141.89 350 LINE",
"463.89 350 LINE",
"467.868 370 LINE",
"145.868 370 LINE",
"207.531 680 LINE",
"619.531 680 LINE",
"623.509 700 LINE",
"189.509 700 LINE"
);
}
);
width = 587.27942;
},
{
hints = (
{
place = "{-16.619, 106.381}";
type = Stem;
},
{
horizontal = 1;
place = "{211.381, 66.381}";
type = Stem;
},
{
horizontal = 1;
place = "{489.381, 71.381}";
type = Stem;
},
{
horizontal = 1;
place = "{-69.619, 21}";
target = up;
type = BottomGhost;
}
);
layerId = "BAF31694-0472-4296-B0EA-1654553C45D2";
paths = (
{
closed = 1;
nodes = (
"5.271 0 LINE",
"179.271 0 LINE",
"236.359 287 LINE",
"485.359 287 LINE",
"512.411 423 LINE",
"263.411 423 LINE",
"289.468 554 LINE",
"640.468 554 LINE",
"669.509 700 LINE",
"144.509 700 LINE"
);
}
);
width = 603.31071;
},
{
hints = (
{
place = "{353.381, -3.619}";
type = Stem;
},
{
horizontal = 1;
place = "{187.381, -20}";
target = down;
type = TopGhost;
},
{
horizontal = 1;
place = "{-69.619, 21}";
target = up;
type = BottomGhost;
}
);
layerId = "9F107B1E-3A61-4335-981B-27DD48125C7E";
paths = (
{
closed = 1;
nodes = (
"40.271 0 LINE",
"120.271 0 LINE",
"184.122 321 LINE",
"473.122 321 LINE",
"487.045 391 LINE",
"198.045 391 LINE",
"245.585 630 LINE",
"624.585 630 LINE",
"638.509 700 LINE",
"179.509 700 LINE"
);
}
);
width = 595.61961;
}
);
leftMetricsKey = H;
rightMetricsKey = "=E*0.666";
unicode = 0046;
},
{
glyphname = G;
lastChange = "2021-09-01 17:33:40 +0000";
layers = (
{
anchors = (
{
name = bottom;
position = "{339.271, 0}";
},
{
name = top;
position = "{478.708, 701}";
}
);
hints = (
{
place = "{-27.619, 47.381}";
type = Stem;
},
{
place = "{529.381, 52.381}";
type = Stem;
},
{
horizontal = 1;
place = "{-75.619, 33.381}";
type = Stem;
},
{
horizontal = 1;
place = "{222.381, 21.381}";
type = Stem;
},
{
horizontal = 1;
place = "{534.381, 34.381}";
type = Stem;
}
);
layerId = "0CF0EA28-C756-4A9E-9D7C-CFEF350B4CFE";
paths = (
{
closed = 1;
nodes = (
"762.705 520 LINE",
"732.773 641 OFFCURVE",
"618.902 707 OFFCURVE",
"485.902 707 CURVE SMOOTH",
"289.902 707 OFFCURVE",
"101.463 559 OFFCURVE",
"59.89 350 CURVE SMOOTH",
"18.118 140 OFFCURVE",
"147.878 -7 OFFCURVE",
"343.878 -7 CURVE SMOOTH",
"499.878 -7 OFFCURVE",
"643.974 89 OFFCURVE",
"716.838 214 CURVE",
"751.051 386 LINE",
"431.051 386 LINE",
"412.353 292 LINE",
"616.353 292 LINE",
"601.832 219 LINE",
"551.715 143 OFFCURVE",
"461.173 90 OFFCURVE",
"363.173 90 CURVE SMOOTH",
"225.173 90 OFFCURVE",
"145.257 196 OFFCURVE",
"175.89 350 CURVE SMOOTH",
"206.523 504 OFFCURVE",
"331.607 610 OFFCURVE",
"469.607 610 CURVE SMOOTH",
"558.282 610 OFFCURVE",
"623.875 573.242 OFFCURVE",
"655.345 483 CURVE"
);
}
);
width = 772;
},
{
anchors = (
{
name = bottom;
position = "{351.271, 0}";
},
{
name = top;
position = "{486.332, 679}";
}
);
hints = (
{
place = "{-5.619, -46.619}";
type = Stem;
},
{
horizontal = 1;
place = "{621.381, -20}";
target = down;
type = TopGhost;
},
{
horizontal = 1;
place = "{-77.619, 21}";
target = up;
type = BottomGhost;
}
);
layerId = "6E968933-CD79-43C6-9231-80D77C940F4D";
paths = (
{
closed = 1;
nodes = (
"741.517 509 LINE",
"714.387 629 OFFCURVE",
"625.902 707 OFFCURVE",
"477.902 707 CURVE SMOOTH",
"281.902 707 OFFCURVE",
"111.662 560 OFFCURVE",
"69.89 350 CURVE SMOOTH",
"28.118 140 OFFCURVE",
"139.878 -7 OFFCURVE",
"335.878 -7 CURVE SMOOTH",
"494.878 -7 OFFCURVE",
"637.372 91 OFFCURVE",
"707.01 240 CURVE",
"730.68 359 LINE",
"408.68 359 LINE",
"404.702 339 LINE",
"704.702 339 LINE",
"685.407 242 LINE",
"616.764 98 OFFCURVE",
"480.857 13 OFFCURVE",
"339.857 13 CURVE SMOOTH",
"164.857 13 OFFCURVE",
"50.317 141 OFFCURVE",
"91.89 350 CURVE SMOOTH",
"133.662 560 OFFCURVE",
"298.923 687 OFFCURVE",
"473.923 687 CURVE SMOOTH",
"613.923 687 OFFCURVE",
"700.408 609 OFFCURVE",
"722.125 502 CURVE"
);
}
);
width = 769.0006;
},
{
anchors = (
{
name = bottom;
position = "{325.97, 1}";
},
{
name = top;
position = "{465.407, 702}";
}
);
hints = (
{
place = "{-51.619, -19.619}";
type = Stem;
},
{
place = "{193.381, 111.381}";
type = Stem;
},
{
horizontal = 1;
place = "{-74.619, 86.381}";
type = Stem;
},
{
horizontal = 1;
place = "{197.381, 58.381}";
type = Stem;
},
{
horizontal = 1;
place = "{475.381, 92.381}";
type = Stem;
}
);
layerId = "BAF31694-0472-4296-B0EA-1654553C45D2";
paths = (
{
closed = 1;
nodes = (
"759.818 508 LINE",
"740.284 631 OFFCURVE",
"629.402 707 OFFCURVE",
"474.402 707 CURVE SMOOTH",
"263.402 707 OFFCURVE",
"88.963 559 OFFCURVE",
"47.39 350 CURVE SMOOTH",
"5.817 141 OFFCURVE",
"122.378 -7 OFFCURVE",
"334.378 -7 CURVE SMOOTH",
"505.378 -7 OFFCURVE",
"635.468 94 OFFCURVE",
"703.757 196 CURVE",
"744.535 401 LINE",
"416.535 401 LINE",
"389.482 265 LINE",
"557.482 265 LINE",
"551.714 236 LINE",
"507.376 179 OFFCURVE",
"447.817 141 OFFCURVE",
"376.817 141 CURVE SMOOTH",
"255.817 141 OFFCURVE",
"199.128 223 OFFCURVE",
"224.39 350 CURVE SMOOTH",
"247.862 468 OFFCURVE",
"342.963 559 OFFCURVE",
"450.963 559 CURVE SMOOTH",
"521.413 559 OFFCURVE",
"568.242 530.981 OFFCURVE",
"588.259 470 CURVE"
);
}
);
width = 747.50309;
},
{
anchors = (
{
name = bottom;
position = "{345.271, 0}";
},
{
name = top;
position = "{483.117, 693}";
}
);
hints = (
{
place = "{332.381, 4.381}";
type = Stem;
},
{
horizontal = 1;
place = "{189.381, -20}";
target = down;
type = TopGhost;
},
{
horizontal = 1;
place = "{-72.619, 21}";
target = up;
type = BottomGhost;
}
);
layerId = "9F107B1E-3A61-4335-981B-27DD48125C7E";
paths = (
{
closed = 1;
nodes = (
"757.909 516 LINE",
"728.978 637 OFFCURVE",
"622.902 707 OFFCURVE",
"484.902 707 CURVE SMOOTH",
"288.902 707 OFFCURVE",
"106.662 560 OFFCURVE",
"64.89 350 CURVE SMOOTH",
"23.118 140 OFFCURVE",
"146.878 -7 OFFCURVE",
"342.878 -7 CURVE SMOOTH",
"499.878 -7 OFFCURVE",
"644.173 90 OFFCURVE",
"715.827 224 CURVE",
"745.664 374 LINE",
"424.664 374 LINE",
"411.735 309 LINE",
"651.735 309 LINE",
"635.623 228 LINE",
"578.334 126 OFFCURVE",
"471.2 65 OFFCURVE",
"357.2 65 CURVE SMOOTH",
"205.2 65 OFFCURVE",
"111.279 176 OFFCURVE",
"145.89 350 CURVE SMOOTH",
"180.7 525 OFFCURVE",
"318.779 636 OFFCURVE",
"470.779 636 CURVE SMOOTH",
"573.779 636 OFFCURVE",
"653.188 590.513 OFFCURVE",
"682.738 490 CURVE"
);
}
);
width = 775.00073;
}
);
leftMetricsKey = O;
rightMetricsKey = "=O*1.2";
unicode = 0047;
},
{
glyphname = Gbreve;
lastChange = "2021-09-01 17:33:40 +0000";
layers = (
{
anchors = (
{
name = bottom;
position = "{339.276, 0}";
},
{
name = top;
position = "{478.713, 701}";
}
);
hints = (
{
place = "{-47.754, 27.246}";
type = Stem;
},
{
place = "{509.246, 32.246}";
type = Stem;
},
{
horizontal = 1;
place = "{-95.754, 13.246}";
type = Stem;
},
{
horizontal = 1;
place = "{202.246, 1.246}";
type = Stem;
},
{
horizontal = 1;
place = "{514.246, 14.246}";
type = Stem;
},
{
place = "{150.996, -24.299}";
type = Stem;
},
{
place = "{385.996, -23.292}";
type = Stem;
},
{
horizontal = 1;
place = "{657.568, -0.131}";
type = Stem;
},
{
horizontal = 1;
place = "{657.568, 72.373}";
type = Stem;
}
);
layerId = "0CF0EA28-C756-4A9E-9D7C-CFEF350B4CFE";
paths = (
{
closed = 1;
nodes = (
"762.71 520 LINE",
"732.779 641 OFFCURVE",
"618.907 707 OFFCURVE",
"485.907 707 CURVE SMOOTH",
"289.907 707 OFFCURVE",
"101.468 559 OFFCURVE",
"59.895 350 CURVE SMOOTH",
"18.124 140 OFFCURVE",
"147.883 -7 OFFCURVE",
"343.883 -7 CURVE SMOOTH",
"499.883 -7 OFFCURVE",
"643.979 89 OFFCURVE",
"716.843 214 CURVE",
"751.056 386 LINE",
"431.056 386 LINE",
"412.358 292 LINE",
"616.358 292 LINE",
"601.838 219 LINE",
"551.72 143 OFFCURVE",
"461.178 90 OFFCURVE",
"363.178 90 CURVE SMOOTH",
"225.178 90 OFFCURVE",
"145.263 196 OFFCURVE",
"175.895 350 CURVE SMOOTH",
"206.528 504 OFFCURVE",
"331.612 610 OFFCURVE",
"469.612 610 CURVE SMOOTH",
"558.287 610 OFFCURVE",
"623.88 573.242 OFFCURVE",
"655.351 483 CURVE"
);
},
{
closed = 1;
nodes = (
"671.177 909.449 LINE",
"605.177 909.449 LINE",
"596.163 864.134 OFFCURVE",
"570.755 836.945 OFFCURVE",
"505.755 836.945 CURVE SMOOTH",
"440.755 836.945 OFFCURVE",
"426.163 864.134 OFFCURVE",
"435.177 909.449 CURVE",
"370.177 909.449 LINE",
"365.97 888.302 LINE SMOOTH",
"349.345 804.721 OFFCURVE",
"393.927 747.322 OFFCURVE",
"487.927 747.322 CURVE SMOOTH",
"582.927 747.322 OFFCURVE",
"650.145 803.714 OFFCURVE",
"666.77 887.295 CURVE SMOOTH"
);
}
);
width = 772;
},
{
anchors = (
{
name = bottom;
position = "{351.269, 0}";
},
{
name = top;
position = "{486.33, 679}";
}
);
hints = (
{
place = "{-21.121, -62.121}";
type = Stem;
},
{
horizontal = 1;
place = "{605.879, -20}";
target = down;
type = TopGhost;
},
{
horizontal = 1;
place = "{-93.121, 21}";
target = up;
type = BottomGhost;
},
{
place = "{210.879, -64.241}";
type = Stem;
},
{
place = "{422.879, -62.252}";
type = Stem;
},
{
horizontal = 1;
place = "{656.442, 21}";
target = up;
type = BottomGhost;
},
{
horizontal = 1;
place = "{761.837, -20}";
target = down;
type = TopGhost;
}
);
layerId = "6E968933-CD79-43C6-9231-80D77C940F4D";
paths = (
{
closed = 1;
nodes = (
"741.515 509 LINE",
"714.385 629 OFFCURVE",
"625.9 707 OFFCURVE",
"477.9 707 CURVE SMOOTH",
"281.9 707 OFFCURVE",
"111.66 560 OFFCURVE",
"69.888 350 CURVE SMOOTH",
"28.116 140 OFFCURVE",
"139.876 -7 OFFCURVE",
"335.876 -7 CURVE SMOOTH",
"494.876 -7 OFFCURVE",
"637.37 91 OFFCURVE",
"707.008 240 CURVE",
"730.678 359 LINE",
"408.678 359 LINE",
"404.7 339 LINE",
"704.7 339 LINE",
"685.405 242 LINE",
"616.762 98 OFFCURVE",
"480.855 13 OFFCURVE",
"339.855 13 CURVE SMOOTH",
"164.855 13 OFFCURVE",
"50.315 141 OFFCURVE",
"91.888 350 CURVE SMOOTH",
"133.66 560 OFFCURVE",
"298.921 687 OFFCURVE",
"473.921 687 CURVE SMOOTH",
"613.921 687 OFFCURVE",
"700.406 609 OFFCURVE",
"722.123 502 CURVE"
);
},
{
closed = 1;
nodes = (
"642.904 862.867 LINE",
"621.904 862.867 LINE",
"610.63 806.192 OFFCURVE",
"568.104 773.38 OFFCURVE",
"506.104 773.38 CURVE",
"444.104 773.38 OFFCURVE",
"415.63 806.192 OFFCURVE",
"426.904 862.867 CURVE",
"405.904 862.867 LINE",
"404.915 857.896 LINE SMOOTH",
"395.421 810.17 OFFCURVE",
"417.346 754.489 OFFCURVE",
"502.346 754.489 CURVE",
"588.346 754.489 OFFCURVE",
"632.421 810.17 OFFCURVE",
"641.915 857.896 CURVE SMOOTH"
);
}
);
width = 768.9966;
},
{
anchors = (
{
name = bottom;
position = "{325.966, 1}";
},
{
name = top;
position = "{465.404, 702}";
}
);
hints = (
{
place = "{-74.343, -42.343}";
type = Stem;
},
{
place = "{170.657, 88.657}";
type = Stem;
},
{
horizontal = 1;
place = "{-97.343, 63.657}";
type = Stem;
},
{
horizontal = 1;
place = "{174.657, 35.657}";
type = Stem;
},
{
horizontal = 1;
place = "{452.657, 69.657}";
type = Stem;
},
{
place = "{109.657, -5.838}";
type = Stem;
},
{
place = "{366.657, -5.838}";
type = Stem;
},
{
horizontal = 1;
place = "{649.243, 35.922}";
type = Stem;
},
{
horizontal = 1;
place = "{649.243, 101.546}";
type = Stem;
}
);
layerId = "BAF31694-0472-4296-B0EA-1654553C45D2";
paths = (
{
closed = 1;
nodes = (
"759.815 508 LINE",
"740.281 631 OFFCURVE",
"629.399 707 OFFCURVE",
"474.399 707 CURVE SMOOTH",
"263.399 707 OFFCURVE",
"88.96 559 OFFCURVE",
"47.387 350 CURVE SMOOTH",
"5.814 141 OFFCURVE",
"122.375 -7 OFFCURVE",
"334.375 -7 CURVE SMOOTH",
"505.375 -7 OFFCURVE",
"635.465 94 OFFCURVE",
"703.754 196 CURVE",
"744.531 401 LINE",
"416.531 401 LINE",
"389.479 265 LINE",
"557.479 265 LINE",
"551.711 236 LINE",
"507.373 179 OFFCURVE",
"447.814 141 OFFCURVE",
"376.814 141 CURVE SMOOTH",
"255.814 141 OFFCURVE",
"199.125 223 OFFCURVE",
"224.387 350 CURVE SMOOTH",
"247.858 468 OFFCURVE",
"342.96 559 OFFCURVE",
"450.96 559 CURVE SMOOTH",
"521.41 559 OFFCURVE",
"568.239 530.981 OFFCURVE",
"588.256 470 CURVE"
);
},
{
closed = 1;
nodes = (
"683.595 935.474 LINE",
"596.595 935.474 LINE",
"588.288 893.714 OFFCURVE",
"563.344 868.856 OFFCURVE",
"498.344 868.856 CURVE SMOOTH",
"433.344 868.856 OFFCURVE",
"418.288 893.714 OFFCURVE",
"426.595 935.474 CURVE",
"339.595 935.474 LINE",
"335.837 916.582 LINE SMOOTH",
"313.093 802.238 OFFCURVE",
"373.028 741.586 OFFCURVE",
"473.028 741.586 CURVE SMOOTH",
"574.028 741.586 OFFCURVE",
"657.093 802.238 OFFCURVE",
"679.837 916.582 CURVE SMOOTH"
);
}
);
width = 747.49509;
},
{
anchors = (
{
name = bottom;
position = "{345.268, 0}";
},
{
name = top;
position = "{483.114, 693}";
}
);
hints = (
{
place = "{313.918, -14.082}";
type = Stem;
},
{
horizontal = 1;
place = "{170.918, -20}";
target = down;
type = TopGhost;
},
{
horizontal = 1;
place = "{-91.082, 21}";
target = up;
type = BottomGhost;
},
{
place = "{538.918, -23.942}";
type = Stem;
},
{
place = "{618.918, 21.157}";
type = Stem;
},
{
horizontal = 1;
place = "{283.415, 21}";
target = up;
type = BottomGhost;
},
{
horizontal = 1;
place = "{323.503, -20}";
target = down;
type = TopGhost;
}
);
layerId = "9F107B1E-3A61-4335-981B-27DD48125C7E";
paths = (
{
closed = 1;
nodes = (
"757.906 516 LINE",
"728.975 637 OFFCURVE",
"622.899 707 OFFCURVE",
"484.899 707 CURVE SMOOTH",
"288.899 707 OFFCURVE",
"106.658 560 OFFCURVE",
"64.887 350 CURVE SMOOTH",
"23.115 140 OFFCURVE",
"146.875 -7 OFFCURVE",
"342.875 -7 CURVE SMOOTH",
"499.875 -7 OFFCURVE",
"644.17 90 OFFCURVE",
"715.824 224 CURVE",
"745.661 374 LINE",
"424.661 374 LINE",
"411.731 309 LINE",
"651.731 309 LINE",
"635.62 228 LINE",
"578.33 126 OFFCURVE",
"471.197 65 OFFCURVE",
"357.197 65 CURVE SMOOTH",
"205.197 65 OFFCURVE",
"111.276 176 OFFCURVE",
"145.887 350 CURVE SMOOTH",
"180.696 525 OFFCURVE",
"318.776 636 OFFCURVE",
"470.776 636 CURVE SMOOTH",
"573.776 636 OFFCURVE",
"653.185 590.513 OFFCURVE",
"682.735 490 CURVE"
);
},
{
closed = 1;
nodes = (
"662.325 892.641 LINE",
"613.325 892.641 LINE",
"603.357 842.531 OFFCURVE",
"571.576 813.467 OFFCURVE",
"507.576 813.467 CURVE",
"443.576 813.467 OFFCURVE",
"423.357 842.531 OFFCURVE",
"433.325 892.641 CURVE",
"385.325 892.641 LINE",
"382.335 877.608 LINE SMOOTH",
"368.38 807.454 OFFCURVE",
"404.017 750.329 OFFCURVE",
"495.017 750.329 CURVE",
"587.017 750.329 OFFCURVE",
"645.181 806.452 OFFCURVE",
"659.135 876.606 CURVE SMOOTH"
);
}
);
width = 774.99248;
}
);
leftMetricsKey = G;
rightMetricsKey = G;
unicode = 011E;
},
{
glyphname = Gcommaaccent;
lastChange = "2021-09-01 17:33:40 +0000";
layers = (
{
anchors = (
{
name = _bottom;
position = "{333.777, 0}";
},
{
name = bottom;
position = "{339.277, 0}";
}
);
hints = (
{
place = "{288.737, 73.737}";
type = Stem;
},
{
place = "{292.737, 69.737}";
type = Stem;
},
{
place = "{341.737, 20.737}";
type = Stem;
},
{
horizontal = 1;
place = "{-186.263, 52.737}";
type = Stem;
},
{
horizontal = 1;
place = "{-315.263, 21}";
target = up;
type = BottomGhost;
},
{
place = "{-1.263, 73.737}";
type = Stem;
},
{
place = "{555.737, 78.737}";
type = Stem;
},
{
horizontal = 1;
place = "{-49.263, 59.737}";
type = Stem;
},
{
horizontal = 1;
place = "{248.737, 47.737}";
type = Stem;
},
{
horizontal = 1;
place = "{560.737, 60.737}";
type = Stem;
}
);
layerId = "0CF0EA28-C756-4A9E-9D7C-CFEF350B4CFE";
paths = (
{
closed = 1;
nodes = (
"270.428 -47 LINE",
"251.332 -143 LINE",
"304.332 -143 LINE",
"299.956 -165 LINE SMOOTH",
"292.397 -203.003 OFFCURVE",
"273.618 -222 OFFCURVE",
"239.618 -222 CURVE",
"229.672 -272 LINE",
"303.672 -272 OFFCURVE",
"351.027 -230 OFFCURVE",
"367.735 -146 CURVE SMOOTH",
"373.504 -117 OFFCURVE",
"375.068 -84 OFFCURVE",
"373.428 -47 CURVE"
);
},
{
closed = 1;
nodes = (
"762.711 520 LINE",
"732.779 641 OFFCURVE",
"618.908 707 OFFCURVE",
"485.908 707 CURVE SMOOTH",
"289.908 707 OFFCURVE",
"101.469 559 OFFCURVE",
"59.896 350 CURVE SMOOTH",
"18.124 140 OFFCURVE",
"147.884 -7 OFFCURVE",
"343.884 -7 CURVE SMOOTH",
"499.884 -7 OFFCURVE",
"643.98 89 OFFCURVE",
"716.844 214 CURVE",
"751.057 386 LINE",
"431.057 386 LINE",
"412.359 292 LINE",
"616.359 292 LINE",
"601.838 219 LINE",
"551.721 143 OFFCURVE",
"461.179 90 OFFCURVE",
"363.179 90 CURVE SMOOTH",
"225.179 90 OFFCURVE",
"145.263 196 OFFCURVE",
"175.896 350 CURVE SMOOTH",
"206.528 504 OFFCURVE",
"331.613 610 OFFCURVE",
"469.613 610 CURVE SMOOTH",
"558.288 610 OFFCURVE",
"623.88 573.242 OFFCURVE",
"655.351 483 CURVE"
);
}
);
width = 772;
},
{
anchors = (
{
name = _bottom;
position = "{344.677, -8}";
},
{
name = bottom;
position = "{351.268, 0}";
}
);
hints = (
{
place = "{343.288, -28.712}";
type = Stem;
},
{
horizontal = 1;
place = "{-110.712, -20}";
target = down;
type = TopGhost;
},
{
horizontal = 1;
place = "{-229.712, 21}";
target = up;
type = BottomGhost;
},
{
place = "{11.288, -29.712}";
type = Stem;
},
{
horizontal = 1;
place = "{638.288, -20}";
target = down;
type = TopGhost;
},
{
horizontal = 1;
place = "{-60.712, 21}";
target = up;
type = BottomGhost;
}
);
layerId = "6E968933-CD79-43C6-9231-80D77C940F4D";
paths = (
{
closed = 1;
nodes = (
"314.731 -58 LINE",
"306.974 -97 LINE",
"338.974 -97 LINE",
"337.382 -105 LINE SMOOTH",
"330.818 -138 OFFCURVE",
"314.84 -158 OFFCURVE",
"282.84 -158 CURVE",
"279.061 -177 LINE",
"316.061 -177 OFFCURVE",
"348.044 -162 OFFCURVE",
"362.167 -91 CURVE SMOOTH",
"364.156 -81 OFFCURVE",
"365.742 -68 OFFCURVE",
"366.731 -58 CURVE"
);
},
{
closed = 1;
nodes = (
"741.515 509 LINE",
"714.384 629 OFFCURVE",
"625.899 707 OFFCURVE",
"477.899 707 CURVE SMOOTH",
"281.899 707 OFFCURVE",
"111.659 560 OFFCURVE",
"69.888 350 CURVE SMOOTH",
"28.116 140 OFFCURVE",
"139.876 -7 OFFCURVE",
"335.876 -7 CURVE SMOOTH",
"494.876 -7 OFFCURVE",
"637.369 91 OFFCURVE",
"707.007 240 CURVE",
"730.678 359 LINE",
"408.678 359 LINE",
"404.7 339 LINE",
"704.7 339 LINE",
"685.405 242 LINE",
"616.762 98 OFFCURVE",
"480.854 13 OFFCURVE",
"339.854 13 CURVE SMOOTH",
"164.854 13 OFFCURVE",
"50.315 141 OFFCURVE",
"91.888 350 CURVE SMOOTH",
"133.659 560 OFFCURVE",
"298.921 687 OFFCURVE",
"473.921 687 CURVE SMOOTH",
"613.921 687 OFFCURVE",
"700.406 609 OFFCURVE",
"722.122 502 CURVE"
);
}
);
width = 768.9966;
},
{
anchors = (
{
name = _bottom;
position = "{331.474, 1}";
},
{
name = bottom;
position = "{325.974, 1}";
}
);
hints = (
{
place = "{272.715, 114.715}";
type = Stem;
},
{
place = "{316.715, 71.715}";
type = Stem;
},
{
place = "{-72.285, 33.715}";
type = Stem;
},
{
horizontal = 1;
place = "{-203.285, 85.715}";
type = Stem;
},
{
horizontal = 1;
place = "{-154.285, 21}";
target = up;
type = BottomGhost;
},
{
place = "{-21.285, 10.715}";
type = Stem;
},
{
place = "{223.715, 141.715}";
type = Stem;
},
{
horizontal = 1;
place = "{-44.285, 116.715}";
type = Stem;
},
{
horizontal = 1;
place = "{227.715, 88.715}";
type = Stem;
},
{
horizontal = 1;
place = "{505.715, 122.715}";
type = Stem;
}
);
layerId = "BAF31694-0472-4296-B0EA-1654553C45D2";
paths = (
{
closed = 1;
nodes = (
"254.716 -38 LINE",
"229.653 -164 LINE",
"293.653 -164 LINE",
"290.868 -178 LINE SMOOTH",
"281.718 -224 OFFCURVE",
"259.541 -245 OFFCURVE",
"225.541 -245 CURVE",
"212.214 -312 LINE",
"309.214 -312 OFFCURVE",
"367.945 -248 OFFCURVE",
"385.847 -158 CURVE SMOOTH",
"393.206 -121 OFFCURVE",
"394.163 -81 OFFCURVE",
"388.716 -38 CURVE"
);
},
{
closed = 1;
nodes = (
"759.822 508 LINE",
"740.289 631 OFFCURVE",
"629.406 707 OFFCURVE",
"474.406 707 CURVE SMOOTH",
"263.406 707 OFFCURVE",
"88.967 559 OFFCURVE",
"47.394 350 CURVE SMOOTH",
"5.821 141 OFFCURVE",
"122.382 -7 OFFCURVE",
"334.382 -7 CURVE SMOOTH",
"505.382 -7 OFFCURVE",
"635.473 94 OFFCURVE",
"703.762 196 CURVE",
"744.539 401 LINE",
"416.539 401 LINE",
"389.487 265 LINE",
"557.487 265 LINE",
"551.718 236 LINE",
"507.38 179 OFFCURVE",
"447.821 141 OFFCURVE",
"376.821 141 CURVE SMOOTH",
"255.821 141 OFFCURVE",
"199.132 223 OFFCURVE",
"224.394 350 CURVE SMOOTH",
"247.866 468 OFFCURVE",
"342.967 559 OFFCURVE",
"450.967 559 CURVE SMOOTH",
"521.417 559 OFFCURVE",
"568.246 530.981 OFFCURVE",
"588.264 470 CURVE"
);
}
);
width = 747.50509;
},
{
anchors = (
{
name = _bottom;
position = "{339.679, -3}";
},
{
name = bottom;
position = "{345.276, 0}";
}
);
hints = (
{
place = "{12.156, 22.156}";
type = Stem;
},
{
horizontal = 1;
place = "{-68.844, -20}";
target = down;
type = TopGhost;
},
{
horizontal = 1;
place = "{-282.844, 21}";
target = up;
type = BottomGhost;
},
{
place = "{355.156, 27.156}";
type = Stem;
},
{
horizontal = 1;
place = "{212.156, -20}";
target = down;
type = TopGhost;
},
{
horizontal = 1;
place = "{-49.844, 21}";
target = up;
type = BottomGhost;
}
);
layerId = "9F107B1E-3A61-4335-981B-27DD48125C7E";
paths = (
{
closed = 1;
nodes = (
"289.132 -51 LINE",
"274.213 -126 LINE",
"319.213 -126 LINE",
"315.832 -143 LINE SMOOTH",
"308.671 -179 OFFCURVE",
"290.891 -198 OFFCURVE",
"257.891 -198 CURVE",
"250.333 -236 LINE",
"310.333 -236 OFFCURVE",
"351.499 -205 OFFCURVE",
"367.412 -125 CURVE SMOOTH",
"371.589 -104 OFFCURVE",
"372.761 -78 OFFCURVE",
"372.132 -51 CURVE"
);
},
{
closed = 1;
nodes = (
"757.915 516 LINE",
"728.983 637 OFFCURVE",
"622.907 707 OFFCURVE",
"484.907 707 CURVE SMOOTH",
"288.907 707 OFFCURVE",
"106.667 560 OFFCURVE",
"64.895 350 CURVE SMOOTH",
"23.124 140 OFFCURVE",
"146.884 -7 OFFCURVE",
"342.884 -7 CURVE SMOOTH",
"499.884 -7 OFFCURVE",
"644.178 90 OFFCURVE",
"715.833 224 CURVE",
"745.669 374 LINE",
"424.669 374 LINE",
"411.74 309 LINE",
"651.74 309 LINE",
"635.628 228 LINE",
"578.339 126 OFFCURVE",
"471.205 65 OFFCURVE",
"357.205 65 CURVE SMOOTH",
"205.205 65 OFFCURVE",
"111.285 176 OFFCURVE",
"145.895 350 CURVE SMOOTH",
"180.705 525 OFFCURVE",
"318.784 636 OFFCURVE",
"470.784 636 CURVE SMOOTH",
"573.784 636 OFFCURVE",
"653.193 590.513 OFFCURVE",
"682.743 490 CURVE"
);
}
);
width = 775.00248;
}
);
leftMetricsKey = G;
rightMetricsKey = G;
unicode = 0122;
},
{
glyphname = Gdotaccent;
lastChange = "2021-09-01 17:33:40 +0000";
layers = (
{
anchors = (
{
name = bottom;
position = "{339.269, 0}";
},
{
name = top;
position = "{478.706, 701}";
}
);
hints = (
{
place = "{-45.951, 29.049}";
type = Stem;
},
{
place = "{511.049, 34.049}";
type = Stem;
},
{
horizontal = 1;
place = "{-93.951, 15.049}";
type = Stem;
},
{
horizontal = 1;
place = "{204.049, 3.049}";
type = Stem;
},
{
horizontal = 1;
place = "{516.049, 16.049}";
type = Stem;
},
{
place = "{242.799, 32.889}";
type = Stem;
},
{
horizontal = 1;
place = "{682.532, 32.889}";
type = Stem;
}
);
layerId = "0CF0EA28-C756-4A9E-9D7C-CFEF350B4CFE";
paths = (
{
closed = 1;
nodes = (
"762.703 520 LINE",
"732.771 641 OFFCURVE",
"618.9 707 OFFCURVE",
"485.9 707 CURVE SMOOTH",
"289.9 707 OFFCURVE",
"101.461 559 OFFCURVE",
"59.888 350 CURVE SMOOTH",
"18.116 140 OFFCURVE",
"147.876 -7 OFFCURVE",
"343.876 -7 CURVE SMOOTH",
"499.876 -7 OFFCURVE",
"643.972 89 OFFCURVE",
"716.836 214 CURVE",
"751.049 386 LINE",
"431.049 386 LINE",
"412.351 292 LINE",
"616.351 292 LINE",
"601.83 219 LINE",
"551.713 143 OFFCURVE",
"461.171 90 OFFCURVE",
"363.171 90 CURVE SMOOTH",
"225.171 90 OFFCURVE",
"145.255 196 OFFCURVE",
"175.888 350 CURVE SMOOTH",
"206.52 504 OFFCURVE",
"331.605 610 OFFCURVE",
"469.605 610 CURVE SMOOTH",
"558.28 610 OFFCURVE",
"623.873 573.242 OFFCURVE",
"655.343 483 CURVE"
);
},
{
closed = 1;
nodes = (
"525.527 770.483 OFFCURVE",
"557.735 796.665 OFFCURVE",
"564.545 830.903 CURVE SMOOTH",
"571.156 864.134 OFFCURVE",
"549.564 891.323 OFFCURVE",
"516.564 891.323 CURVE SMOOTH",
"482.564 891.323 OFFCURVE",
"451.156 864.134 OFFCURVE",
"444.545 830.903 CURVE SMOOTH",
"437.735 796.665 OFFCURVE",
"458.527 770.483 OFFCURVE",
"492.527 770.483 CURVE SMOOTH"
);
}
);
width = 772;
},
{
anchors = (
{
name = bottom;
position = "{351.268, 0}";
},
{
name = top;
position = "{486.33, 679}";
}
);
hints = (
{
place = "{-15.572, -56.572}";
type = Stem;
},
{
horizontal = 1;
place = "{611.428, -20}";
target = down;
type = TopGhost;
},
{
horizontal = 1;
place = "{-87.572, 21}";
target = up;
type = BottomGhost;
},
{
place = "{292.428, -18.919}";
type = Stem;
},
{
horizontal = 1;
place = "{664.854, -18.919}";
type = Stem;
}
);
layerId = "6E968933-CD79-43C6-9231-80D77C940F4D";
paths = (
{
closed = 1;
nodes = (
"741.515 509 LINE",
"714.384 629 OFFCURVE",
"625.899 707 OFFCURVE",
"477.899 707 CURVE SMOOTH",
"281.899 707 OFFCURVE",
"111.659 560 OFFCURVE",
"69.888 350 CURVE SMOOTH",
"28.116 140 OFFCURVE",
"139.876 -7 OFFCURVE",
"335.876 -7 CURVE SMOOTH",
"494.876 -7 OFFCURVE",
"637.369 91 OFFCURVE",
"707.007 240 CURVE",
"730.678 359 LINE",
"408.678 359 LINE",
"404.7 339 LINE",
"704.7 339 LINE",
"685.405 242 LINE",
"616.762 98 OFFCURVE",
"480.854 13 OFFCURVE",
"339.854 13 CURVE SMOOTH",
"164.854 13 OFFCURVE",
"50.315 141 OFFCURVE",
"91.888 350 CURVE SMOOTH",
"133.659 560 OFFCURVE",
"298.921 687 OFFCURVE",
"473.921 687 CURVE SMOOTH",
"613.921 687 OFFCURVE",
"700.406 609 OFFCURVE",
"722.122 502 CURVE"
);
},
{
closed = 1;
nodes = (
"517.74 746.415 OFFCURVE",
"534.508 760.335 OFFCURVE",
"537.673 776.244 CURVE SMOOTH",
"541.035 793.147 OFFCURVE",
"529.804 807.067 OFFCURVE",
"512.804 807.067 CURVE SMOOTH",
"496.804 807.067 OFFCURVE",
"480.035 793.147 OFFCURVE",
"476.673 776.244 CURVE SMOOTH",
"473.508 760.335 OFFCURVE",
"484.74 746.415 OFFCURVE",
"500.74 746.415 CURVE SMOOTH"
);
}
);
width = 768.9966;
},
{
anchors = (
{
name = bottom;
position = "{325.97, 1}";
},
{
name = top;
position = "{465.407, 702}";
}
);
hints = (
{
place = "{-71.969, -39.969}";
type = Stem;
},
{
place = "{173.031, 91.031}";
type = Stem;
},
{
horizontal = 1;
place = "{-94.969, 66.031}";
type = Stem;
},
{
horizontal = 1;
place = "{177.031, 38.031}";
type = Stem;
},
{
horizontal = 1;
place = "{455.031, 72.031}";
type = Stem;
},
{
place = "{208.031, 59.176}";
type = Stem;
},
{
horizontal = 1;
place = "{672.497, 59.176}";
type = Stem;
}
);
layerId = "BAF31694-0472-4296-B0EA-1654553C45D2";
paths = (
{
closed = 1;
nodes = (
"759.818 508 LINE",
"740.285 631 OFFCURVE",
"629.402 707 OFFCURVE",
"474.402 707 CURVE SMOOTH",
"263.402 707 OFFCURVE",
"88.963 559 OFFCURVE",
"47.39 350 CURVE SMOOTH",
"5.817 141 OFFCURVE",
"122.378 -7 OFFCURVE",
"334.378 -7 CURVE SMOOTH",
"505.378 -7 OFFCURVE",
"635.469 94 OFFCURVE",
"703.758 196 CURVE",
"744.535 401 LINE",
"416.535 401 LINE",
"389.483 265 LINE",
"557.483 265 LINE",
"551.714 236 LINE",
"507.376 179 OFFCURVE",
"447.817 141 OFFCURVE",
"376.817 141 CURVE SMOOTH",
"255.817 141 OFFCURVE",
"199.128 223 OFFCURVE",
"224.39 350 CURVE SMOOTH",
"247.862 468 OFFCURVE",
"342.963 559 OFFCURVE",
"450.963 559 CURVE SMOOTH",
"521.413 559 OFFCURVE",
"568.243 530.981 OFFCURVE",
"588.26 470 CURVE"
);
},
{
closed = 1;
nodes = (
"518.185 762.466 OFFCURVE",
"557.514 794.284 OFFCURVE",
"565.82 836.044 CURVE SMOOTH",
"574.325 878.799 OFFCURVE",
"547.852 911.611 OFFCURVE",
"504.852 911.611 CURVE SMOOTH",
"462.852 911.611 OFFCURVE",
"424.325 878.799 OFFCURVE",
"415.82 836.044 CURVE SMOOTH",
"407.514 794.284 OFFCURVE",
"433.185 762.466 OFFCURVE",
"475.185 762.466 CURVE SMOOTH"
);
}
);
width = 747.49509;
},
{
anchors = (
{
name = bottom;
position = "{345.275, 0}";
},
{
name = top;
position = "{483.121, 693}";
}
);
hints = (
{
place = "{317.305, -10.695}";
type = Stem;
},
{
horizontal = 1;
place = "{174.305, -20}";
target = down;
type = TopGhost;
},
{
horizontal = 1;
place = "{-87.695, 21}";
target = up;
type = BottomGhost;
},
{
place = "{261.305, 13.52}";
type = Stem;
},
{
horizontal = 1;
place = "{676.675, 13.52}";
type = Stem;
}
);
layerId = "9F107B1E-3A61-4335-981B-27DD48125C7E";
paths = (
{
closed = 1;
nodes = (
"757.913 516 LINE",
"728.982 637 OFFCURVE",
"622.906 707 OFFCURVE",
"484.906 707 CURVE SMOOTH",
"288.906 707 OFFCURVE",
"106.666 560 OFFCURVE",
"64.894 350 CURVE SMOOTH",
"23.122 140 OFFCURVE",
"146.882 -7 OFFCURVE",
"342.882 -7 CURVE SMOOTH",
"499.882 -7 OFFCURVE",
"644.177 90 OFFCURVE",
"715.831 224 CURVE",
"745.668 374 LINE",
"424.668 374 LINE",
"411.739 309 LINE",
"651.739 309 LINE",
"635.627 228 LINE",
"578.338 126 OFFCURVE",
"471.204 65 OFFCURVE",
"357.204 65 CURVE SMOOTH",
"205.204 65 OFFCURVE",
"111.283 176 OFFCURVE",
"145.894 350 CURVE SMOOTH",
"180.704 525 OFFCURVE",
"318.783 636 OFFCURVE",
"470.783 636 CURVE SMOOTH",
"573.783 636 OFFCURVE",
"653.192 590.513 OFFCURVE",
"682.742 490 CURVE"
);
},
{
closed = 1;
nodes = (
"524.021 760.368 OFFCURVE",
"550.208 781.415 OFFCURVE",
"555.59 808.474 CURVE SMOOTH",
"560.973 835.533 OFFCURVE",
"543.558 858.584 OFFCURVE",
"516.558 858.584 CURVE SMOOTH",
"488.558 858.584 OFFCURVE",
"462.973 835.533 OFFCURVE",
"457.59 808.474 CURVE SMOOTH",
"452.208 781.415 OFFCURVE",
"469.021 760.368 OFFCURVE",
"497.021 760.368 CURVE SMOOTH"
);
}
);
width = 775.00248;
}
);
leftMetricsKey = G;
rightMetricsKey = G;
unicode = 0120;
},
{
glyphname = H;
lastChange = "2021-09-01 17:33:40 +0000";
layers = (
{
guideLines = (
{
position = "{21.89, 699.66}";
}
);
hints = (
{
place = "{15.381, 44.381}";
type = Stem;
},
{
place = "{456.381, 44.381}";
type = Stem;
},
{
horizontal = 1;
place = "{236.381, 23.381}";
type = Stem;
},
{
horizontal = 1;
place = "{-69.619, 21}";
target = up;
type = BottomGhost;
},
{
horizontal = 1;
place = "{630.381, -20}";
target = down;
type = TopGhost;
}
);
layerId = "0CF0EA28-C756-4A9E-9D7C-CFEF350B4CFE";
paths = (
{
closed = 1;
nodes = (
"30.271 0 LINE",
"144.271 0 LINE",
"283.509 700 LINE",
"169.509 700 LINE"
);
},
{
closed = 1;
nodes = (
"479.271 0 LINE",
"593.271 0 LINE",
"732.509 700 LINE",
"618.509 700 LINE"
);
},
{
closed = 1;
nodes = (
"192.337 307 LINE",
"566.337 307 LINE",
"585.233 402 LINE",
"211.233 402 LINE"
);
}
);
width = 723;
},
{
hints = (
{
place = "{44.381, -47.619}";
type = Stem;
},
{
place = "{489.381, -47.619}";
type = Stem;
},
{
horizontal = 1;
place = "{-69.619, 21}";
target = up;
type = BottomGhost;
},
{
horizontal = 1;
place = "{630.381, -20}";
target = down;
type = TopGhost;
}
);
layerId = "6E968933-CD79-43C6-9231-80D77C940F4D";
paths = (
{
closed = 1;
nodes = (
"50.271 0 LINE",
"72.271 0 LINE",
"211.509 700 LINE",
"189.509 700 LINE"
);
},
{
closed = 1;
nodes = (
"519.271 0 LINE",
"541.271 0 LINE",
"680.509 700 LINE",
"658.509 700 LINE"
);
},
{
closed = 1;
nodes = (
"134.89 350 LINE",
"594.89 350 LINE",
"598.868 370 LINE",
"138.868 370 LINE"
);
}
);
width = 690.99596;
},
{
hints = (
{
place = "{-16.619, 106.381}";
type = Stem;
},
{
place = "{420.381, 106.381}";
type = Stem;
},
{
horizontal = 1;
place = "{216.381, 71.381}";
type = Stem;
},
{
horizontal = 1;
place = "{-69.619, 21}";
target = up;
type = BottomGhost;
},
{
horizontal = 1;
place = "{630.381, -20}";
target = down;
type = TopGhost;
}
);
layerId = "BAF31694-0472-4296-B0EA-1654553C45D2";
paths = (
{
closed = 1;
nodes = (
"5.271 0 LINE",
"179.271 0 LINE",
"318.509 700 LINE",
"144.509 700 LINE"
);
},
{
closed = 1;
nodes = (
"443.271 0 LINE",
"617.271 0 LINE",
"756.509 700 LINE",
"582.509 700 LINE"
);
},
{
closed = 1;
nodes = (
"221.364 282 LINE",
"525.364 282 LINE",
"554.405 428 LINE",
"250.405 428 LINE"
);
}
);
width = 722;
},
{
hints = (
{
place = "{302.381, 10.381}";
type = Stem;
},
{
place = "{331.381, -3.619}";
type = Stem;
},
{
horizontal = 1;
place = "{-69.619, 21}";
target = up;
type = BottomGhost;
},
{
horizontal = 1;
place = "{630.381, -20}";
target = down;
type = TopGhost;
}
);
layerId = "9F107B1E-3A61-4335-981B-27DD48125C7E";
paths = (
{
closed = 1;
nodes = (
"40.271 0 LINE",
"120.271 0 LINE",
"259.509 700 LINE",
"179.509 700 LINE"
);
},
{
closed = 1;
nodes = (
"495.271 0 LINE",
"575.271 0 LINE",
"714.509 700 LINE",
"634.509 700 LINE"
);
},
{
closed = 1;
nodes = (
"170.122 321 LINE",
"577.122 321 LINE",
"591.045 391 LINE",
"184.045 391 LINE"
);
}
);
width = 714.99724;
}
);
unicode = 0048;
},
{
glyphname = I;
lastChange = "2021-09-01 17:33:40 +0000";
layers = (
{
anchors = (
{
name = ogonek;
position = "{144.47, 1}";
},
{
name = top;
position = "{226.708, 701}";
}
);
hints = (
{
place = "{15.381, 44.381}";
type = Stem;
},
{
horizontal = 1;
place = "{-69.619, 21}";
target = up;
type = BottomGhost;
},
{
horizontal = 1;
place = "{630.381, -20}";
target = down;
type = TopGhost;
}
);
layerId = "0CF0EA28-C756-4A9E-9D7C-CFEF350B4CFE";
paths = (
{
closed = 1;
nodes = (
"30.271 0 LINE",
"144.271 0 LINE",
"283.509 700 LINE",
"169.509 700 LINE"
);
}
);
width = 274;
},
{
anchors = (
{
name = ogonek;
position = "{72.271, 0}";
},
{
name = top;
position = "{196.332, 679}";
}
);
hints = (
{
place = "{35.381, -47.619}";
type = Stem;
},
{
horizontal = 1;
place = "{-69.619, 21}";
target = up;
type = BottomGhost;
},
{
horizontal = 1;
place = "{630.381, -20}";
target = down;
type = TopGhost;
}
);
layerId = "6E968933-CD79-43C6-9231-80D77C940F4D";
paths = (
{
closed = 1;
nodes = (
"50.271 0 LINE",
"72.271 0 LINE",
"211.509 700 LINE",
"189.509 700 LINE"
);
}
);
width = 221.99894;
},
{
anchors = (
{
name = ogonek;
position = "{180.47, 1}";
},
{
name = top;
position = "{231.907, 702}";
}
);
hints = (
{
place = "{-16.619, 106.381}";
type = Stem;
},
{
horizontal = 1;
place = "{-69.619, 21}";
target = up;
type = BottomGhost;
},
{
horizontal = 1;
place = "{630.381, -20}";
target = down;
type = TopGhost;
}
);
layerId = "BAF31694-0472-4296-B0EA-1654553C45D2";
paths = (
{
closed = 1;
nodes = (
"5.271 0 LINE",
"179.271 0 LINE",
"318.509 700 LINE",
"144.509 700 LINE"
);
}
);
width = 284.00378;
},
{
anchors = (
{
name = ogonek;
position = "{119.47, 1}";
},
{
name = top;
position = "{217.117, 693}";
}
);
hints = (
{
place = "{23.381, 10.381}";
type = Stem;
},
{
horizontal = 1;
place = "{-69.619, 21}";
target = up;
type = BottomGhost;
},
{
horizontal = 1;
place = "{630.381, -20}";
target = down;
type = TopGhost;
}
);
layerId = "9F107B1E-3A61-4335-981B-27DD48125C7E";
paths = (
{
closed = 1;
nodes = (
"40.271 0 LINE",
"120.271 0 LINE",
"259.509 700 LINE",
"179.509 700 LINE"
);
}
);
width = 260.00335;
}
);
leftMetricsKey = H;
rightMetricsKey = H;
unicode = 0049;
},
{
glyphname = Iacute;
lastChange = "2021-09-01 17:33:40 +0000";
layers = (
{
anchors = (
{
name = ogonek;
position = "{205.473, 1}";
},
{
name = top;
position = "{287.712, 701}";
}
);
hints = (
{
place = "{51.844, 19.844}";
type = Stem;
},
{
horizontal = 1;
place = "{-94.156, 21}";
target = up;
type = BottomGhost;
},
{
horizontal = 1;
place = "{605.844, -20}";
target = down;
type = TopGhost;
}
);
layerId = "0CF0EA28-C756-4A9E-9D7C-CFEF350B4CFE";
paths = (
{
closed = 1;
nodes = (
"91.274 0 LINE",
"205.274 0 LINE",
"344.513 700 LINE",
"230.513 700 LINE"
);
},
{
closed = 1;
nodes = (
"194.349 824.861 LINE",
"177.523 740.273 LINE",
"420.156 849.029 LINE",
"439.586 946.708 LINE"
);
}
);
width = 381;
},
{
anchors = (
{
name = ogonek;
position = "{164.269, 0}";
},
{
name = top;
position = "{288.331, 679}";
}
);
hints = (
{
place = "{109.699, -65.301}";
type = Stem;
},
{
horizontal = 1;
place = "{-87.301, 21}";
target = up;
type = BottomGhost;
},
{
horizontal = 1;
place = "{612.699, -20}";
target = down;
type = TopGhost;
}
);
layerId = "6E968933-CD79-43C6-9231-80D77C940F4D";
paths = (
{
closed = 1;
nodes = (
"142.269 0 LINE",
"164.269 0 LINE",
"303.508 700 LINE",
"281.508 700 LINE"
);
},
{
closed = 1;
nodes = (
"198.369 744.546 LINE",
"194.215 723.665 LINE",
"406.926 852.924 LINE",
"411.871 877.782 LINE"
);
}
);
width = 387.00234;
},
{
anchors = (
{
name = ogonek;
position = "{219.22, 1}";
},
{
name = top;
position = "{270.658, 702}";
}
);
hints = (
{
place = "{-4.849, 79.401}";
type = Stem;
},
{
horizontal = 1;
place = "{-96.599, 21}";
target = up;
type = BottomGhost;
},
{
horizontal = 1;
place = "{603.401, -20}";
target = down;
type = TopGhost;
}
);
layerId = "BAF31694-0472-4296-B0EA-1654553C45D2";
paths = (
{
closed = 1;
nodes = (
"44.021 0 LINE",
"218.021 0 LINE",
"357.26 700 LINE",
"183.26 700 LINE"
);
},
{
closed = 1;
nodes = (
"175.922 857.919 LINE",
"151.991 737.608 LINE",
"414.571 836.044 LINE",
"441.469 971.269 LINE"
);
}
);
width = 353.00076;
},
{
anchors = (
{
name = ogonek;
position = "{190.97, 1}";
},
{
name = top;
position = "{288.617, 693}";
}
);
hints = (
{
place = "{72.831, -11.669}";
type = Stem;
},
{
horizontal = 1;
place = "{-91.669, 21}";
target = up;
type = BottomGhost;
},
{
horizontal = 1;
place = "{608.331, -20}";
target = down;
type = TopGhost;
}
);
layerId = "9F107B1E-3A61-4335-981B-27DD48125C7E";
paths = (
{
closed = 1;
nodes = (
"111.771 0 LINE",
"191.771 0 LINE",
"331.009 700 LINE",
"251.009 700 LINE"
);
},
{
closed = 1;
nodes = (
"198.691 796.43 LINE",
"186.73 736.298 LINE",
"417.655 851.551 LINE",
"431.609 921.705 LINE"
);
}
);
width = 387.99463;
}
);
leftMetricsKey = H;
rightMetricsKey = H;
unicode = 00CD;
},
{
glyphname = Ibreve;
lastChange = "2021-09-01 17:33:40 +0000";
layers = (
{
anchors = (
{
name = ogonek;
position = "{237.469, 1}";
},
{
name = top;
position = "{319.707, 701}";
}
);
hints = (
{
place = "{87.55, 23.55}";
type = Stem;
},
{
horizontal = 1;
place = "{-90.45, 21}";
target = up;
type = BottomGhost;
},
{
horizontal = 1;
place = "{609.55, -20}";
target = down;
type = TopGhost;
},
{
place = "{-6.2, -24.995}";
type = Stem;
},
{
place = "{228.8, -23.988}";
type = Stem;
},
{
horizontal = 1;
place = "{656.872, -0.827}";
type = Stem;
},
{
horizontal = 1;
place = "{656.872, 71.677}";
type = Stem;
}
);
layerId = "0CF0EA28-C756-4A9E-9D7C-CFEF350B4CFE";
paths = (
{
closed = 1;
nodes = (
"123.27 0 LINE",
"237.27 0 LINE",
"376.508 700 LINE",
"262.508 700 LINE"
);
},
{
closed = 1;
nodes = (
"512.17 909.449 LINE",
"446.17 909.449 LINE",
"437.157 864.134 OFFCURVE",
"411.748 836.945 OFFCURVE",
"346.748 836.945 CURVE SMOOTH",
"281.748 836.945 OFFCURVE",
"267.157 864.134 OFFCURVE",
"276.17 909.449 CURVE",
"211.17 909.449 LINE",
"206.964 888.302 LINE SMOOTH",
"190.339 804.721 OFFCURVE",
"234.921 747.322 OFFCURVE",
"328.921 747.322 CURVE SMOOTH",
"423.921 747.322 OFFCURVE",
"491.138 803.714 OFFCURVE",
"507.764 887.295 CURVE SMOOTH"
);
}
);
width = 461;
},
{
anchors = (
{
name = ogonek;
position = "{176.272, 0}";
},
{
name = top;
position = "{300.334, 679}";
}
);
hints = (
{
place = "{123.182, -63.818}";
type = Stem;
},
{
horizontal = 1;
place = "{-85.818, 21}";
target = up;
type = BottomGhost;
},
{
horizontal = 1;
place = "{614.182, -20}";
target = down;
type = TopGhost;
},
{
place = "{26.182, -64.937}";
type = Stem;
},
{
place = "{238.182, -62.949}";
type = Stem;
},
{
horizontal = 1;
place = "{655.745, 21}";
target = up;
type = BottomGhost;
},
{
horizontal = 1;
place = "{761.141, -20}";
target = down;
type = TopGhost;
}
);
layerId = "6E968933-CD79-43C6-9231-80D77C940F4D";
paths = (
{
closed = 1;
nodes = (
"154.272 0 LINE",
"176.272 0 LINE",
"315.511 700 LINE",
"293.511 700 LINE"
);
},
{
closed = 1;
nodes = (
"458.908 862.867 LINE",
"437.908 862.867 LINE",
"426.634 806.192 OFFCURVE",
"384.107 773.38 OFFCURVE",
"322.107 773.38 CURVE",
"260.107 773.38 OFFCURVE",
"231.634 806.192 OFFCURVE",
"242.908 862.867 CURVE",
"221.908 862.867 LINE",
"220.919 857.896 LINE SMOOTH",
"211.425 810.17 OFFCURVE",
"233.35 754.489 OFFCURVE",
"318.35 754.489 CURVE",
"404.35 754.489 OFFCURVE",
"448.425 810.17 OFFCURVE",
"457.919 857.896 CURVE SMOOTH"
);
}
);
width = 437.00191;
},
{
anchors = (
{
name = ogonek;
position = "{265.22, 1}";
},
{
name = top;
position = "{316.658, 702}";
}
);
hints = (
{
place = "{44.711, 82.961}";
type = Stem;
},
{
horizontal = 1;
place = "{-93.039, 21}";
target = up;
type = BottomGhost;
},
{
horizontal = 1;
place = "{606.961, -20}";
target = down;
type = TopGhost;
},
{
place = "{-39.289, -6.535}";
type = Stem;
},
{
place = "{217.711, -6.535}";
type = Stem;
},
{
horizontal = 1;
place = "{648.547, 35.226}";
type = Stem;
},
{
horizontal = 1;
place = "{648.547, 100.85}";
type = Stem;
}
);
layerId = "BAF31694-0472-4296-B0EA-1654553C45D2";
paths = (
{
closed = 1;
nodes = (
"90.021 0 LINE",
"264.021 0 LINE",
"403.26 700 LINE",
"229.26 700 LINE"
);
},
{
closed = 1;
nodes = (
"535.349 935.474 LINE",
"448.349 935.474 LINE",
"440.042 893.714 OFFCURVE",
"415.098 868.856 OFFCURVE",
"350.098 868.856 CURVE SMOOTH",
"285.098 868.856 OFFCURVE",
"270.042 893.714 OFFCURVE",
"278.349 935.474 CURVE",
"191.349 935.474 LINE",
"187.591 916.582 LINE SMOOTH",
"164.846 802.238 OFFCURVE",
"224.782 741.586 OFFCURVE",
"324.782 741.586 CURVE SMOOTH",
"425.782 741.586 OFFCURVE",
"508.846 802.238 OFFCURVE",
"531.591 916.582 CURVE SMOOTH"
);
}
);
width = 454.00321;
},
{
anchors = (
{
name = ogonek;
position = "{215.97, 1}";
},
{
name = top;
position = "{313.618, 693}";
}
);
hints = (
{
place = "{100.721, -8.779}";
type = Stem;
},
{
horizontal = 1;
place = "{-88.779, 21}";
target = up;
type = BottomGhost;
},
{
horizontal = 1;
place = "{611.221, -20}";
target = down;
type = TopGhost;
},
{
place = "{370.721, -24.638}";
type = Stem;
},
{
place = "{450.721, 20.461}";
type = Stem;
},
{
horizontal = 1;
place = "{282.719, 21}";
target = up;
type = BottomGhost;
},
{
horizontal = 1;
place = "{322.807, -20}";
target = down;
type = TopGhost;
}
);
layerId = "9F107B1E-3A61-4335-981B-27DD48125C7E";
paths = (
{
closed = 1;
nodes = (
"136.771 0 LINE",
"216.771 0 LINE",
"356.01 700 LINE",
"276.01 700 LINE"
);
},
{
closed = 1;
nodes = (
"494.829 892.641 LINE",
"445.829 892.641 LINE",
"435.861 842.531 OFFCURVE",
"404.08 813.467 OFFCURVE",
"340.08 813.467 CURVE",
"276.08 813.467 OFFCURVE",
"255.861 842.531 OFFCURVE",
"265.829 892.641 CURVE",
"217.829 892.641 LINE",
"214.838 877.608 LINE SMOOTH",
"200.884 807.454 OFFCURVE",
"236.521 750.329 OFFCURVE",
"327.521 750.329 CURVE",
"419.521 750.329 OFFCURVE",
"477.685 806.452 OFFCURVE",
"491.639 876.606 CURVE SMOOTH"
);
}
);
width = 457.00447;
}
);
leftMetricsKey = H;
rightMetricsKey = H;
unicode = 012C;
},
